<?xml version="1.0" encoding="utf-8" standalone="no"?>
<!DOCTYPE svg PUBLIC "-//W3C//DTD SVG 1.1//EN"
  "http://www.w3.org/Graphics/SVG/1.1/DTD/svg11.dtd">
<svg xmlns:xlink="http://www.w3.org/1999/xlink" width="729.544pt" height="217.815pt" viewBox="0 0 729.544 217.815" xmlns="http://www.w3.org/2000/svg" version="1.1">
 <metadata>
  <rdf:RDF xmlns:dc="http://purl.org/dc/elements/1.1/" xmlns:cc="http://creativecommons.org/ns#" xmlns:rdf="http://www.w3.org/1999/02/22-rdf-syntax-ns#">
   <cc:Work>
    <dc:type rdf:resource="http://purl.org/dc/dcmitype/StillImage"/>
    <dc:date>2026-03-10T16:55:24.452003</dc:date>
    <dc:format>image/svg+xml</dc:format>
    <dc:creator>
     <cc:Agent>
      <dc:title>Matplotlib v3.10.8, https://matplotlib.org/</dc:title>
     </cc:Agent>
    </dc:creator>
   </cc:Work>
  </rdf:RDF>
 </metadata>
 <defs>
  <style type="text/css">*{stroke-linejoin: round; stroke-linecap: butt}</style>
 </defs>
 <g id="figure_1">
  <g id="patch_1">
   <path d="M 0 217.815 
L 729.544 217.815 
L 729.544 0 
L 0 0 
z
" style="fill: #ffffff"/>
  </g>
  <g id="axes_1">
   <g id="patch_2">
    <path d="M 21.064 181.44 
L 729.544 181.44 
L 729.544 6.48 
L 21.064 6.48 
z
" style="fill: #ffffff"/>
   </g>
   <g id="line2d_1">
    <path d="M 28.009882 15.978644 
L 28.336159 17.253699 
L 28.716815 19.74727 
L 29.206229 24.487221 
L 29.858782 33.301492 
L 30.674474 47.789258 
L 31.762062 71.52457 
L 35.079206 146.830813 
L 35.894897 159.495894 
L 36.54745 166.59125 
L 37.036865 169.940922 
L 37.417521 171.318855 
L 37.689418 171.632848 
L 37.852556 171.551832 
L 38.070074 171.129997 
L 38.39635 169.829739 
L 38.831385 166.874161 
L 39.37518 161.299122 
L 40.027733 152.074284 
L 40.843424 137.229692 
L 41.985391 112.048443 
L 44.92188 45.423528 
L 45.79195 31.212169 
L 46.498883 23.045975 
L 47.042677 19.105526 
L 47.423333 17.6298 
L 47.69523 17.236821 
L 47.858368 17.26703 
L 48.075886 17.61738 
L 48.347783 18.550786 
L 48.728438 20.768555 
L 49.217853 25.130848 
L 49.816027 32.62349 
L 50.577339 45.189242 
L 51.610547 66.431608 
L 55.471486 150.370501 
L 56.232797 160.675731 
L 56.830971 166.14272 
L 57.320386 168.744283 
L 57.646662 169.508843 
L 57.86418 169.58234 
L 58.081697 169.306519 
L 58.353595 168.472979 
L 58.73425 166.406336 
L 59.223665 162.25479 
L 59.821839 155.038494 
L 60.58315 142.840516 
L 61.56198 123.275402 
L 63.465259 79.497141 
L 64.879124 49.550423 
L 65.803574 34.350602 
L 66.510506 26.036206 
L 67.0543 21.882808 
L 67.489336 20.055474 
L 67.761233 19.60567 
L 67.924371 19.593284 
L 68.141889 19.877096 
L 68.413786 20.712024 
L 68.794442 22.764457 
L 69.283856 26.870192 
L 69.88203 33.989639 
L 70.643342 46.004115 
L 71.622171 65.249756 
L 73.57983 109.473302 
L 74.939315 137.624158 
L 75.863765 152.51592 
L 76.570698 160.651837 
L 77.114492 164.708742 
L 77.549527 166.486988 
L 77.821424 166.919401 
L 77.984562 166.926364 
L 78.20208 166.641226 
L 78.473977 165.814169 
L 78.854633 163.790516 
L 79.344048 159.751754 
L 79.942221 152.758017 
L 80.703533 140.966951 
L 81.682362 122.093748 
L 83.640021 78.763245 
L 84.999507 51.200682 
L 85.923957 36.626317 
L 86.630889 28.666133 
L 87.174683 24.697841 
L 87.609718 22.958941 
L 87.881615 22.536364 
L 88.044754 22.529778 
L 88.262271 22.808948 
L 88.534168 23.61815 
L 88.914824 25.597574 
L 89.404239 29.547316 
L 90.002413 36.385804 
L 90.763724 47.913369 
L 91.742554 66.362061 
L 93.754592 109.878232 
L 95.114077 136.602087 
L 96.038527 150.607088 
L 96.74546 158.169037 
L 97.289254 161.867462 
L 97.66991 163.295241 
L 97.941807 163.716361 
L 98.159324 163.691812 
L 98.376842 163.346384 
L 98.703119 162.231251 
L 99.083774 160.04113 
L 99.573189 155.8708 
L 100.225742 148.110286 
L 101.041433 135.352988 
L 102.129022 114.456507 
L 105.446166 48.122973 
L 106.261857 36.916442 
L 106.91441 30.598002 
L 107.458204 27.33611 
L 107.83886 26.191002 
L 108.110757 25.957551 
L 108.273895 26.052063 
L 108.491413 26.450999 
L 108.817689 27.629196 
L 109.252725 30.259643 
L 109.796519 35.174617 
L 110.449072 43.259009 
L 111.319142 57.16894 
L 112.515489 80.322947 
L 115.180081 133.037951 
L 116.104531 146.642392 
L 116.811463 154.119696 
L 117.355257 157.888959 
L 117.790292 159.582307 
L 118.062189 160.028596 
L 118.279707 160.044107 
L 118.497225 159.756304 
L 118.769122 158.972767 
L 119.149778 157.097109 
L 119.639192 153.395037 
L 120.237366 147.02602 
L 120.998678 136.336316 
L 122.031886 118.257781 
L 125.892825 46.650423 
L 126.654137 37.771265 
L 127.25231 33.006179 
L 127.741725 30.681479 
L 128.068001 29.947588 
L 128.285519 29.825408 
L 128.503037 29.99726 
L 128.774934 30.623597 
L 129.15559 32.258282 
L 129.645004 35.619672 
L 130.243178 41.535891 
L 131.00449 51.61487 
L 131.983319 67.874951 
L 133.77784 102.400799 
L 135.300463 129.788071 
L 136.224913 142.768783 
L 136.931846 149.987268 
L 137.530019 153.974976 
L 137.965054 155.570658 
L 138.291331 156.026679 
L 138.508848 155.975543 
L 138.726366 155.64087 
L 139.052643 154.611869 
L 139.487678 152.276515 
L 140.031472 147.87721 
L 140.684025 140.606886 
L 141.554096 128.05617 
L 142.750443 107.10313 
L 145.469413 58.322274 
L 146.393863 46.046879 
L 147.100796 39.315532 
L 147.64459 35.932105 
L 148.079625 34.420168 
L 148.351522 34.027792 
L 148.56904 34.022025 
L 148.786557 34.289793 
L 149.058454 35.006512 
L 149.43911 36.711514 
L 149.928525 40.065679 
L 150.526699 45.824715 
L 151.28801 55.477535 
L 152.321219 71.786477 
L 156.182158 136.396058 
L 156.943469 144.447364 
L 157.541643 148.794045 
L 158.031058 150.94123 
L 158.357334 151.642004 
L 158.574852 151.78036 
L 158.792369 151.655261 
L 159.064266 151.130062 
L 159.390543 149.965336 
L 159.825578 147.528562 
L 160.369372 143.132429 
L 161.076305 135.384862 
L 162.000755 122.399963 
L 163.36024 99.61763 
L 165.535416 63.332847 
L 166.514246 50.762431 
L 167.221178 44.138342 
L 167.819352 40.409347 
L 168.254387 38.854437 
L 168.580664 38.346557 
L 168.798181 38.32404 
L 169.015699 38.554148 
L 169.287596 39.19466 
L 169.668252 40.739652 
L 170.157667 43.800293 
L 170.75584 49.076424 
L 171.517152 57.944 
L 172.550361 72.961325 
L 176.520058 134.039353 
L 177.28137 141.240712 
L 177.879543 145.05419 
L 178.368958 146.86829 
L 178.695234 147.403002 
L 178.912752 147.456606 
L 179.13027 147.267983 
L 179.402167 146.693647 
L 179.782823 145.26711 
L 180.272237 142.400381 
L 180.870411 137.418264 
L 181.631723 128.999314 
L 182.610552 115.495714 
L 184.459452 86.090012 
L 185.927696 64.372294 
L 186.852146 53.655895 
L 187.559078 47.676772 
L 188.157252 44.350047 
L 188.592287 42.996035 
L 188.918564 42.585482 
L 189.136081 42.601863 
L 189.353599 42.849878 
L 189.679876 43.65255 
L 190.114911 45.510435 
L 190.658705 49.044189 
L 191.311258 54.917444 
L 192.126949 64.396969 
L 193.268917 80.528139 
L 196.314164 124.997791 
L 197.184235 134.120235 
L 197.891167 139.397078 
L 198.434961 141.984121 
L 198.869996 143.079152 
L 199.141893 143.31441 
L 199.359411 143.252767 
L 199.631308 142.864526 
L 199.957585 141.947194 
L 200.39262 139.976443 
L 200.936414 136.368167 
L 201.643346 129.94716 
L 202.513417 119.804338 
L 203.764143 102.339873 
L 206.265596 66.974762 
L 207.190046 57.04017 
L 207.951358 51.109157 
L 208.549532 48.10195 
L 208.984567 46.892037 
L 209.310843 46.538955 
L 209.528361 46.569252 
L 209.800258 46.905214 
L 210.126535 47.741183 
L 210.56157 49.573439 
L 211.105364 52.964444 
L 211.757917 58.511791 
L 212.627988 68.025758 
L 213.824335 83.844435 
L 216.597685 121.309452 
L 217.522135 130.514287 
L 218.229067 135.569751 
L 218.772861 138.122076 
L 219.207897 139.275036 
L 219.534173 139.608367 
L 219.751691 139.575912 
L 220.023588 139.249595 
L 220.349864 138.443095 
L 220.7849 136.679717 
L 221.328694 133.419926 
L 221.981247 128.089981 
L 222.851317 118.949907 
L 224.047664 103.747915 
L 226.821014 67.677129 
L 227.745464 58.781087 
L 228.452397 53.876224 
L 228.996191 51.384157 
L 229.431226 50.243458 
L 229.757503 49.898328 
L 229.97502 49.913039 
L 230.246917 50.206277 
L 230.573194 50.957541 
L 231.008229 52.622137 
L 231.552023 55.721285 
L 232.204576 60.811318 
L 233.074647 69.570676 
L 234.270994 84.190154 
L 237.098723 119.675112 
L 238.023173 128.220147 
L 238.730106 132.917782 
L 239.2739 135.293207 
L 239.708935 136.369528 
L 240.035212 136.683831 
L 240.252729 136.656975 
L 240.524626 136.358018 
L 240.850903 135.613662 
L 241.285938 133.98115 
L 241.829732 130.95723 
L 242.482285 126.004613 
L 243.352356 117.495795 
L 244.548703 103.307121 
L 247.376432 68.862684 
L 248.300882 60.556513 
L 249.007815 55.983828 
L 249.551609 53.666821 
L 249.986644 52.612818 
L 250.31292 52.300985 
L 250.530438 52.322776 
L 250.802335 52.607994 
L 251.128612 53.325303 
L 251.563647 54.904675 
L 252.107441 57.836919 
L 252.759994 62.647455 
L 253.630065 70.925225 
L 254.826412 84.754522 
L 257.708521 119.003051 
L 258.632971 127.040935 
L 259.339903 131.436777 
L 259.883697 133.639394 
L 260.318732 134.61723 
L 260.645009 134.881476 
L 260.862526 134.832649 
L 261.134424 134.518999 
L 261.4607 133.775506 
L 261.895735 132.174681 
L 262.439529 129.23688 
L 263.146462 123.993528 
L 264.016532 115.677333 
L 265.267259 101.265721 
L 267.93185 69.965359 
L 268.8563 61.821283 
L 269.563232 57.283276 
L 270.161406 54.764782 
L 270.596441 53.746941 
L 270.922718 53.446511 
L 271.194615 53.501933 
L 271.466512 53.834939 
L 271.847168 54.762629 
L 272.282203 56.46645 
L 272.825997 59.515886 
L 273.53293 64.87311 
L 274.403 73.2772 
L 275.708106 88.374136 
L 278.15518 117.05708 
L 279.134009 125.80706 
L 279.895321 130.701021 
L 280.493494 133.175757 
L 280.92853 134.162819 
L 281.254806 134.440713 
L 281.526703 134.366848 
L 281.7986 134.015681 
L 282.179256 133.062998 
L 282.668671 131.067763 
L 283.266844 127.514536 
L 283.973777 121.889654 
L 284.898227 112.625344 
L 286.312092 95.870501 
L 288.432889 71.003747 
L 289.411718 62.112653 
L 290.17303 57.100665 
L 290.771203 54.534714 
L 291.206239 53.485013 
L 291.532515 53.163352 
L 291.804412 53.203401 
L 292.076309 53.523569 
L 292.402586 54.274591 
L 292.837621 55.886045 
L 293.381415 58.840188 
L 294.088347 64.113881 
L 294.958418 72.487528 
L 296.209145 87.027612 
L 298.928115 119.267383 
L 299.852565 127.396938 
L 300.559498 131.872951 
L 301.103292 134.134516 
L 301.538327 135.153346 
L 301.864603 135.442736 
L 302.082121 135.407313 
L 302.354018 135.106021 
L 302.680295 134.370059 
L 303.11533 132.765234 
L 303.659124 129.797013 
L 304.311677 124.93192 
L 305.181748 116.553332 
L 306.378095 102.522817 
L 309.314583 67.056782 
L 310.239033 58.983373 
L 310.945965 54.632884 
L 311.489759 52.514729 
L 311.924795 51.638019 
L 312.196692 51.468637 
L 312.414209 51.544455 
L 312.686107 51.903219 
L 313.066762 52.894129 
L 313.501798 54.709544 
L 314.045592 57.957247 
L 314.752524 63.665908 
L 315.622595 72.6319 
L 316.873321 88.054971 
L 319.429154 120.032808 
L 320.353604 128.775536 
L 321.060536 133.650069 
L 321.65871 136.347952 
L 322.093745 137.427132 
L 322.420021 137.732551 
L 322.637539 137.693544 
L 322.909436 137.371536 
L 323.235713 136.586829 
L 323.670748 134.876785 
L 324.214542 131.714242 
L 324.867095 126.529945 
L 325.737166 117.599934 
L 326.933513 102.645682 
L 329.815621 65.496226 
L 330.740071 56.809785 
L 331.447004 52.109268 
L 331.990798 49.807202 
L 332.425833 48.842307 
L 332.69773 48.645715 
L 332.915248 48.71557 
L 333.187145 49.086845 
L 333.513422 49.946013 
L 333.948457 51.780295 
L 334.492251 55.135325 
L 335.199183 61.118429 
L 336.069254 70.613241 
L 337.31998 87.087297 
L 339.984572 122.834367 
L 340.909022 132.041994 
L 341.615954 137.089346 
L 342.159748 139.614666 
L 342.594783 140.725551 
L 342.92106 141.0121 
L 343.138578 140.940099 
L 343.410475 140.553989 
L 343.736751 139.659265 
L 344.171786 137.747941 
L 344.71558 134.250854 
L 345.422513 128.013359 
L 346.292583 118.114731 
L 347.54331 100.944476 
L 350.153522 64.386991 
L 351.077972 54.676574 
L 351.784904 49.312557 
L 352.328698 46.595672 
L 352.763734 45.368759 
L 353.09001 45.018527 
L 353.307528 45.059623 
L 353.579425 45.420392 
L 353.905701 46.304478 
L 354.340736 48.235391 
L 354.884531 51.810719 
L 355.537084 57.675444 
L 356.407154 67.77929 
L 357.603501 84.689706 
L 360.48561 126.513218 
L 361.355681 135.699782 
L 362.062613 141.02438 
L 362.606407 143.626964 
L 362.987063 144.625556 
L 363.25896 144.91242 
L 363.476478 144.883585 
L 363.693995 144.624739 
L 364.020272 143.80711 
L 364.455307 141.927522 
L 364.999101 138.355224 
L 365.651654 132.404723 
L 366.467345 122.759544 
L 367.609313 106.23838 
L 370.817698 58.062778 
L 371.687769 49.012513 
L 372.340322 44.285004 
L 372.829737 42.042107 
L 373.210393 41.112402 
L 373.48229 40.894979 
L 373.699807 40.991172 
L 373.971704 41.449079 
L 374.297981 42.490308 
L 374.733016 44.696938 
L 375.27681 48.715981 
L 375.983743 55.861601 
L 376.853813 67.170123 
L 378.10454 86.721382 
L 380.660372 127.294757 
L 381.584822 138.302075 
L 382.291755 144.366991 
L 382.835549 147.423992 
L 383.270584 148.789625 
L 383.59686 149.163882 
L 383.814378 149.100396 
L 384.086275 148.668525 
L 384.412552 147.636535 
L 384.847587 145.404797 
L 385.391381 141.295107 
L 386.043934 134.578349 
L 386.914005 123.042613 
L 388.110352 103.804051 
L 390.883702 58.103898 
L 391.808152 46.96128 
L 392.515084 40.947656 
L 393.058878 38.021082 
L 393.439534 36.908899 
L 393.711431 36.599313 
L 393.928949 36.645231 
L 394.146466 36.95245 
L 394.472743 37.900805 
L 394.907778 40.060962 
L 395.451572 44.146909 
L 396.104125 50.931836 
L 396.919816 61.900961 
L 398.061784 80.634424 
L 401.161411 133.347755 
L 402.031481 143.781995 
L 402.684034 149.303701 
L 403.227828 152.197266 
L 403.608484 153.244536 
L 403.880381 153.487185 
L 404.097899 153.375728 
L 404.369796 152.85455 
L 404.696072 151.673256 
L 405.131108 149.173691 
L 405.674902 144.626218 
L 406.381834 136.54986 
L 407.251905 123.784978 
L 408.502631 101.759588 
L 411.004084 57.112305 
L 411.928534 44.678714 
L 412.635467 37.81019 
L 413.179261 34.333971 
L 413.614296 32.767298 
L 413.940573 32.323291 
L 414.15809 32.379325 
L 414.375608 32.717383 
L 414.701884 33.750468 
L 415.13692 36.093785 
L 415.680714 40.516087 
L 416.333267 47.848044 
L 417.148958 59.68518 
L 418.290926 79.868247 
L 421.336173 135.616585 
L 422.206243 146.944883 
L 422.858796 152.977957 
L 423.40259 156.175495 
L 423.783246 157.364203 
L 424.055143 157.670568 
L 424.272661 157.587347 
L 424.490179 157.212162 
L 424.816455 156.105169 
L 425.25149 153.630648 
L 425.795284 148.995623 
L 426.447837 141.345776 
L 427.263529 129.035821 
L 428.405496 108.10908 
L 431.396364 51.454045 
L 432.266435 39.639324 
L 432.973367 32.890147 
L 433.517161 29.67787 
L 433.897817 28.516239 
L 434.169714 28.247841 
L 434.332852 28.312962 
L 434.55037 28.663721 
L 434.876646 29.75244 
L 435.311682 32.236995 
L 435.855476 36.939181 
L 436.508029 44.746381 
L 437.32372 57.359689 
L 438.465688 78.870295 
L 441.510935 138.225818 
L 442.381005 150.256672 
L 443.033558 156.648927 
L 443.577352 160.02335 
L 443.958008 161.266617 
L 444.229905 161.576527 
L 444.393044 161.529459 
L 444.610561 161.194689 
L 444.936838 160.112553 
L 445.317494 157.98334 
L 445.806908 153.919521 
L 446.459461 146.333758 
L 447.275152 133.81388 
L 448.362741 113.199451 
L 451.788644 45.292727 
L 452.604335 34.431657 
L 453.256888 28.449426 
L 453.746302 25.718166 
L 454.126958 24.686078 
L 454.344476 24.533479 
L 454.507614 24.62877 
L 454.725132 25.0353 
L 455.051408 26.240331 
L 455.486444 28.938678 
L 456.030238 33.996061 
L 456.682791 42.343366 
L 457.498482 55.770848 
L 458.64045 78.577982 
L 461.631317 140.142 
L 462.501388 152.914285 
L 463.153941 159.727165 
L 463.697735 163.349231 
L 464.078391 164.706162 
L 464.350288 165.066188 
L 464.513426 165.036608 
L 464.730944 164.710424 
L 465.002841 163.843766 
L 465.383497 161.784793 
L 465.872911 157.730897 
L 466.471085 150.756106 
L 467.232397 139.030703 
L 468.211226 120.275074 
L 470.168885 77.154414 
L 471.52837 49.673495 
L 472.45282 35.146146 
L 473.159753 27.238333 
L 473.703547 23.33132 
L 474.138582 21.660306 
L 474.410479 21.290528 
L 474.573617 21.319899 
L 474.791135 21.652369 
L 475.063032 22.537345 
L 475.443688 24.641127 
L 475.933103 28.78424 
L 476.531276 35.912904 
L 477.292588 47.896153 
L 478.271417 67.060696 
L 480.229076 111.101222 
L 481.588562 139.14811 
L 482.513012 153.962982 
L 483.219944 162.019471 
L 483.763738 165.993862 
L 484.198773 167.688042 
L 484.470671 168.058274 
L 484.633809 168.024012 
L 484.851326 167.679048 
L 485.123223 166.768984 
L 485.503879 164.612856 
L 485.993294 160.374318 
L 486.591468 153.089719 
L 487.352779 140.854874 
L 488.385988 120.122557 
L 492.301306 36.785508 
L 493.062618 26.831999 
L 493.660791 21.628961 
L 494.095827 19.41588 
L 494.422103 18.656145 
L 494.639621 18.58386 
L 494.857138 18.859855 
L 495.129035 19.692897 
L 495.509691 21.75921 
L 495.999106 25.914701 
L 496.597279 33.149339 
L 497.358591 45.403854 
L 498.337421 65.113044 
L 500.131941 106.8703 
L 501.600185 138.822002 
L 502.524635 154.592216 
L 503.231568 163.338262 
L 503.775362 167.79621 
L 504.210397 169.837971 
L 504.536674 170.451978 
L 504.699812 170.461004 
L 504.91733 170.163572 
L 505.189227 169.296345 
L 505.569883 167.168957 
L 506.059297 162.913869 
L 506.657471 155.529095 
L 507.418783 143.047343 
L 508.397612 123.008216 
L 510.246512 79.350656 
L 511.714756 47.243776 
L 512.639206 31.586393 
L 513.346139 23.030895 
L 513.889933 18.77448 
L 514.324968 16.923855 
L 514.596865 16.488232 
L 514.760003 16.49539 
L 514.977521 16.818434 
L 515.249418 17.723943 
L 515.630074 19.915991 
L 516.119489 24.271522 
L 516.717662 31.801706 
L 517.478974 44.495797 
L 518.457803 64.832498 
L 520.361083 110.326887 
L 521.774947 141.437135 
L 522.699397 157.195604 
L 523.40633 165.775257 
L 523.950124 170.018432 
L 524.385159 171.839082 
L 524.657056 172.24759 
L 524.820195 172.221196 
L 525.037712 171.869176 
L 525.309609 170.922339 
L 525.690265 168.663564 
L 526.17968 164.208741 
L 526.777853 156.540324 
L 527.539165 143.651787 
L 528.572374 121.809288 
L 532.487692 34.122887 
L 533.249003 23.673868 
L 533.847177 18.217888 
L 534.282212 15.900775 
L 534.608489 15.107978 
L 534.826006 15.035052 
L 534.989145 15.220097 
L 535.261042 15.983734 
L 535.587318 17.643931 
L 536.022354 21.090296 
L 536.566148 27.286521 
L 537.27308 38.192947 
L 538.143151 55.292418 
L 539.448256 85.863757 
L 541.732192 139.506036 
L 542.656642 156.151 
L 543.363574 165.462525 
L 543.961748 170.639211 
L 544.396783 172.730837 
L 544.72306 173.345157 
L 544.886198 173.342553 
L 545.103715 173.017583 
L 545.375612 172.096983 
L 545.756268 169.860726 
L 546.245683 165.410624 
L 546.843857 157.711978 
L 547.605168 144.731513 
L 548.583998 123.938894 
L 550.541657 76.129516 
L 551.901142 45.690801 
L 552.825592 29.614108 
L 553.532524 20.86584 
L 554.076318 16.541142 
L 554.511354 14.686213 
L 554.783251 14.270199 
L 554.946389 14.297163 
L 555.163907 14.655766 
L 555.435804 15.619992 
L 555.81646 17.919587 
L 556.305874 22.453393 
L 556.904048 30.254616 
L 557.66536 43.359747 
L 558.698569 65.554294 
L 562.559507 153.587121 
L 563.320819 164.423709 
L 563.918992 170.170868 
L 564.408407 172.899993 
L 564.734683 173.695464 
L 564.952201 173.764767 
L 565.169719 173.46463 
L 565.441616 172.572205 
L 565.822272 170.369934 
L 566.311686 165.954042 
L 566.90986 158.282711 
L 567.671172 145.314564 
L 568.650001 124.50346 
L 570.55328 77.890317 
L 571.967145 45.982919 
L 572.891595 29.79776 
L 573.598528 20.96364 
L 574.142322 16.572656 
L 574.577357 14.665189 
L 574.849254 14.216759 
L 575.012392 14.224477 
L 575.22991 14.557697 
L 575.501807 15.490705 
L 575.882463 17.747701 
L 576.371878 22.228967 
L 576.970051 29.970013 
L 577.731363 43.006207 
L 578.710192 63.863677 
L 580.722231 113.060302 
L 582.081716 143.239747 
L 582.951786 158.216386 
L 583.658719 166.935068 
L 584.202513 171.236351 
L 584.637548 173.073826 
L 584.909445 173.480082 
L 585.072584 173.447835 
L 585.290101 173.082975 
L 585.561998 172.11239 
L 585.942654 169.807069 
L 586.432069 165.272275 
L 587.030242 157.481109 
L 587.791554 144.408853 
L 588.824763 122.296652 
L 592.685701 34.815947 
L 593.447013 24.078631 
L 594.045187 18.39235 
L 594.534601 15.698539 
L 594.860878 14.918247 
L 595.078395 14.85503 
L 595.295913 15.157868 
L 595.56781 16.048724 
L 595.948466 18.239231 
L 596.437881 22.623071 
L 597.036054 30.228963 
L 597.797366 43.072954 
L 598.776195 63.663728 
L 600.679475 109.71894 
L 602.09334 141.198641 
L 603.01779 157.150003 
L 603.724722 165.849281 
L 604.268516 170.169558 
L 604.703551 172.043949 
L 604.975449 172.483055 
L 605.138587 172.474085 
L 605.356104 172.14436 
L 605.628001 171.224145 
L 606.008657 169.000962 
L 606.498072 164.590457 
L 607.096246 156.976662 
L 607.857557 144.162924 
L 608.890766 122.438344 
L 612.806084 35.273545 
L 613.567396 24.873456 
L 614.165569 19.423957 
L 614.600605 17.090194 
L 614.926881 16.271753 
L 615.144399 16.175067 
L 615.307537 16.338667 
L 615.579434 17.059467 
L 615.90571 18.65627 
L 616.340746 21.997354 
L 616.88454 28.028472 
L 617.591472 38.666339 
L 618.461543 55.360318 
L 619.766649 85.212784 
L 622.050584 137.58776 
L 622.975034 153.854665 
L 623.681966 162.976151 
L 624.28014 168.074115 
L 624.715175 170.161056 
L 625.041452 170.802603 
L 625.20459 170.823754 
L 625.422108 170.541111 
L 625.694005 169.69065 
L 626.074661 167.58477 
L 626.564075 163.35674 
L 627.162249 156.009275 
L 627.923561 143.590741 
L 628.90239 123.672143 
L 630.805669 79.102484 
L 632.219534 48.618343 
L 633.143984 33.152041 
L 633.850917 24.698507 
L 634.394711 20.482133 
L 634.829746 18.63391 
L 635.101643 18.184737 
L 635.264781 18.177827 
L 635.482299 18.474892 
L 635.754196 19.335906 
L 636.134852 21.442385 
L 636.624267 25.646703 
L 637.22244 32.928253 
L 637.983752 45.207192 
L 638.962581 64.866294 
L 640.92024 110.013713 
L 642.279725 138.73008 
L 643.204175 153.904546 
L 643.911108 162.180912 
L 644.454902 166.295181 
L 644.889937 168.085793 
L 645.161834 168.510507 
L 645.324973 168.507137 
L 645.54249 168.201576 
L 645.814387 167.338409 
L 646.195043 165.244833 
L 646.684458 161.084266 
L 647.282631 153.896541 
L 648.043943 141.796617 
L 649.077152 121.282321 
L 652.99247 38.958427 
L 653.753781 29.108305 
L 654.351955 23.926162 
L 654.78699 21.687664 
L 655.113267 20.883747 
L 655.330784 20.769259 
L 655.493923 20.90503 
L 655.76582 21.551941 
L 656.092096 23.015109 
L 656.527132 26.103467 
L 657.070926 31.704585 
L 657.777858 41.611741 
L 658.647929 57.187295 
L 659.953034 85.080882 
L 662.23697 134.129527 
L 663.16142 149.421816 
L 663.922732 158.57443 
L 664.520905 163.217697 
L 664.95594 165.08168 
L 665.227838 165.581255 
L 665.445355 165.609351 
L 665.662873 165.307276 
L 665.93477 164.468144 
L 666.315426 162.444769 
L 666.80484 158.435897 
L 667.403014 151.522969 
L 668.164326 139.901006 
L 669.197535 120.21905 
L 673.058473 42.158416 
L 673.819785 32.495354 
L 674.417958 27.325943 
L 674.907373 24.821805 
L 675.233649 24.046967 
L 675.451167 23.932937 
L 675.614305 24.059064 
L 675.886202 24.670894 
L 676.212479 26.060828 
L 676.647514 28.999787 
L 677.191308 34.334635 
L 677.898241 43.775232 
L 678.768311 58.621177 
L 680.073417 85.214043 
L 682.357352 132.005446 
L 683.336182 147.349132 
L 684.043114 155.381827 
L 684.641288 159.847953 
L 685.076323 161.658643 
L 685.4026 162.199122 
L 685.620117 162.167051 
L 685.837635 161.821467 
L 686.163911 160.719943 
L 686.544567 158.566559 
L 687.033982 154.475726 
L 687.686535 146.874651 
L 688.502226 134.392949 
L 689.589814 113.965493 
L 692.852579 50.036089 
L 693.72265 38.259698 
L 694.375203 32.095985 
L 694.918997 28.914379 
L 695.299653 27.797516 
L 695.57155 27.569779 
L 695.734688 27.661889 
L 695.952206 28.050817 
L 696.278482 29.199493 
L 696.713517 31.763955 
L 697.257311 36.555362 
L 697.909864 44.435975 
L 698.779935 57.994391 
L 699.976282 80.562425 
L 702.640873 131.954348 
L 703.565323 145.228471 
L 704.272256 152.532686 
L 704.81605 156.22252 
L 705.251085 157.888053 
L 705.577362 158.36717 
L 705.794879 158.317289 
L 706.012397 157.972523 
L 706.338673 156.907197 
L 706.773709 154.484471 
L 707.317503 149.915733 
L 707.970056 142.360506 
L 708.785747 130.211821 
L 709.927715 109.619651 
L 712.864203 55.107018 
L 713.734273 43.412615 
L 714.441206 36.634442 
L 714.985 33.305872 
L 715.420035 31.894041 
L 715.691932 31.58886 
L 715.90945 31.666027 
L 716.126968 32.028046 
L 716.453244 33.100263 
L 716.888279 35.496643 
L 717.432073 39.976132 
L 718.084626 47.34537 
L 718.954697 60.025848 
L 720.151044 81.137293 
L 722.598118 125.855663 
L 722.598118 125.855663 
" clip-path="url(#p21efdb6f10)" style="fill: none; stroke-dasharray: 6,0; stroke-dashoffset: 0; stroke: #1f77b4; stroke-width: 1.5"/>
   </g>
   <g id="line2d_2">
    <path d="M 28.009882 15.536231 
L 39.592697 16.449516 
L 51.39303 17.603727 
L 63.465259 19.008936 
L 75.918145 20.683816 
L 88.860445 22.650407 
L 102.564057 24.960646 
L 117.355257 27.683972 
L 134.049737 30.990007 
L 155.638363 35.508284 
L 194.410884 43.651844 
L 208.767049 46.408338 
L 220.621761 48.462661 
L 231.062608 50.050358 
L 240.633385 51.28328 
L 249.551609 52.210777 
L 258.089176 52.876319 
L 266.354847 53.297538 
L 274.45738 53.487294 
L 282.505533 53.452485 
L 290.608065 53.193488 
L 298.819356 52.708134 
L 307.302545 51.983346 
L 316.220768 50.995672 
L 325.682786 49.721747 
L 336.014875 48.102286 
L 347.597689 46.055835 
L 361.246922 43.409941 
L 379.355266 39.656551 
L 428.514255 29.356779 
L 444.828079 26.232983 
L 459.347382 23.675456 
L 472.833476 21.522614 
L 485.667018 19.697137 
L 498.011144 18.164204 
L 510.028994 16.895049 
L 521.774947 15.877514 
L 533.303383 15.100628 
L 544.72306 14.553211 
L 556.033977 14.232684 
L 567.344895 14.134937 
L 578.601433 14.259485 
L 589.912351 14.606697 
L 601.332028 15.18069 
L 612.860463 15.983839 
L 624.552037 17.021999 
L 636.461128 18.302943 
L 648.696496 19.843074 
L 661.366899 21.662961 
L 674.635476 23.794697 
L 688.828503 26.303292 
L 704.435394 29.292335 
L 722.598118 33.000943 
L 722.598118 33.000943 
" clip-path="url(#p21efdb6f10)" style="fill: none; stroke: #ff0000; stroke-width: 2; stroke-linecap: square"/>
   </g>
   <g id="line2d_3">
    <path d="M 28.009882 172.383769 
L 39.592697 171.470484 
L 51.39303 170.316273 
L 63.465259 168.911064 
L 75.918145 167.236184 
L 88.860445 165.269593 
L 102.564057 162.959354 
L 117.355257 160.236028 
L 134.049737 156.929993 
L 155.638363 152.411716 
L 194.410884 144.268156 
L 208.767049 141.511662 
L 220.621761 139.457339 
L 231.062608 137.869642 
L 240.633385 136.63672 
L 249.551609 135.709223 
L 258.089176 135.043681 
L 266.354847 134.622462 
L 274.45738 134.432706 
L 282.505533 134.467515 
L 290.608065 134.726512 
L 298.819356 135.211866 
L 307.302545 135.936654 
L 316.220768 136.924328 
L 325.682786 138.198253 
L 336.014875 139.817714 
L 347.597689 141.864165 
L 361.246922 144.510059 
L 379.355266 148.263449 
L 428.514255 158.563221 
L 444.828079 161.687017 
L 459.347382 164.244544 
L 472.833476 166.397386 
L 485.667018 168.222863 
L 498.011144 169.755796 
L 510.028994 171.024951 
L 521.774947 172.042486 
L 533.303383 172.819372 
L 544.72306 173.366789 
L 556.033977 173.687316 
L 567.344895 173.785063 
L 578.601433 173.660515 
L 589.912351 173.313303 
L 601.332028 172.73931 
L 612.860463 171.936161 
L 624.552037 170.898001 
L 636.461128 169.617057 
L 648.696496 168.076926 
L 661.366899 166.257039 
L 674.635476 164.125303 
L 688.828503 161.616708 
L 704.435394 158.627665 
L 722.598118 154.919057 
L 722.598118 154.919057 
" clip-path="url(#p21efdb6f10)" style="fill: none; stroke: #ff0000; stroke-width: 2; stroke-linecap: square"/>
   </g>
   <g id="patch_3">
    <path d="M 21.064 181.44 
L 21.064 6.48 
" style="fill: none; stroke: #000000; stroke-linejoin: miter; stroke-linecap: square"/>
   </g>
   <g id="patch_4">
    <path d="M 729.544 181.44 
L 729.544 6.48 
" style="fill: none; stroke: #000000; stroke-linejoin: miter; stroke-linecap: square"/>
   </g>
   <g id="patch_5">
    <path d="M 21.064 181.44 
L 729.544 181.44 
" style="fill: none; stroke: #000000; stroke-linejoin: miter; stroke-linecap: square"/>
   </g>
   <g id="patch_6">
    <path d="M 21.064 6.48 
L 729.544 6.48 
" style="fill: none; stroke: #000000; stroke-linejoin: miter; stroke-linecap: square"/>
   </g>
   <g id="matplotlib.axis_1">
    <g id="xtick_1">
     <g id="line2d_4">
      <defs>
       <path id="m548420337a" d="M 0 0 
L 0 -4 
" style="stroke: #000000; stroke-width: 0.5"/>
      </defs>
      <g>
       <use xlink:href="#m548420337a" x="28.009882" y="181.44" style="stroke: #000000; stroke-width: 0.5"/>
      </g>
     </g>
     <g id="line2d_5">
      <defs>
       <path id="m50f6498454" d="M 0 0 
L 0 4 
" style="stroke: #000000; stroke-width: 0.5"/>
      </defs>
      <g>
       <use xlink:href="#m50f6498454" x="28.009882" y="6.48" style="stroke: #000000; stroke-width: 0.5"/>
      </g>
     </g>
     <g id="text_1">
      <!-- 0 -->
      <g transform="translate(24.409882 195.27475) scale(0.144 -0.144)">
       <defs>
        <path id="STIXGeneral-Regular-30" d="M 3046 2112 
Q 3046 1683 2963 1302 
Q 2880 922 2717 602 
Q 2554 282 2266 96 
Q 1978 -90 1600 -90 
Q 1210 -90 915 108 
Q 621 307 461 640 
Q 301 973 227 1350 
Q 154 1728 154 2150 
Q 154 2746 301 3222 
Q 448 3699 790 4012 
Q 1133 4326 1626 4326 
Q 2253 4326 2649 3712 
Q 3046 3098 3046 2112 
z
M 2432 2080 
Q 2432 3091 2217 3625 
Q 2003 4160 1587 4160 
Q 1190 4160 979 3622 
Q 768 3085 768 2106 
Q 768 1120 979 598 
Q 1190 77 1600 77 
Q 2003 77 2217 598 
Q 2432 1120 2432 2080 
z
" transform="scale(0.015625)"/>
       </defs>
       <use xlink:href="#STIXGeneral-Regular-30"/>
      </g>
     </g>
    </g>
    <g id="xtick_2">
     <g id="line2d_6">
      <g>
       <use xlink:href="#m548420337a" x="223.747308" y="181.44" style="stroke: #000000; stroke-width: 0.5"/>
      </g>
     </g>
     <g id="line2d_7">
      <g>
       <use xlink:href="#m50f6498454" x="223.747308" y="6.48" style="stroke: #000000; stroke-width: 0.5"/>
      </g>
     </g>
     <g id="text_2">
      <!-- 5 -->
      <g transform="translate(220.147308 195.27475) scale(0.144 -0.144)">
       <defs>
        <path id="STIXGeneral-Regular-35" d="M 2803 4358 
L 2573 3814 
Q 2534 3731 2400 3731 
L 1158 3731 
L 902 3187 
Q 1606 3053 1920 2896 
Q 2234 2739 2502 2368 
Q 2726 2061 2726 1555 
Q 2726 1094 2576 780 
Q 2426 467 2099 224 
Q 1664 -90 1011 -90 
Q 646 -90 422 19 
Q 198 128 198 307 
Q 198 550 486 550 
Q 717 550 960 352 
Q 1210 147 1414 147 
Q 1747 147 2012 480 
Q 2278 813 2278 1229 
Q 2278 1843 1850 2189 
Q 1293 2637 486 2637 
Q 410 2637 410 2688 
L 416 2720 
L 1114 4237 
L 2438 4237 
Q 2547 4237 2608 4269 
Q 2669 4301 2746 4403 
L 2803 4358 
z
" transform="scale(0.015625)"/>
       </defs>
       <use xlink:href="#STIXGeneral-Regular-35"/>
      </g>
     </g>
    </g>
    <g id="xtick_3">
     <g id="line2d_8">
      <g>
       <use xlink:href="#m548420337a" x="419.484733" y="181.44" style="stroke: #000000; stroke-width: 0.5"/>
      </g>
     </g>
     <g id="line2d_9">
      <g>
       <use xlink:href="#m50f6498454" x="419.484733" y="6.48" style="stroke: #000000; stroke-width: 0.5"/>
      </g>
     </g>
     <g id="text_3">
      <!-- 10 -->
      <g transform="translate(412.284733 195.27475) scale(0.144 -0.144)">
       <defs>
        <path id="STIXGeneral-Regular-31" d="M 2522 0 
L 755 0 
L 755 96 
Q 1107 115 1235 227 
Q 1363 339 1363 608 
L 1363 3482 
Q 1363 3795 1171 3795 
Q 1082 3795 883 3718 
L 710 3654 
L 710 3744 
L 1856 4326 
L 1914 4307 
L 1914 486 
Q 1914 275 2042 185 
Q 2170 96 2522 96 
L 2522 0 
z
" transform="scale(0.015625)"/>
       </defs>
       <use xlink:href="#STIXGeneral-Regular-31"/>
       <use xlink:href="#STIXGeneral-Regular-30" transform="translate(49.999985 0)"/>
      </g>
     </g>
    </g>
    <g id="xtick_4">
     <g id="line2d_10">
      <g>
       <use xlink:href="#m548420337a" x="615.222159" y="181.44" style="stroke: #000000; stroke-width: 0.5"/>
      </g>
     </g>
     <g id="line2d_11">
      <g>
       <use xlink:href="#m50f6498454" x="615.222159" y="6.48" style="stroke: #000000; stroke-width: 0.5"/>
      </g>
     </g>
     <g id="text_4">
      <!-- 15 -->
      <g transform="translate(608.022159 195.27475) scale(0.144 -0.144)">
       <use xlink:href="#STIXGeneral-Regular-31"/>
       <use xlink:href="#STIXGeneral-Regular-35" transform="translate(49.999985 0)"/>
      </g>
     </g>
    </g>
    <g id="text_5">
     <!-- time [day] -->
     <g transform="translate(342.20025 214.3275) scale(0.16 -0.16)">
      <defs>
       <path id="STIXGeneral-Regular-74" d="M 1702 493 
L 1786 422 
Q 1478 -64 1011 -64 
Q 448 -64 448 749 
L 448 2675 
L 109 2675 
Q 83 2694 83 2720 
Q 83 2771 192 2842 
Q 435 2982 813 3526 
Q 826 3546 874 3606 
Q 922 3667 941 3706 
Q 986 3706 986 3622 
L 986 2880 
L 1632 2880 
L 1632 2675 
L 986 2675 
L 986 845 
Q 986 538 1062 403 
Q 1139 269 1318 269 
Q 1510 269 1702 493 
z
" transform="scale(0.015625)"/>
       <path id="STIXGeneral-Regular-69" d="M 1152 4045 
Q 1152 3904 1056 3811 
Q 960 3718 819 3718 
Q 685 3718 592 3811 
Q 499 3904 499 4045 
Q 499 4179 595 4275 
Q 691 4371 826 4371 
Q 966 4371 1059 4275 
Q 1152 4179 1152 4045 
z
M 1619 0 
L 102 0 
L 102 96 
Q 435 115 521 211 
Q 608 307 608 666 
L 608 2118 
Q 608 2342 563 2432 
Q 518 2522 397 2522 
Q 243 2522 128 2490 
L 128 2592 
L 1120 2944 
L 1146 2918 
L 1146 672 
Q 1146 314 1226 218 
Q 1306 122 1619 96 
L 1619 0 
z
" transform="scale(0.015625)"/>
       <path id="STIXGeneral-Regular-6d" d="M 4960 0 
L 3565 0 
L 3565 96 
Q 3834 122 3907 208 
Q 3981 294 3981 576 
L 3981 1894 
Q 3981 2278 3869 2444 
Q 3757 2611 3488 2611 
Q 3264 2611 3107 2521 
Q 2950 2432 2803 2221 
L 2803 608 
Q 2803 301 2896 201 
Q 2989 102 3264 96 
L 3264 0 
L 1830 0 
L 1830 96 
Q 2112 115 2189 188 
Q 2266 262 2266 550 
L 2266 1901 
Q 2266 2611 1850 2611 
Q 1670 2611 1468 2531 
Q 1267 2451 1171 2336 
Q 1088 2240 1088 2227 
L 1088 448 
Q 1088 243 1177 176 
Q 1267 109 1523 96 
L 1523 0 
L 102 0 
L 102 96 
Q 371 102 460 195 
Q 550 288 550 563 
L 550 2150 
Q 550 2387 499 2480 
Q 448 2573 326 2573 
Q 230 2573 122 2547 
L 122 2656 
Q 557 2778 1011 2944 
L 1062 2925 
L 1062 2451 
L 1075 2451 
Q 1363 2752 1584 2848 
Q 1805 2944 2054 2944 
Q 2560 2944 2733 2406 
Q 3232 2944 3776 2944 
Q 4518 2944 4518 1792 
L 4518 493 
Q 4518 282 4582 202 
Q 4646 122 4794 109 
L 4960 96 
L 4960 0 
z
" transform="scale(0.015625)"/>
       <path id="STIXGeneral-Regular-65" d="M 2611 1050 
L 2714 1005 
Q 2330 -64 1376 -64 
Q 813 -64 486 329 
Q 160 723 160 1389 
Q 160 2074 525 2509 
Q 890 2944 1485 2944 
Q 2061 2944 2374 2502 
Q 2560 2246 2592 1773 
L 621 1773 
Q 646 1370 700 1158 
Q 755 947 915 730 
Q 1184 378 1626 378 
Q 1939 378 2153 531 
Q 2368 685 2611 1050 
z
M 634 1978 
L 1939 1978 
Q 1882 2381 1750 2547 
Q 1619 2714 1312 2714 
Q 1043 2714 864 2525 
Q 685 2336 634 1978 
z
" transform="scale(0.015625)"/>
       <path id="STIXGeneral-Regular-20" transform="scale(0.015625)"/>
       <path id="STIXGeneral-Regular-5b" d="M 1914 -998 
L 563 -998 
L 563 4237 
L 1914 4237 
L 1914 4077 
L 1382 4077 
Q 1216 4077 1133 4006 
Q 1050 3936 1050 3770 
L 1050 -493 
Q 1050 -838 1382 -838 
L 1914 -838 
L 1914 -998 
z
" transform="scale(0.015625)"/>
       <path id="STIXGeneral-Regular-64" d="M 3142 269 
L 2202 -64 
L 2176 -45 
L 2176 365 
Q 1869 -64 1357 -64 
Q 826 -64 499 317 
Q 173 698 173 1312 
Q 173 1990 563 2467 
Q 954 2944 1504 2944 
Q 1850 2944 2176 2669 
L 2176 3667 
Q 2176 3866 2118 3930 
Q 2061 3994 1882 3994 
Q 1792 3994 1741 3987 
L 1741 4090 
Q 2323 4243 2682 4371 
L 2714 4358 
L 2714 730 
Q 2714 506 2768 435 
Q 2822 365 2995 365 
Q 3034 365 3142 371 
L 3142 269 
z
M 2176 653 
L 2176 2125 
Q 2176 2381 1981 2573 
Q 1786 2765 1523 2765 
Q 1158 2765 940 2438 
Q 723 2112 723 1568 
Q 723 979 963 624 
Q 1203 269 1606 269 
Q 1907 269 2080 474 
Q 2176 582 2176 653 
z
" transform="scale(0.015625)"/>
       <path id="STIXGeneral-Regular-61" d="M 2829 422 
L 2829 243 
Q 2586 -64 2253 -64 
Q 1888 -64 1843 403 
L 1837 403 
Q 1427 -64 909 -64 
Q 608 -64 422 112 
Q 237 288 237 602 
Q 237 1050 685 1350 
Q 992 1555 1837 1869 
L 1837 2214 
Q 1837 2502 1699 2646 
Q 1562 2790 1338 2790 
Q 1146 2790 1018 2697 
Q 890 2605 890 2477 
Q 890 2419 909 2348 
Q 928 2278 928 2208 
Q 928 2112 841 2029 
Q 755 1946 634 1946 
Q 525 1946 441 2029 
Q 358 2112 358 2240 
Q 358 2547 685 2752 
Q 986 2944 1421 2944 
Q 1939 2944 2176 2656 
Q 2291 2522 2323 2384 
Q 2355 2246 2355 1946 
L 2355 723 
Q 2355 301 2554 301 
Q 2682 301 2829 422 
z
M 1837 813 
L 1837 1715 
Q 1248 1510 1018 1293 
Q 800 1094 800 800 
Q 800 557 921 432 
Q 1043 307 1242 307 
Q 1453 307 1613 410 
Q 1747 506 1792 589 
Q 1837 672 1837 813 
z
" transform="scale(0.015625)"/>
       <path id="STIXGeneral-Regular-79" d="M 3040 2880 
L 3040 2784 
Q 2925 2771 2854 2700 
Q 2784 2630 2720 2458 
L 1760 -160 
Q 1510 -838 1257 -1116 
Q 1005 -1395 640 -1395 
Q 435 -1395 313 -1289 
Q 192 -1184 192 -1024 
Q 192 -902 272 -816 
Q 352 -730 467 -730 
Q 653 -730 800 -813 
Q 883 -858 966 -858 
Q 1101 -858 1286 -576 
Q 1376 -448 1459 -211 
Q 1542 26 1542 115 
Q 1542 198 1274 762 
L 429 2566 
Q 346 2752 90 2790 
L 90 2880 
L 1402 2880 
L 1402 2784 
Q 1197 2778 1117 2739 
Q 1037 2701 1037 2611 
Q 1037 2541 1120 2349 
L 1837 749 
L 2458 2515 
Q 2483 2573 2483 2630 
Q 2483 2784 2189 2784 
L 2189 2880 
L 3040 2880 
z
" transform="scale(0.015625)"/>
       <path id="STIXGeneral-Regular-5d" d="M 1568 -998 
L 218 -998 
L 218 -838 
L 781 -838 
Q 947 -838 1014 -768 
Q 1082 -698 1082 -544 
L 1082 3731 
Q 1082 4077 755 4077 
L 218 4077 
L 218 4237 
L 1568 4237 
L 1568 -998 
z
" transform="scale(0.015625)"/>
      </defs>
      <use xlink:href="#STIXGeneral-Regular-74"/>
      <use xlink:href="#STIXGeneral-Regular-69" transform="translate(27.799988 0)"/>
      <use xlink:href="#STIXGeneral-Regular-6d" transform="translate(55.599976 0)"/>
      <use xlink:href="#STIXGeneral-Regular-65" transform="translate(133.399963 0)"/>
      <use xlink:href="#STIXGeneral-Regular-20" transform="translate(177.799957 0)"/>
      <use xlink:href="#STIXGeneral-Regular-5b" transform="translate(202.799942 0)"/>
      <use xlink:href="#STIXGeneral-Regular-64" transform="translate(236.09993 0)"/>
      <use xlink:href="#STIXGeneral-Regular-61" transform="translate(286.099915 0)"/>
      <use xlink:href="#STIXGeneral-Regular-79" transform="translate(330.499908 0)"/>
      <use xlink:href="#STIXGeneral-Regular-5d" transform="translate(380.499893 0)"/>
     </g>
    </g>
   </g>
   <g id="matplotlib.axis_2">
    <g id="ytick_1">
     <g id="line2d_12">
      <defs>
       <path id="mb72f15d8da" d="M 0 0 
L 4 0 
" style="stroke: #000000; stroke-width: 0.5"/>
      </defs>
      <g>
       <use xlink:href="#mb72f15d8da" x="21.064" y="181.44" style="stroke: #000000; stroke-width: 0.5"/>
      </g>
     </g>
     <g id="line2d_13">
      <defs>
       <path id="m908a3d5ec2" d="M 0 0 
L -4 0 
" style="stroke: #000000; stroke-width: 0.5"/>
      </defs>
      <g>
       <use xlink:href="#m908a3d5ec2" x="729.544" y="181.44" style="stroke: #000000; stroke-width: 0.5"/>
      </g>
     </g>
     <g id="text_6">
      <!-- −2 -->
      <g transform="translate(0 184.79475) scale(0.144 -0.144)">
       <defs>
        <path id="STIXGeneral-Regular-2212" d="M 3974 1408 
L 410 1408 
L 410 1830 
L 3974 1830 
L 3974 1408 
z
" transform="scale(0.015625)"/>
        <path id="STIXGeneral-Regular-32" d="M 3034 877 
L 2688 0 
L 186 0 
L 186 77 
L 1325 1286 
Q 1773 1754 1965 2144 
Q 2157 2534 2157 2950 
Q 2157 3379 1920 3616 
Q 1683 3853 1267 3853 
Q 922 3853 720 3673 
Q 518 3494 326 3021 
L 192 3053 
Q 301 3648 630 3987 
Q 960 4326 1523 4326 
Q 2054 4326 2380 4006 
Q 2707 3686 2707 3200 
Q 2707 2477 1888 1613 
L 832 486 
L 2330 486 
Q 2541 486 2665 569 
Q 2790 653 2944 915 
L 3034 877 
z
" transform="scale(0.015625)"/>
       </defs>
       <use xlink:href="#STIXGeneral-Regular-2212"/>
       <use xlink:href="#STIXGeneral-Regular-32" transform="translate(68.499985 0)"/>
      </g>
     </g>
    </g>
    <g id="ytick_2">
     <g id="line2d_14">
      <g>
       <use xlink:href="#mb72f15d8da" x="21.064" y="159.57" style="stroke: #000000; stroke-width: 0.5"/>
      </g>
     </g>
     <g id="line2d_15">
      <g>
       <use xlink:href="#m908a3d5ec2" x="729.544" y="159.57" style="stroke: #000000; stroke-width: 0.5"/>
      </g>
     </g>
     <g id="text_7">
      <!-- 0 -->
      <g transform="translate(9.864 162.92475) scale(0.144 -0.144)">
       <use xlink:href="#STIXGeneral-Regular-30"/>
      </g>
     </g>
    </g>
    <g id="ytick_3">
     <g id="line2d_16">
      <g>
       <use xlink:href="#mb72f15d8da" x="21.064" y="137.7" style="stroke: #000000; stroke-width: 0.5"/>
      </g>
     </g>
     <g id="line2d_17">
      <g>
       <use xlink:href="#m908a3d5ec2" x="729.544" y="137.7" style="stroke: #000000; stroke-width: 0.5"/>
      </g>
     </g>
     <g id="text_8">
      <!-- 2 -->
      <g transform="translate(9.864 141.05475) scale(0.144 -0.144)">
       <use xlink:href="#STIXGeneral-Regular-32"/>
      </g>
     </g>
    </g>
    <g id="ytick_4">
     <g id="line2d_18">
      <g>
       <use xlink:href="#mb72f15d8da" x="21.064" y="115.83" style="stroke: #000000; stroke-width: 0.5"/>
      </g>
     </g>
     <g id="line2d_19">
      <g>
       <use xlink:href="#m908a3d5ec2" x="729.544" y="115.83" style="stroke: #000000; stroke-width: 0.5"/>
      </g>
     </g>
     <g id="text_9">
      <!-- 4 -->
      <g transform="translate(9.864 119.18475) scale(0.144 -0.144)">
       <defs>
        <path id="STIXGeneral-Regular-34" d="M 3027 1069 
L 2368 1069 
L 2368 0 
L 1869 0 
L 1869 1069 
L 77 1069 
L 77 1478 
L 2086 4326 
L 2368 4326 
L 2368 1478 
L 3027 1478 
L 3027 1069 
z
M 1869 1478 
L 1869 3674 
L 333 1478 
L 1869 1478 
z
" transform="scale(0.015625)"/>
       </defs>
       <use xlink:href="#STIXGeneral-Regular-34"/>
      </g>
     </g>
    </g>
    <g id="ytick_5">
     <g id="line2d_20">
      <g>
       <use xlink:href="#mb72f15d8da" x="21.064" y="93.96" style="stroke: #000000; stroke-width: 0.5"/>
      </g>
     </g>
     <g id="line2d_21">
      <g>
       <use xlink:href="#m908a3d5ec2" x="729.544" y="93.96" style="stroke: #000000; stroke-width: 0.5"/>
      </g>
     </g>
     <g id="text_10">
      <!-- 6 -->
      <g transform="translate(9.864 97.31475) scale(0.144 -0.144)">
       <defs>
        <path id="STIXGeneral-Regular-36" d="M 2854 4378 
L 2867 4275 
Q 2112 4154 1606 3664 
Q 1101 3174 973 2451 
Q 1344 2739 1786 2739 
Q 2349 2739 2672 2380 
Q 2995 2022 2995 1402 
Q 2995 774 2669 378 
Q 2291 -90 1651 -90 
Q 870 -90 518 557 
Q 218 1107 218 1786 
Q 218 2835 915 3552 
Q 1312 3962 1731 4131 
Q 2150 4301 2854 4378 
z
M 2419 1203 
Q 2419 2445 1555 2445 
Q 1235 2445 1024 2275 
Q 813 2106 813 1702 
Q 813 954 1046 522 
Q 1280 90 1722 90 
Q 2061 90 2240 394 
Q 2419 698 2419 1203 
z
" transform="scale(0.015625)"/>
       </defs>
       <use xlink:href="#STIXGeneral-Regular-36"/>
      </g>
     </g>
    </g>
    <g id="ytick_6">
     <g id="line2d_22">
      <g>
       <use xlink:href="#mb72f15d8da" x="21.064" y="72.09" style="stroke: #000000; stroke-width: 0.5"/>
      </g>
     </g>
     <g id="line2d_23">
      <g>
       <use xlink:href="#m908a3d5ec2" x="729.544" y="72.09" style="stroke: #000000; stroke-width: 0.5"/>
      </g>
     </g>
     <g id="text_11">
      <!-- 8 -->
      <g transform="translate(9.864 75.44475) scale(0.144 -0.144)">
       <defs>
        <path id="STIXGeneral-Regular-38" d="M 2848 992 
Q 2848 499 2505 204 
Q 2163 -90 1587 -90 
Q 1050 -90 704 204 
Q 358 499 358 954 
Q 358 1293 524 1533 
Q 691 1773 1190 2125 
Q 710 2522 553 2765 
Q 397 3008 397 3328 
Q 397 3782 745 4054 
Q 1094 4326 1638 4326 
Q 2106 4326 2410 4060 
Q 2714 3795 2714 3411 
Q 2714 3059 2531 2848 
Q 2349 2637 1856 2374 
Q 2432 1990 2640 1689 
Q 2848 1389 2848 992 
z
M 2272 3411 
Q 2272 3744 2086 3945 
Q 1901 4147 1574 4147 
Q 1248 4147 1059 3977 
Q 870 3808 870 3513 
Q 870 3219 1059 2979 
Q 1248 2739 1670 2490 
Q 1997 2682 2134 2896 
Q 2272 3110 2272 3411 
z
M 1734 1741 
L 1357 1997 
Q 1075 1766 960 1545 
Q 845 1325 845 1011 
Q 845 576 1065 333 
Q 1286 90 1658 90 
Q 1971 90 2166 285 
Q 2362 480 2362 794 
Q 2362 1082 2214 1299 
Q 2067 1517 1734 1741 
z
" transform="scale(0.015625)"/>
       </defs>
       <use xlink:href="#STIXGeneral-Regular-38"/>
      </g>
     </g>
    </g>
    <g id="ytick_7">
     <g id="line2d_24">
      <g>
       <use xlink:href="#mb72f15d8da" x="21.064" y="50.22" style="stroke: #000000; stroke-width: 0.5"/>
      </g>
     </g>
     <g id="line2d_25">
      <g>
       <use xlink:href="#m908a3d5ec2" x="729.544" y="50.22" style="stroke: #000000; stroke-width: 0.5"/>
      </g>
     </g>
     <g id="text_12">
      <!-- 10 -->
      <g transform="translate(2.664 53.57475) scale(0.144 -0.144)">
       <use xlink:href="#STIXGeneral-Regular-31"/>
       <use xlink:href="#STIXGeneral-Regular-30" transform="translate(49.999985 0)"/>
      </g>
     </g>
    </g>
    <g id="ytick_8">
     <g id="line2d_26">
      <g>
       <use xlink:href="#mb72f15d8da" x="21.064" y="28.35" style="stroke: #000000; stroke-width: 0.5"/>
      </g>
     </g>
     <g id="line2d_27">
      <g>
       <use xlink:href="#m908a3d5ec2" x="729.544" y="28.35" style="stroke: #000000; stroke-width: 0.5"/>
      </g>
     </g>
     <g id="text_13">
      <!-- 12 -->
      <g transform="translate(2.664 31.70475) scale(0.144 -0.144)">
       <use xlink:href="#STIXGeneral-Regular-31"/>
       <use xlink:href="#STIXGeneral-Regular-32" transform="translate(49.999985 0)"/>
      </g>
     </g>
    </g>
    <g id="ytick_9">
     <g id="line2d_28">
      <g>
       <use xlink:href="#mb72f15d8da" x="21.064" y="6.48" style="stroke: #000000; stroke-width: 0.5"/>
      </g>
     </g>
     <g id="line2d_29">
      <g>
       <use xlink:href="#m908a3d5ec2" x="729.544" y="6.48" style="stroke: #000000; stroke-width: 0.5"/>
      </g>
     </g>
     <g id="text_14">
      <!-- 14 -->
      <g transform="translate(2.664 9.83475) scale(0.144 -0.144)">
       <use xlink:href="#STIXGeneral-Regular-31"/>
       <use xlink:href="#STIXGeneral-Regular-34" transform="translate(49.999985 0)"/>
      </g>
     </g>
    </g>
   </g>
   <g id="legend_1">
    <g id="patch_7">
     <path d="M 28.264 174.24 
L 168.4795 174.24 
L 168.4795 108.70425 
L 28.264 108.70425 
z
" style="fill: #ffffff; stroke: #000000; stroke-linejoin: miter"/>
    </g>
    <g id="line2d_30">
     <path d="M 38.344 119.50425 
L 58.504 119.50425 
" style="fill: none; stroke-dasharray: 6,0; stroke-dashoffset: 0; stroke: #1f77b4; stroke-width: 1.5"/>
    </g>
    <g id="text_15">
     <!-- sea level -->
     <g transform="translate(74.344 124.54425) scale(0.144 -0.144)">
      <defs>
       <path id="STIXGeneral-Regular-73" d="M 998 1926 
L 1664 1523 
Q 1984 1331 2105 1164 
Q 2227 998 2227 736 
Q 2227 416 1961 176 
Q 1696 -64 1331 -64 
Q 1030 -64 864 -6 
Q 691 51 570 51 
Q 461 51 416 -26 
L 333 -26 
L 333 979 
L 435 979 
Q 538 512 730 294 
Q 922 77 1248 77 
Q 1485 77 1632 211 
Q 1779 346 1779 550 
Q 1779 845 1440 1030 
L 1094 1222 
Q 326 1651 326 2150 
Q 326 2522 566 2730 
Q 806 2938 1210 2938 
Q 1491 2938 1638 2867 
Q 1754 2816 1818 2816 
Q 1862 2816 1920 2880 
L 1990 2880 
L 2022 2010 
L 1926 2010 
Q 1818 2445 1654 2621 
Q 1491 2797 1203 2797 
Q 986 2797 854 2688 
Q 723 2579 723 2362 
Q 723 2253 796 2128 
Q 870 2003 998 1926 
z
" transform="scale(0.015625)"/>
       <path id="STIXGeneral-Regular-6c" d="M 1645 0 
L 134 0 
L 134 96 
Q 435 122 531 221 
Q 627 320 627 589 
L 627 3590 
Q 627 3821 569 3910 
Q 512 4000 358 4000 
Q 224 4000 122 3987 
L 122 4090 
Q 730 4237 1133 4371 
L 1165 4346 
L 1165 557 
Q 1165 288 1254 201 
Q 1344 115 1645 96 
L 1645 0 
z
" transform="scale(0.015625)"/>
       <path id="STIXGeneral-Regular-76" d="M 3053 2880 
L 3053 2784 
Q 2906 2771 2835 2688 
Q 2765 2605 2637 2285 
L 1818 230 
Q 1690 -90 1638 -90 
Q 1587 -90 1523 77 
Q 1510 96 1497 141 
Q 1485 186 1472 211 
L 704 2048 
Q 499 2534 403 2652 
Q 307 2771 122 2784 
L 122 2880 
L 1376 2880 
L 1376 2784 
Q 1210 2771 1146 2732 
Q 1082 2694 1082 2611 
Q 1082 2509 1139 2368 
L 1792 730 
L 2426 2387 
Q 2464 2483 2464 2579 
Q 2464 2758 2163 2784 
L 2163 2880 
L 3053 2880 
z
" transform="scale(0.015625)"/>
      </defs>
      <use xlink:href="#STIXGeneral-Regular-73"/>
      <use xlink:href="#STIXGeneral-Regular-65" transform="translate(38.899994 0)"/>
      <use xlink:href="#STIXGeneral-Regular-61" transform="translate(83.299988 0)"/>
      <use xlink:href="#STIXGeneral-Regular-20" transform="translate(127.699982 0)"/>
      <use xlink:href="#STIXGeneral-Regular-6c" transform="translate(152.699966 0)"/>
      <use xlink:href="#STIXGeneral-Regular-65" transform="translate(180.499954 0)"/>
      <use xlink:href="#STIXGeneral-Regular-76" transform="translate(224.899948 0)"/>
      <use xlink:href="#STIXGeneral-Regular-65" transform="translate(274.899933 0)"/>
      <use xlink:href="#STIXGeneral-Regular-6c" transform="translate(319.299927 0)"/>
     </g>
    </g>
    <g id="line2d_31">
     <path d="M 38.344 139.9095 
L 58.504 139.9095 
" style="fill: none; stroke: #ff0000; stroke-width: 2; stroke-linecap: square"/>
    </g>
    <g id="text_16">
     <!-- upper envelope -->
     <g transform="translate(74.344 144.9495) scale(0.144 -0.144)">
      <defs>
       <path id="STIXGeneral-Regular-75" d="M 3072 320 
L 3072 230 
Q 2573 96 2195 -58 
L 2163 -38 
L 2163 486 
L 2150 486 
Q 1747 -64 1235 -64 
Q 870 -64 662 160 
Q 454 384 454 755 
L 454 2362 
Q 454 2598 371 2688 
Q 288 2778 58 2790 
L 58 2880 
L 992 2880 
L 992 813 
Q 992 595 1123 451 
Q 1254 307 1446 307 
Q 1760 307 1984 506 
Q 2067 582 2099 649 
Q 2131 717 2131 877 
L 2131 2355 
Q 2131 2605 2041 2678 
Q 1952 2752 1658 2771 
L 1658 2880 
L 2669 2880 
L 2669 685 
Q 2669 461 2742 390 
Q 2816 320 3034 320 
L 3072 320 
z
" transform="scale(0.015625)"/>
       <path id="STIXGeneral-Regular-70" d="M 1018 2931 
L 1018 2438 
Q 1421 2944 1939 2944 
Q 2406 2944 2707 2560 
Q 3008 2176 3008 1581 
Q 3008 883 2621 409 
Q 2234 -64 1664 -64 
Q 1466 -64 1328 -6 
Q 1190 51 1018 211 
L 1018 -794 
Q 1018 -1094 1120 -1180 
Q 1222 -1267 1581 -1274 
L 1581 -1389 
L 32 -1389 
L 32 -1280 
Q 314 -1254 397 -1171 
Q 480 -1088 480 -838 
L 480 2157 
Q 480 2381 429 2451 
Q 378 2522 218 2522 
Q 115 2522 58 2515 
L 58 2618 
Q 506 2752 979 2944 
L 1018 2931 
z
M 1018 2138 
L 1018 563 
Q 1018 422 1238 281 
Q 1459 141 1683 141 
Q 2029 141 2243 467 
Q 2458 794 2458 1325 
Q 2458 1888 2243 2224 
Q 2029 2560 1670 2560 
Q 1446 2560 1232 2419 
Q 1018 2278 1018 2138 
z
" transform="scale(0.015625)"/>
       <path id="STIXGeneral-Regular-72" d="M 1024 2931 
L 1024 2342 
Q 1267 2688 1430 2816 
Q 1594 2944 1792 2944 
Q 1958 2944 2051 2854 
Q 2144 2765 2144 2605 
Q 2144 2470 2077 2393 
Q 2010 2317 1894 2317 
Q 1773 2317 1638 2445 
Q 1536 2541 1472 2541 
Q 1338 2541 1181 2355 
Q 1024 2170 1024 2016 
L 1024 576 
Q 1024 301 1133 205 
Q 1242 109 1568 96 
L 1568 0 
L 32 0 
L 32 96 
Q 339 154 412 224 
Q 486 294 486 538 
L 486 2138 
Q 486 2349 438 2435 
Q 390 2522 269 2522 
Q 166 2522 45 2496 
L 45 2598 
Q 448 2726 992 2944 
L 1024 2931 
z
" transform="scale(0.015625)"/>
       <path id="STIXGeneral-Regular-6e" d="M 3104 0 
L 1773 0 
L 1779 96 
Q 2016 115 2096 233 
Q 2176 352 2176 672 
L 2176 1946 
Q 2176 2592 1709 2592 
Q 1549 2592 1408 2515 
Q 1267 2438 1050 2227 
L 1050 461 
Q 1050 269 1136 192 
Q 1222 115 1466 96 
L 1466 0 
L 115 0 
L 115 96 
Q 358 115 435 214 
Q 512 314 512 602 
L 512 2157 
Q 512 2394 467 2483 
Q 422 2573 288 2573 
Q 160 2573 102 2547 
L 102 2656 
Q 550 2784 979 2944 
L 1030 2925 
L 1030 2426 
L 1037 2426 
Q 1491 2944 1958 2944 
Q 2323 2944 2518 2688 
Q 2714 2432 2714 1958 
L 2714 544 
Q 2714 288 2790 205 
Q 2867 122 3104 96 
L 3104 0 
z
" transform="scale(0.015625)"/>
       <path id="STIXGeneral-Regular-6f" d="M 3008 1478 
Q 3008 806 2608 371 
Q 2208 -64 1568 -64 
Q 979 -64 582 368 
Q 186 800 186 1459 
Q 186 2125 582 2534 
Q 979 2944 1626 2944 
Q 2221 2944 2614 2537 
Q 3008 2131 3008 1478 
z
M 2432 1306 
Q 2432 2035 2112 2445 
Q 1856 2765 1504 2765 
Q 1171 2765 966 2493 
Q 762 2221 762 1747 
Q 762 928 1101 435 
Q 1318 115 1677 115 
Q 2029 115 2230 432 
Q 2432 749 2432 1306 
z
" transform="scale(0.015625)"/>
      </defs>
      <use xlink:href="#STIXGeneral-Regular-75"/>
      <use xlink:href="#STIXGeneral-Regular-70" transform="translate(49.999985 0)"/>
      <use xlink:href="#STIXGeneral-Regular-70" transform="translate(99.999969 0)"/>
      <use xlink:href="#STIXGeneral-Regular-65" transform="translate(149.999954 0)"/>
      <use xlink:href="#STIXGeneral-Regular-72" transform="translate(194.399948 0)"/>
      <use xlink:href="#STIXGeneral-Regular-20" transform="translate(227.699936 0)"/>
      <use xlink:href="#STIXGeneral-Regular-65" transform="translate(252.699921 0)"/>
      <use xlink:href="#STIXGeneral-Regular-6e" transform="translate(297.099915 0)"/>
      <use xlink:href="#STIXGeneral-Regular-76" transform="translate(347.099899 0)"/>
      <use xlink:href="#STIXGeneral-Regular-65" transform="translate(397.099884 0)"/>
      <use xlink:href="#STIXGeneral-Regular-6c" transform="translate(441.499878 0)"/>
      <use xlink:href="#STIXGeneral-Regular-6f" transform="translate(469.299866 0)"/>
      <use xlink:href="#STIXGeneral-Regular-70" transform="translate(519.29985 0)"/>
      <use xlink:href="#STIXGeneral-Regular-65" transform="translate(569.299835 0)"/>
     </g>
    </g>
    <g id="line2d_32">
     <path d="M 38.344 160.31475 
L 58.504 160.31475 
" style="fill: none; stroke: #ff0000; stroke-width: 2; stroke-linecap: square"/>
    </g>
    <g id="text_17">
     <!-- lower envelope -->
     <g transform="translate(74.344 165.35475) scale(0.144 -0.144)">
      <defs>
       <path id="STIXGeneral-Regular-77" d="M 4442 2880 
L 4442 2784 
Q 4346 2752 4301 2691 
Q 4256 2630 4179 2438 
L 3296 224 
Q 3168 -90 3117 -90 
Q 3085 -90 3062 -48 
Q 3040 -6 2963 186 
L 2381 1696 
L 1664 160 
Q 1549 -90 1504 -90 
Q 1446 -90 1338 192 
L 474 2381 
Q 378 2630 314 2700 
Q 250 2771 134 2784 
L 134 2880 
L 1286 2880 
L 1286 2784 
Q 1120 2765 1056 2720 
Q 992 2675 992 2573 
Q 992 2477 1030 2381 
L 1664 710 
L 2246 1984 
L 2118 2342 
Q 2029 2598 1942 2681 
Q 1856 2765 1677 2784 
L 1677 2880 
L 2976 2880 
L 2976 2784 
Q 2752 2752 2678 2707 
Q 2605 2662 2605 2560 
Q 2605 2458 2714 2176 
L 3251 742 
L 3827 2163 
Q 3936 2432 3936 2592 
Q 3936 2669 3875 2710 
Q 3814 2752 3654 2784 
L 3654 2880 
L 4442 2880 
z
" transform="scale(0.015625)"/>
      </defs>
      <use xlink:href="#STIXGeneral-Regular-6c"/>
      <use xlink:href="#STIXGeneral-Regular-6f" transform="translate(27.799988 0)"/>
      <use xlink:href="#STIXGeneral-Regular-77" transform="translate(77.799973 0)"/>
      <use xlink:href="#STIXGeneral-Regular-65" transform="translate(149.999954 0)"/>
      <use xlink:href="#STIXGeneral-Regular-72" transform="translate(194.399948 0)"/>
      <use xlink:href="#STIXGeneral-Regular-20" transform="translate(227.699936 0)"/>
      <use xlink:href="#STIXGeneral-Regular-65" transform="translate(252.699921 0)"/>
      <use xlink:href="#STIXGeneral-Regular-6e" transform="translate(297.099915 0)"/>
      <use xlink:href="#STIXGeneral-Regular-76" transform="translate(347.099899 0)"/>
      <use xlink:href="#STIXGeneral-Regular-65" transform="translate(397.099884 0)"/>
      <use xlink:href="#STIXGeneral-Regular-6c" transform="translate(441.499878 0)"/>
      <use xlink:href="#STIXGeneral-Regular-6f" transform="translate(469.299866 0)"/>
      <use xlink:href="#STIXGeneral-Regular-70" transform="translate(519.29985 0)"/>
      <use xlink:href="#STIXGeneral-Regular-65" transform="translate(569.299835 0)"/>
     </g>
    </g>
   </g>
  </g>
 </g>
 <defs>
  <clipPath id="p21efdb6f10">
   <rect x="21.064" y="6.48" width="708.48" height="174.96"/>
  </clipPath>
 </defs>
</svg>
