<?xml version="1.0" encoding="utf-8" standalone="no"?>
<!DOCTYPE svg PUBLIC "-//W3C//DTD SVG 1.1//EN"
  "http://www.w3.org/Graphics/SVG/1.1/DTD/svg11.dtd">
<svg xmlns:xlink="http://www.w3.org/1999/xlink" width="730.48pt" height="285.84pt" viewBox="0 0 730.48 285.84" xmlns="http://www.w3.org/2000/svg" version="1.1">
 <metadata>
  <rdf:RDF xmlns:dc="http://purl.org/dc/elements/1.1/" xmlns:cc="http://creativecommons.org/ns#" xmlns:rdf="http://www.w3.org/1999/02/22-rdf-syntax-ns#">
   <cc:Work>
    <dc:type rdf:resource="http://purl.org/dc/dcmitype/StillImage"/>
    <dc:date>2026-03-09T16:57:09.504853</dc:date>
    <dc:format>image/svg+xml</dc:format>
    <dc:creator>
     <cc:Agent>
      <dc:title>Matplotlib v3.10.8, https://matplotlib.org/</dc:title>
     </cc:Agent>
    </dc:creator>
   </cc:Work>
  </rdf:RDF>
 </metadata>
 <defs>
  <style type="text/css">*{stroke-linejoin: round; stroke-linecap: butt}</style>
 </defs>
 <g id="figure_1">
  <g id="patch_1">
   <path d="M 0 285.84 
L 730.48 285.84 
L 730.48 0 
L 0 0 
z
" style="fill: #ffffff"/>
  </g>
  <g id="axes_1">
   <g id="patch_2">
    <path d="M 22 121.102642 
L 730.48 121.102642 
L 730.48 6.48 
L 22 6.48 
z
" style="fill: #ffffff"/>
   </g>
   <g id="line2d_1">
    <path d="M 21.959116 121.102642 
L 30.406051 121.102642 
L 30.580215 79.640951 
L 31.451033 79.299892 
L 32.321851 78.719108 
L 33.192669 77.86493 
L 34.063487 76.689358 
L 34.934306 75.122988 
L 35.805124 73.062992 
L 36.58886 70.658111 
L 37.459678 67.189602 
L 38.243414 63.115806 
L 39.027151 57.725895 
L 39.723805 51.260243 
L 40.333378 43.562477 
L 40.94295 32.693365 
L 41.37836 21.6275 
L 41.552523 121.102642 
L 68.634966 121.102642 
L 68.722048 79.661843 
L 68.80913 79.669454 
L 69.679948 79.629526 
L 70.550766 79.367267 
L 71.421584 78.860558 
L 72.292402 78.077218 
L 73.16322 76.970638 
L 74.034038 75.472737 
L 74.904856 73.481936 
L 75.688593 71.140841 
L 76.472329 68.117231 
L 77.256065 64.206087 
L 78.039802 59.017752 
L 78.736456 52.781242 
L 79.346029 45.343729 
L 79.955601 34.822009 
L 80.478092 21.447512 
L 80.652256 121.102642 
L 106.950962 121.102642 
L 107.038044 79.750252 
L 107.125126 79.784272 
L 108.083026 80.020173 
L 108.953844 80.007587 
L 109.824662 79.764374 
L 110.69548 79.268575 
L 111.566298 78.487367 
L 112.437117 77.372395 
L 113.307935 75.852112 
L 114.091671 74.049136 
L 114.875407 71.711556 
L 115.659144 68.66566 
L 116.44288 64.692627 
L 117.139534 60.051676 
L 117.836189 53.836768 
L 118.445761 46.37021 
L 118.968252 37.498288 
L 119.490743 24.655515 
L 119.664907 18.956194 
L 119.83907 121.102642 
L 145.179877 121.102642 
L 145.266959 79.724386 
L 145.354041 79.785736 
L 146.311941 80.318069 
L 147.182759 80.573893 
L 148.053577 80.60641 
L 148.924395 80.403317 
L 149.708131 80.0023 
L 150.491868 79.371309 
L 151.362686 78.360399 
L 152.233504 76.959278 
L 153.01724 75.283396 
L 153.800976 73.101516 
L 154.584713 70.243212 
L 155.368449 66.484862 
L 156.065103 62.095377 
L 156.761758 56.224763 
L 157.371331 49.188719 
L 157.893821 40.856171 
L 158.416312 28.848819 
L 158.677558 20.539284 
L 158.851721 121.102642 
L 183.495874 121.102642 
L 183.582955 79.768627 
L 183.670037 79.85358 
L 184.715019 80.69529 
L 185.672919 81.183098 
L 186.543737 81.39132 
L 187.414555 81.369315 
L 188.285373 81.103629 
L 189.069109 80.637488 
L 189.852846 79.930193 
L 190.636582 78.94485 
L 191.420318 77.628026 
L 192.204055 75.901335 
L 192.987791 73.64669 
L 193.771527 70.67875 
L 194.555263 66.734637 
L 195.251918 62.078525 
L 195.948572 55.757544 
L 196.558145 48.021893 
L 197.080636 38.603112 
L 197.603127 24.457069 
L 197.690209 21.356133 
L 197.864372 121.102642 
L 221.81187 121.102642 
L 221.898952 79.752514 
L 221.986034 79.859694 
L 223.031015 80.954956 
L 223.988915 81.660525 
L 224.946815 82.089671 
L 225.817633 82.240277 
L 226.688451 82.155837 
L 227.472188 81.866617 
L 228.255924 81.356732 
L 229.03966 80.598875 
L 229.823396 79.55313 
L 230.607133 78.161267 
L 231.390869 76.337078 
L 232.174605 73.949098 
L 232.958342 70.7876 
L 233.742078 66.542416 
L 234.438732 61.458893 
L 235.048305 55.440452 
L 235.657878 47.021971 
L 236.180369 36.4839 
L 236.615778 23.349508 
L 236.702859 19.953702 
L 236.877023 121.102642 
L 260.214948 121.102642 
L 260.30203 79.833117 
L 260.389112 79.958206 
L 261.434094 81.25456 
L 262.479075 82.193403 
L 263.436975 82.75751 
L 264.307793 83.030204 
L 265.178611 83.072257 
L 266.049429 82.87399 
L 266.833166 82.47457 
L 267.616902 81.842975 
L 268.400638 80.946156 
L 269.184375 79.735768 
L 269.968111 78.140649 
L 270.751847 76.053703 
L 271.535583 73.307592 
L 272.232238 70.09412 
L 272.928892 65.872751 
L 273.625547 60.174423 
L 274.23512 53.258028 
L 274.75761 44.927546 
L 275.280101 32.607205 
L 275.628429 20.29377 
L 275.802592 121.102642 
L 298.618026 121.102642 
L 298.705108 79.856611 
L 298.79219 79.998089 
L 299.837172 81.476146 
L 300.882153 82.576368 
L 301.840053 83.278466 
L 302.797953 83.70093 
L 303.668771 83.845135 
L 304.539589 83.755576 
L 305.410408 83.418285 
L 306.194144 82.882671 
L 306.97788 82.098402 
L 307.848698 80.884481 
L 308.632435 79.415648 
L 309.416171 77.492924 
L 310.199907 74.969623 
L 310.983643 71.607219 
L 311.680298 67.605114 
L 312.376952 62.222091 
L 312.986525 55.729862 
L 313.509016 47.975499 
L 314.031507 36.646305 
L 314.466916 21.985505 
L 314.553998 18.083132 
L 314.728161 121.102642 
L 337.108186 121.102642 
L 337.195268 80.005975 
L 337.28235 80.158949 
L 338.327332 81.762865 
L 339.372314 82.972619 
L 340.330213 83.767021 
L 341.288113 84.278981 
L 342.158931 84.505892 
L 343.02975 84.50394 
L 343.900568 84.263176 
L 344.771386 83.763802 
L 345.642204 82.973126 
L 346.513022 81.840373 
L 347.296758 80.464817 
L 348.080495 78.663583 
L 348.864231 76.304673 
L 349.647967 73.175952 
L 350.344622 69.461954 
L 351.041276 64.483227 
L 351.650849 58.543148 
L 352.260421 50.136442 
L 352.782912 39.420763 
L 353.218321 25.69898 
L 353.392485 18.029706 
L 353.566649 121.102642 
L 375.511265 121.102642 
L 375.598346 79.854335 
L 375.685428 80.021476 
L 376.73041 81.779423 
L 377.775392 83.120818 
L 378.733292 84.02351 
L 379.691192 84.637514 
L 380.56201 84.955886 
L 381.432828 85.047913 
L 382.303646 84.907627 
L 383.174464 84.520003 
L 384.045282 83.85859 
L 384.9161 82.881408 
L 385.786918 81.523854 
L 386.570655 79.895358 
L 387.354391 77.766292 
L 388.138127 74.959336 
L 388.834782 71.659496 
L 389.531436 67.254687 
L 390.141009 62.086483 
L 390.750581 54.956343 
L 391.273072 46.199906 
L 391.708481 35.550674 
L 392.14389 18.910409 
L 392.318054 121.102642 
L 414.088507 121.102642 
L 414.175588 80.059313 
L 414.26267 80.231594 
L 415.307652 82.044484 
L 416.352634 83.43199 
L 417.397615 84.443554 
L 418.355515 85.068638 
L 419.313415 85.419038 
L 420.184233 85.501996 
L 421.055051 85.354737 
L 421.925869 84.962372 
L 422.796688 84.298642 
L 423.667506 83.321863 
L 424.538324 81.967888 
L 425.32206 80.345923 
L 426.105796 78.227388 
L 426.889533 75.436334 
L 427.586187 72.157007 
L 428.282842 67.773661 
L 428.892414 62.623581 
L 429.501987 55.511242 
L 430.024478 46.762185 
L 430.459887 36.09541 
L 430.895296 19.355577 
L 431.069459 121.102642 
L 452.578667 121.102642 
L 452.665748 79.932805 
L 452.75283 80.113524 
L 453.797812 82.017106 
L 454.842794 83.480443 
L 455.887775 84.558371 
L 456.845675 85.239612 
L 457.803575 85.644593 
L 458.674393 85.778054 
L 459.545211 85.684345 
L 460.416029 85.351072 
L 461.286848 84.755173 
L 462.157666 83.859375 
L 463.028484 82.606087 
L 463.899302 80.906583 
L 464.683038 78.881496 
L 465.466774 76.220176 
L 466.163429 73.106553 
L 466.860083 68.960811 
L 467.556738 63.295846 
L 468.166311 56.334789 
L 468.688801 47.802043 
L 469.12421 37.447627 
L 469.55962 21.31357 
L 469.733783 121.102642 
L 491.155908 121.102642 
L 491.24299 79.922768 
L 491.330072 80.107129 
L 492.375054 82.049497 
L 493.420035 83.544854 
L 494.465017 84.650654 
L 495.422917 85.355524 
L 496.380817 85.783653 
L 497.251635 85.938784 
L 498.122453 85.868355 
L 498.993271 85.561127 
L 499.864089 84.995506 
L 500.734908 84.136254 
L 501.605726 82.928784 
L 502.476544 81.289114 
L 503.26028 79.33639 
L 504.044016 76.77551 
L 504.827753 73.356348 
L 505.524407 69.248616 
L 506.221062 63.637624 
L 506.830634 56.753965 
L 507.353125 48.333898 
L 507.788534 38.144532 
L 508.223943 22.334383 
L 508.311025 18.011661 
L 508.485189 121.102642 
L 529.820232 121.102642 
L 529.907314 80.028183 
L 529.994396 80.211396 
L 531.039377 82.141174 
L 532.084359 83.625875 
L 533.129341 84.72262 
L 534.087241 85.420361 
L 535.045141 85.842312 
L 535.915959 85.992545 
L 536.786777 85.917836 
L 537.657595 85.606914 
L 538.528413 85.038185 
L 539.399231 84.176466 
L 540.270049 82.967296 
L 541.140867 81.326956 
L 541.924604 79.374916 
L 542.70834 76.81666 
L 543.492076 73.403455 
L 544.188731 69.305884 
L 544.885385 63.712896 
L 545.494958 56.859341 
L 546.017449 48.488787 
L 546.452858 38.37949 
L 546.888267 22.741516 
L 546.975349 18.476726 
L 547.149512 121.102642 
L 568.484556 121.102642 
L 568.571638 79.992916 
L 568.658719 80.174886 
L 569.703701 82.091445 
L 570.748683 83.565244 
L 571.793665 84.652516 
L 572.751564 85.342269 
L 573.709464 85.756486 
L 574.580282 85.899617 
L 575.451101 85.817481 
L 576.321919 85.498536 
L 577.192737 84.920881 
L 578.063555 84.048935 
L 578.934373 82.827697 
L 579.805191 81.172648 
L 580.588927 79.204084 
L 581.372664 76.624627 
L 582.1564 73.182861 
L 582.853054 69.050971 
L 583.549709 63.414056 
L 584.159282 56.504017 
L 584.681772 48.059751 
L 585.117181 37.853747 
L 585.552591 22.048744 
L 585.639672 17.734734 
L 585.813836 121.102642 
L 607.235961 121.102642 
L 607.323043 80.022368 
L 607.410125 80.19918 
L 608.455107 82.060354 
L 609.500088 83.487898 
L 610.54507 84.534742 
L 611.50297 85.190369 
L 612.46087 85.571563 
L 613.331688 85.684347 
L 614.202506 85.570335 
L 615.073324 85.216649 
L 615.944142 84.59973 
L 616.81496 83.681765 
L 617.685778 82.404523 
L 618.556597 80.678482 
L 619.340333 78.62643 
L 620.124069 75.93412 
L 620.820724 72.788356 
L 621.517378 68.607519 
L 622.214033 62.909708 
L 622.823605 55.923705 
L 623.346096 47.384345 
L 623.781505 37.060238 
L 624.216914 21.067482 
L 624.391078 121.102642 
L 645.987367 121.102642 
L 646.074449 79.872184 
L 646.16153 80.044427 
L 647.206512 81.856768 
L 648.251494 83.24353 
L 649.296475 84.254217 
L 650.254375 84.878517 
L 651.212275 85.228361 
L 652.083093 85.311271 
L 652.953911 85.164756 
L 653.82473 84.774447 
L 654.695548 84.114881 
L 655.566366 83.145637 
L 656.437184 81.80465 
L 657.308002 79.996385 
L 658.091738 77.846306 
L 658.875475 75.019977 
L 659.572129 71.705769 
L 660.268784 67.291816 
L 660.965438 61.25138 
L 661.575011 53.775811 
L 662.097502 44.520234 
L 662.532911 33.134689 
L 662.881238 19.476304 
L 663.055401 121.102642 
L 684.912936 121.102642 
L 685.000018 79.956694 
L 685.087099 80.117391 
L 686.132081 81.804692 
L 687.177063 83.085389 
L 688.134963 83.938732 
L 689.092863 84.507602 
L 689.963681 84.787389 
L 690.834499 84.842199 
L 691.705317 84.665224 
L 692.576135 84.240639 
L 693.446953 83.541192 
L 694.317771 82.52405 
L 695.188589 81.123662 
L 695.972326 79.453253 
L 696.756062 77.278136 
L 697.539798 74.419986 
L 698.236453 71.069626 
L 698.933107 66.6218 
L 699.629762 60.5504 
L 700.239334 53.056423 
L 700.761825 43.812662 
L 701.197234 32.501916 
L 701.545562 19.034207 
L 701.719725 121.102642 
L 723.925587 121.102642 
L 724.012668 80.008815 
L 724.09975 80.155905 
L 725.144732 81.694697 
L 726.189714 82.847513 
L 727.147614 83.5949 
L 728.105514 84.063298 
L 728.976332 84.252597 
L 729.84715 84.214147 
L 730.543804 84.012589 
L 730.543804 84.012589 
" clip-path="url(#p8f3c46470e)" style="fill: none; stroke-dasharray: 6,0; stroke-dashoffset: 0; stroke: #1f77b4; stroke-width: 1.5"/>
   </g>
   <g id="patch_3">
    <path d="M 22 121.102642 
L 22 6.48 
" style="fill: none; stroke: #000000; stroke-linejoin: miter; stroke-linecap: square"/>
   </g>
   <g id="patch_4">
    <path d="M 730.48 121.102642 
L 730.48 6.48 
" style="fill: none; stroke: #000000; stroke-linejoin: miter; stroke-linecap: square"/>
   </g>
   <g id="patch_5">
    <path d="M 22 121.102642 
L 730.48 121.102642 
" style="fill: none; stroke: #000000; stroke-linejoin: miter; stroke-linecap: square"/>
   </g>
   <g id="patch_6">
    <path d="M 22 6.48 
L 730.48 6.48 
" style="fill: none; stroke: #000000; stroke-linejoin: miter; stroke-linecap: square"/>
   </g>
   <g id="matplotlib.axis_1">
    <g id="xtick_1">
     <g id="line2d_2">
      <path d="M 43.944071 121.102642 
L 43.944071 6.48 
" clip-path="url(#p8f3c46470e)" style="fill: none; stroke-dasharray: 1,3; stroke-dashoffset: 0; stroke: #000000; stroke-width: 0.5"/>
     </g>
     <g id="line2d_3">
      <defs>
       <path id="md48ddb5c6e" d="M 0 0 
L 0 -4 
" style="stroke: #000000; stroke-width: 0.5"/>
      </defs>
      <g>
       <use xlink:href="#md48ddb5c6e" x="43.944071" y="121.102642" style="stroke: #000000; stroke-width: 0.5"/>
      </g>
     </g>
     <g id="line2d_4">
      <defs>
       <path id="m5985e1bdc2" d="M 0 0 
L 0 4 
" style="stroke: #000000; stroke-width: 0.5"/>
      </defs>
      <g>
       <use xlink:href="#m5985e1bdc2" x="43.944071" y="6.48" style="stroke: #000000; stroke-width: 0.5"/>
      </g>
     </g>
    </g>
    <g id="xtick_2">
     <g id="line2d_5">
      <path d="M 200.687434 121.102642 
L 200.687434 6.48 
" clip-path="url(#p8f3c46470e)" style="fill: none; stroke-dasharray: 1,3; stroke-dashoffset: 0; stroke: #000000; stroke-width: 0.5"/>
     </g>
     <g id="line2d_6">
      <g>
       <use xlink:href="#md48ddb5c6e" x="200.687434" y="121.102642" style="stroke: #000000; stroke-width: 0.5"/>
      </g>
     </g>
     <g id="line2d_7">
      <g>
       <use xlink:href="#m5985e1bdc2" x="200.687434" y="6.48" style="stroke: #000000; stroke-width: 0.5"/>
      </g>
     </g>
    </g>
    <g id="xtick_3">
     <g id="line2d_8">
      <path d="M 357.430796 121.102642 
L 357.430796 6.48 
" clip-path="url(#p8f3c46470e)" style="fill: none; stroke-dasharray: 1,3; stroke-dashoffset: 0; stroke: #000000; stroke-width: 0.5"/>
     </g>
     <g id="line2d_9">
      <g>
       <use xlink:href="#md48ddb5c6e" x="357.430796" y="121.102642" style="stroke: #000000; stroke-width: 0.5"/>
      </g>
     </g>
     <g id="line2d_10">
      <g>
       <use xlink:href="#m5985e1bdc2" x="357.430796" y="6.48" style="stroke: #000000; stroke-width: 0.5"/>
      </g>
     </g>
    </g>
    <g id="xtick_4">
     <g id="line2d_11">
      <path d="M 514.174159 121.102642 
L 514.174159 6.48 
" clip-path="url(#p8f3c46470e)" style="fill: none; stroke-dasharray: 1,3; stroke-dashoffset: 0; stroke: #000000; stroke-width: 0.5"/>
     </g>
     <g id="line2d_12">
      <g>
       <use xlink:href="#md48ddb5c6e" x="514.174159" y="121.102642" style="stroke: #000000; stroke-width: 0.5"/>
      </g>
     </g>
     <g id="line2d_13">
      <g>
       <use xlink:href="#m5985e1bdc2" x="514.174159" y="6.48" style="stroke: #000000; stroke-width: 0.5"/>
      </g>
     </g>
    </g>
    <g id="xtick_5">
     <g id="line2d_14">
      <path d="M 670.917522 121.102642 
L 670.917522 6.48 
" clip-path="url(#p8f3c46470e)" style="fill: none; stroke-dasharray: 1,3; stroke-dashoffset: 0; stroke: #000000; stroke-width: 0.5"/>
     </g>
     <g id="line2d_15">
      <g>
       <use xlink:href="#md48ddb5c6e" x="670.917522" y="121.102642" style="stroke: #000000; stroke-width: 0.5"/>
      </g>
     </g>
     <g id="line2d_16">
      <g>
       <use xlink:href="#m5985e1bdc2" x="670.917522" y="6.48" style="stroke: #000000; stroke-width: 0.5"/>
      </g>
     </g>
    </g>
   </g>
   <g id="matplotlib.axis_2">
    <g id="ytick_1">
     <g id="line2d_17">
      <path d="M 22 121.102642 
L 730.48 121.102642 
" clip-path="url(#p8f3c46470e)" style="fill: none; stroke-dasharray: 1,3; stroke-dashoffset: 0; stroke: #000000; stroke-width: 0.5"/>
     </g>
     <g id="line2d_18">
      <defs>
       <path id="mcbd0fad9dd" d="M 0 0 
L 4 0 
" style="stroke: #000000; stroke-width: 0.5"/>
      </defs>
      <g>
       <use xlink:href="#mcbd0fad9dd" x="22" y="121.102642" style="stroke: #000000; stroke-width: 0.5"/>
      </g>
     </g>
     <g id="line2d_19">
      <defs>
       <path id="m852b44a6bc" d="M 0 0 
L -4 0 
" style="stroke: #000000; stroke-width: 0.5"/>
      </defs>
      <g>
       <use xlink:href="#m852b44a6bc" x="730.48" y="121.102642" style="stroke: #000000; stroke-width: 0.5"/>
      </g>
     </g>
     <g id="text_1">
      <!-- 0 -->
      <g transform="translate(10.8 124.457392) scale(0.144 -0.144)">
       <defs>
        <path id="STIXGeneral-Regular-30" d="M 3046 2112 
Q 3046 1683 2963 1302 
Q 2880 922 2717 602 
Q 2554 282 2266 96 
Q 1978 -90 1600 -90 
Q 1210 -90 915 108 
Q 621 307 461 640 
Q 301 973 227 1350 
Q 154 1728 154 2150 
Q 154 2746 301 3222 
Q 448 3699 790 4012 
Q 1133 4326 1626 4326 
Q 2253 4326 2649 3712 
Q 3046 3098 3046 2112 
z
M 2432 2080 
Q 2432 3091 2217 3625 
Q 2003 4160 1587 4160 
Q 1190 4160 979 3622 
Q 768 3085 768 2106 
Q 768 1120 979 598 
Q 1190 77 1600 77 
Q 2003 77 2217 598 
Q 2432 1120 2432 2080 
z
" transform="scale(0.015625)"/>
       </defs>
       <use xlink:href="#STIXGeneral-Regular-30"/>
      </g>
     </g>
    </g>
    <g id="ytick_2">
     <g id="line2d_20">
      <path d="M 22 108.366792 
L 730.48 108.366792 
" clip-path="url(#p8f3c46470e)" style="fill: none; stroke-dasharray: 1,3; stroke-dashoffset: 0; stroke: #000000; stroke-width: 0.5"/>
     </g>
     <g id="line2d_21">
      <g>
       <use xlink:href="#mcbd0fad9dd" x="22" y="108.366792" style="stroke: #000000; stroke-width: 0.5"/>
      </g>
     </g>
     <g id="line2d_22">
      <g>
       <use xlink:href="#m852b44a6bc" x="730.48" y="108.366792" style="stroke: #000000; stroke-width: 0.5"/>
      </g>
     </g>
     <g id="text_2">
      <!-- 2 -->
      <g transform="translate(10.8 111.721542) scale(0.144 -0.144)">
       <defs>
        <path id="STIXGeneral-Regular-32" d="M 3034 877 
L 2688 0 
L 186 0 
L 186 77 
L 1325 1286 
Q 1773 1754 1965 2144 
Q 2157 2534 2157 2950 
Q 2157 3379 1920 3616 
Q 1683 3853 1267 3853 
Q 922 3853 720 3673 
Q 518 3494 326 3021 
L 192 3053 
Q 301 3648 630 3987 
Q 960 4326 1523 4326 
Q 2054 4326 2380 4006 
Q 2707 3686 2707 3200 
Q 2707 2477 1888 1613 
L 832 486 
L 2330 486 
Q 2541 486 2665 569 
Q 2790 653 2944 915 
L 3034 877 
z
" transform="scale(0.015625)"/>
       </defs>
       <use xlink:href="#STIXGeneral-Regular-32"/>
      </g>
     </g>
    </g>
    <g id="ytick_3">
     <g id="line2d_23">
      <path d="M 22 95.630943 
L 730.48 95.630943 
" clip-path="url(#p8f3c46470e)" style="fill: none; stroke-dasharray: 1,3; stroke-dashoffset: 0; stroke: #000000; stroke-width: 0.5"/>
     </g>
     <g id="line2d_24">
      <g>
       <use xlink:href="#mcbd0fad9dd" x="22" y="95.630943" style="stroke: #000000; stroke-width: 0.5"/>
      </g>
     </g>
     <g id="line2d_25">
      <g>
       <use xlink:href="#m852b44a6bc" x="730.48" y="95.630943" style="stroke: #000000; stroke-width: 0.5"/>
      </g>
     </g>
     <g id="text_3">
      <!-- 4 -->
      <g transform="translate(10.8 98.985693) scale(0.144 -0.144)">
       <defs>
        <path id="STIXGeneral-Regular-34" d="M 3027 1069 
L 2368 1069 
L 2368 0 
L 1869 0 
L 1869 1069 
L 77 1069 
L 77 1478 
L 2086 4326 
L 2368 4326 
L 2368 1478 
L 3027 1478 
L 3027 1069 
z
M 1869 1478 
L 1869 3674 
L 333 1478 
L 1869 1478 
z
" transform="scale(0.015625)"/>
       </defs>
       <use xlink:href="#STIXGeneral-Regular-34"/>
      </g>
     </g>
    </g>
    <g id="ytick_4">
     <g id="line2d_26">
      <path d="M 22 82.895094 
L 730.48 82.895094 
" clip-path="url(#p8f3c46470e)" style="fill: none; stroke-dasharray: 1,3; stroke-dashoffset: 0; stroke: #000000; stroke-width: 0.5"/>
     </g>
     <g id="line2d_27">
      <g>
       <use xlink:href="#mcbd0fad9dd" x="22" y="82.895094" style="stroke: #000000; stroke-width: 0.5"/>
      </g>
     </g>
     <g id="line2d_28">
      <g>
       <use xlink:href="#m852b44a6bc" x="730.48" y="82.895094" style="stroke: #000000; stroke-width: 0.5"/>
      </g>
     </g>
     <g id="text_4">
      <!-- 6 -->
      <g transform="translate(10.8 86.249844) scale(0.144 -0.144)">
       <defs>
        <path id="STIXGeneral-Regular-36" d="M 2854 4378 
L 2867 4275 
Q 2112 4154 1606 3664 
Q 1101 3174 973 2451 
Q 1344 2739 1786 2739 
Q 2349 2739 2672 2380 
Q 2995 2022 2995 1402 
Q 2995 774 2669 378 
Q 2291 -90 1651 -90 
Q 870 -90 518 557 
Q 218 1107 218 1786 
Q 218 2835 915 3552 
Q 1312 3962 1731 4131 
Q 2150 4301 2854 4378 
z
M 2419 1203 
Q 2419 2445 1555 2445 
Q 1235 2445 1024 2275 
Q 813 2106 813 1702 
Q 813 954 1046 522 
Q 1280 90 1722 90 
Q 2061 90 2240 394 
Q 2419 698 2419 1203 
z
" transform="scale(0.015625)"/>
       </defs>
       <use xlink:href="#STIXGeneral-Regular-36"/>
      </g>
     </g>
    </g>
    <g id="ytick_5">
     <g id="line2d_29">
      <path d="M 22 70.159245 
L 730.48 70.159245 
" clip-path="url(#p8f3c46470e)" style="fill: none; stroke-dasharray: 1,3; stroke-dashoffset: 0; stroke: #000000; stroke-width: 0.5"/>
     </g>
     <g id="line2d_30">
      <g>
       <use xlink:href="#mcbd0fad9dd" x="22" y="70.159245" style="stroke: #000000; stroke-width: 0.5"/>
      </g>
     </g>
     <g id="line2d_31">
      <g>
       <use xlink:href="#m852b44a6bc" x="730.48" y="70.159245" style="stroke: #000000; stroke-width: 0.5"/>
      </g>
     </g>
     <g id="text_5">
      <!-- 8 -->
      <g transform="translate(10.8 73.513995) scale(0.144 -0.144)">
       <defs>
        <path id="STIXGeneral-Regular-38" d="M 2848 992 
Q 2848 499 2505 204 
Q 2163 -90 1587 -90 
Q 1050 -90 704 204 
Q 358 499 358 954 
Q 358 1293 524 1533 
Q 691 1773 1190 2125 
Q 710 2522 553 2765 
Q 397 3008 397 3328 
Q 397 3782 745 4054 
Q 1094 4326 1638 4326 
Q 2106 4326 2410 4060 
Q 2714 3795 2714 3411 
Q 2714 3059 2531 2848 
Q 2349 2637 1856 2374 
Q 2432 1990 2640 1689 
Q 2848 1389 2848 992 
z
M 2272 3411 
Q 2272 3744 2086 3945 
Q 1901 4147 1574 4147 
Q 1248 4147 1059 3977 
Q 870 3808 870 3513 
Q 870 3219 1059 2979 
Q 1248 2739 1670 2490 
Q 1997 2682 2134 2896 
Q 2272 3110 2272 3411 
z
M 1734 1741 
L 1357 1997 
Q 1075 1766 960 1545 
Q 845 1325 845 1011 
Q 845 576 1065 333 
Q 1286 90 1658 90 
Q 1971 90 2166 285 
Q 2362 480 2362 794 
Q 2362 1082 2214 1299 
Q 2067 1517 1734 1741 
z
" transform="scale(0.015625)"/>
       </defs>
       <use xlink:href="#STIXGeneral-Regular-38"/>
      </g>
     </g>
    </g>
    <g id="ytick_6">
     <g id="line2d_32">
      <path d="M 22 57.423396 
L 730.48 57.423396 
" clip-path="url(#p8f3c46470e)" style="fill: none; stroke-dasharray: 1,3; stroke-dashoffset: 0; stroke: #000000; stroke-width: 0.5"/>
     </g>
     <g id="line2d_33">
      <g>
       <use xlink:href="#mcbd0fad9dd" x="22" y="57.423396" style="stroke: #000000; stroke-width: 0.5"/>
      </g>
     </g>
     <g id="line2d_34">
      <g>
       <use xlink:href="#m852b44a6bc" x="730.48" y="57.423396" style="stroke: #000000; stroke-width: 0.5"/>
      </g>
     </g>
     <g id="text_6">
      <!-- 10 -->
      <g transform="translate(3.6 60.778146) scale(0.144 -0.144)">
       <defs>
        <path id="STIXGeneral-Regular-31" d="M 2522 0 
L 755 0 
L 755 96 
Q 1107 115 1235 227 
Q 1363 339 1363 608 
L 1363 3482 
Q 1363 3795 1171 3795 
Q 1082 3795 883 3718 
L 710 3654 
L 710 3744 
L 1856 4326 
L 1914 4307 
L 1914 486 
Q 1914 275 2042 185 
Q 2170 96 2522 96 
L 2522 0 
z
" transform="scale(0.015625)"/>
       </defs>
       <use xlink:href="#STIXGeneral-Regular-31"/>
       <use xlink:href="#STIXGeneral-Regular-30" transform="translate(49.999985 0)"/>
      </g>
     </g>
    </g>
    <g id="ytick_7">
     <g id="line2d_35">
      <path d="M 22 44.687547 
L 730.48 44.687547 
" clip-path="url(#p8f3c46470e)" style="fill: none; stroke-dasharray: 1,3; stroke-dashoffset: 0; stroke: #000000; stroke-width: 0.5"/>
     </g>
     <g id="line2d_36">
      <g>
       <use xlink:href="#mcbd0fad9dd" x="22" y="44.687547" style="stroke: #000000; stroke-width: 0.5"/>
      </g>
     </g>
     <g id="line2d_37">
      <g>
       <use xlink:href="#m852b44a6bc" x="730.48" y="44.687547" style="stroke: #000000; stroke-width: 0.5"/>
      </g>
     </g>
     <g id="text_7">
      <!-- 12 -->
      <g transform="translate(3.6 48.042297) scale(0.144 -0.144)">
       <use xlink:href="#STIXGeneral-Regular-31"/>
       <use xlink:href="#STIXGeneral-Regular-32" transform="translate(49.999985 0)"/>
      </g>
     </g>
    </g>
    <g id="ytick_8">
     <g id="line2d_38">
      <path d="M 22 31.951698 
L 730.48 31.951698 
" clip-path="url(#p8f3c46470e)" style="fill: none; stroke-dasharray: 1,3; stroke-dashoffset: 0; stroke: #000000; stroke-width: 0.5"/>
     </g>
     <g id="line2d_39">
      <g>
       <use xlink:href="#mcbd0fad9dd" x="22" y="31.951698" style="stroke: #000000; stroke-width: 0.5"/>
      </g>
     </g>
     <g id="line2d_40">
      <g>
       <use xlink:href="#m852b44a6bc" x="730.48" y="31.951698" style="stroke: #000000; stroke-width: 0.5"/>
      </g>
     </g>
     <g id="text_8">
      <!-- 14 -->
      <g transform="translate(3.6 35.306448) scale(0.144 -0.144)">
       <use xlink:href="#STIXGeneral-Regular-31"/>
       <use xlink:href="#STIXGeneral-Regular-34" transform="translate(49.999985 0)"/>
      </g>
     </g>
    </g>
    <g id="ytick_9">
     <g id="line2d_41">
      <path d="M 22 19.215849 
L 730.48 19.215849 
" clip-path="url(#p8f3c46470e)" style="fill: none; stroke-dasharray: 1,3; stroke-dashoffset: 0; stroke: #000000; stroke-width: 0.5"/>
     </g>
     <g id="line2d_42">
      <g>
       <use xlink:href="#mcbd0fad9dd" x="22" y="19.215849" style="stroke: #000000; stroke-width: 0.5"/>
      </g>
     </g>
     <g id="line2d_43">
      <g>
       <use xlink:href="#m852b44a6bc" x="730.48" y="19.215849" style="stroke: #000000; stroke-width: 0.5"/>
      </g>
     </g>
     <g id="text_9">
      <!-- 16 -->
      <g transform="translate(3.6 22.570599) scale(0.144 -0.144)">
       <use xlink:href="#STIXGeneral-Regular-31"/>
       <use xlink:href="#STIXGeneral-Regular-36" transform="translate(49.999985 0)"/>
      </g>
     </g>
    </g>
    <g id="ytick_10">
     <g id="line2d_44">
      <path d="M 22 6.48 
L 730.48 6.48 
" clip-path="url(#p8f3c46470e)" style="fill: none; stroke-dasharray: 1,3; stroke-dashoffset: 0; stroke: #000000; stroke-width: 0.5"/>
     </g>
     <g id="line2d_45">
      <g>
       <use xlink:href="#mcbd0fad9dd" x="22" y="6.48" style="stroke: #000000; stroke-width: 0.5"/>
      </g>
     </g>
     <g id="line2d_46">
      <g>
       <use xlink:href="#m852b44a6bc" x="730.48" y="6.48" style="stroke: #000000; stroke-width: 0.5"/>
      </g>
     </g>
     <g id="text_10">
      <!-- 18 -->
      <g transform="translate(3.6 9.83475) scale(0.144 -0.144)">
       <use xlink:href="#STIXGeneral-Regular-31"/>
       <use xlink:href="#STIXGeneral-Regular-38" transform="translate(49.999985 0)"/>
      </g>
     </g>
    </g>
   </g>
   <g id="legend_1">
    <g id="patch_7">
     <path d="M 28 115.102642 
L 101.2 115.102642 
L 101.2 94.498267 
L 28 94.498267 
z
" style="fill: #ffffff; stroke: #000000; stroke-linejoin: miter"/>
    </g>
    <g id="line2d_47">
     <path d="M 36.4 103.498267 
L 53.2 103.498267 
" style="fill: none; stroke-dasharray: 6,0; stroke-dashoffset: 0; stroke: #1f77b4; stroke-width: 1.5"/>
    </g>
    <g id="text_11">
     <!-- $n_{11}$ [-] -->
     <g transform="translate(66.4 107.698267) scale(0.12 -0.12)">
      <defs>
       <path id="STIXGeneral-Italic-6e" d="M 2944 749 
L 3034 666 
Q 2707 218 2534 80 
Q 2362 -58 2138 -58 
Q 2010 -58 1923 28 
Q 1837 115 1837 288 
Q 1837 390 1939 768 
L 2221 1805 
Q 2310 2150 2310 2310 
Q 2310 2496 2157 2496 
Q 1971 2496 1750 2275 
Q 1530 2054 1210 1587 
Q 998 1274 899 1024 
Q 800 774 570 0 
L 90 0 
L 704 2240 
Q 717 2304 717 2349 
Q 717 2445 630 2480 
Q 544 2515 301 2522 
L 301 2624 
Q 550 2675 857 2729 
Q 1165 2784 1338 2822 
L 1363 2810 
L 934 1414 
Q 1408 2170 1753 2496 
Q 2099 2822 2413 2822 
Q 2611 2822 2720 2716 
Q 2829 2611 2829 2432 
Q 2829 2272 2765 2048 
L 2406 749 
Q 2317 429 2317 358 
Q 2317 243 2419 243 
Q 2541 243 2810 582 
Q 2854 634 2944 749 
z
" transform="scale(0.015625)"/>
       <path id="STIXGeneral-Regular-20" transform="scale(0.015625)"/>
       <path id="STIXGeneral-Regular-5b" d="M 1914 -998 
L 563 -998 
L 563 4237 
L 1914 4237 
L 1914 4077 
L 1382 4077 
Q 1216 4077 1133 4006 
Q 1050 3936 1050 3770 
L 1050 -493 
Q 1050 -838 1382 -838 
L 1914 -838 
L 1914 -998 
z
" transform="scale(0.015625)"/>
       <path id="STIXGeneral-Regular-2d" d="M 1824 1242 
L 250 1242 
L 250 1645 
L 1824 1645 
L 1824 1242 
z
" transform="scale(0.015625)"/>
       <path id="STIXGeneral-Regular-5d" d="M 1568 -998 
L 218 -998 
L 218 -838 
L 781 -838 
Q 947 -838 1014 -768 
Q 1082 -698 1082 -544 
L 1082 3731 
Q 1082 4077 755 4077 
L 218 4077 
L 218 4237 
L 1568 4237 
L 1568 -998 
z
" transform="scale(0.015625)"/>
      </defs>
      <use xlink:href="#STIXGeneral-Italic-6e" transform="translate(0 0.796875)"/>
      <use xlink:href="#STIXGeneral-Regular-31" transform="translate(49.999985 -12.43125) scale(0.7)"/>
      <use xlink:href="#STIXGeneral-Regular-31" transform="translate(84.999974 -12.43125) scale(0.7)"/>
      <use xlink:href="#STIXGeneral-Regular-20" transform="translate(124.409338 0.796875)"/>
      <use xlink:href="#STIXGeneral-Regular-5b" transform="translate(149.409323 0.796875)"/>
      <use xlink:href="#STIXGeneral-Regular-2d" transform="translate(182.709311 0.796875)"/>
      <use xlink:href="#STIXGeneral-Regular-5d" transform="translate(216.009299 0.796875)"/>
     </g>
    </g>
   </g>
  </g>
  <g id="axes_2">
   <g id="patch_8">
    <path d="M 22 249.48 
L 730.48 249.48 
L 730.48 134.857358 
L 22 134.857358 
z
" style="fill: #ffffff"/>
   </g>
   <g id="line2d_48">
    <path d="M 21.959116 249.48 
L 30.406051 249.48 
L 30.580215 164.079511 
L 31.27687 163.594742 
L 31.973524 162.824742 
L 32.75726 161.580607 
L 33.540997 159.881453 
L 34.324733 157.649078 
L 35.108469 154.773747 
L 35.892205 151.097944 
L 36.58886 146.972389 
L 36.675942 147.012011 
L 37.895087 147.735965 
L 38.765905 148.492445 
L 39.375478 149.295917 
L 39.897969 150.379069 
L 40.333378 151.85504 
L 40.681705 153.773566 
L 41.030032 156.96281 
L 41.37836 162.693098 
L 41.552523 249.48 
L 68.634966 249.48 
L 68.722048 164.119299 
L 68.80913 164.133794 
L 69.418702 164.123507 
L 70.028275 163.910786 
L 70.72493 163.404191 
L 71.421584 162.593315 
L 72.118238 161.445788 
L 72.901975 159.697698 
L 73.685711 157.382542 
L 74.469447 154.37867 
L 75.253184 150.508868 
L 75.862756 146.986501 
L 75.949838 147.03104 
L 77.168983 147.785751 
L 77.95272 148.496755 
L 78.562292 149.333641 
L 79.084783 150.487407 
L 79.520192 152.104973 
L 79.86852 154.274473 
L 80.216847 158.015991 
L 80.478092 162.82728 
L 80.652256 249.48 
L 106.950962 249.48 
L 107.038044 164.287668 
L 107.125126 164.352457 
L 107.821781 164.727586 
L 108.518435 164.842651 
L 109.128008 164.721335 
L 109.73758 164.381696 
L 110.434235 163.707366 
L 111.130889 162.699346 
L 111.914626 161.115959 
L 112.698362 158.979408 
L 113.482098 156.175822 
L 114.265835 152.53905 
L 115.049571 147.818872 
L 115.223734 146.997347 
L 116.44288 147.786036 
L 117.226616 148.541773 
L 117.836189 149.458297 
L 118.271598 150.501757 
L 118.707007 152.236861 
L 119.055334 154.642423 
L 119.403661 158.963533 
L 119.664907 164.776745 
L 119.83907 249.48 
L 145.179877 249.48 
L 145.266959 164.238407 
L 145.354041 164.355243 
L 146.137777 165.221742 
L 146.834431 165.711506 
L 147.531086 165.933041 
L 148.140659 165.900177 
L 148.750231 165.646246 
L 149.359804 165.158237 
L 150.056458 164.290845 
L 150.753113 163.058067 
L 151.536849 161.17153 
L 152.320586 158.658209 
L 153.104322 155.3715 
L 153.888058 151.091912 
L 154.497631 146.976852 
L 154.584713 147.027178 
L 155.716776 147.820696 
L 156.500512 148.653092 
L 157.023003 149.524107 
L 157.458412 150.684135 
L 157.80674 152.191914 
L 158.155067 154.744305 
L 158.503394 159.507217 
L 158.677558 163.517897 
L 158.851721 249.48 
L 183.495874 249.48 
L 183.582955 164.322662 
L 183.670037 164.484448 
L 184.540855 165.863241 
L 185.324592 166.738048 
L 186.021246 167.226618 
L 186.717901 167.440248 
L 187.327473 167.395573 
L 187.937046 167.125475 
L 188.546619 166.616829 
L 189.243273 165.719777 
L 189.939927 164.449544 
L 190.723664 162.508618 
L 191.5074 159.922552 
L 192.291136 156.535357 
L 193.074873 152.111138 
L 193.858609 147.020163 
L 193.945691 147.075691 
L 194.990672 147.883357 
L 195.687327 148.694484 
L 196.209818 149.659909 
L 196.645227 151.005452 
L 196.993554 152.848535 
L 197.341881 156.169555 
L 197.603127 160.696887 
L 197.690209 162.89574 
L 197.864372 249.48 
L 221.81187 249.48 
L 221.898952 164.291975 
L 221.986034 164.496091 
L 222.943933 166.433224 
L 223.814752 167.72076 
L 224.598488 168.506234 
L 225.295142 168.910203 
L 225.904715 169.03413 
L 226.514288 168.938014 
L 227.12386 168.612397 
L 227.733433 168.043296 
L 228.430088 167.069409 
L 229.126742 165.711274 
L 229.910478 163.652748 
L 230.694215 160.9199 
L 231.477951 157.340966 
L 232.261687 152.652913 
L 233.045423 147.008676 
L 233.132505 147.068259 
L 234.090405 147.854656 
L 234.78706 148.714507 
L 235.309551 149.768405 
L 235.657878 150.917559 
L 236.006205 152.8327 
L 236.354532 156.398657 
L 236.615778 161.453258 
L 236.702859 163.975298 
L 236.877023 249.48 
L 260.214948 249.48 
L 260.30203 164.445476 
L 260.389112 164.683699 
L 261.347012 166.973474 
L 262.21783 168.554793 
L 263.088648 169.685354 
L 263.872384 170.328769 
L 264.569039 170.604764 
L 265.178611 170.614169 
L 265.788184 170.399682 
L 266.397757 169.949987 
L 267.094411 169.126728 
L 267.791066 167.939917 
L 268.574802 166.108502 
L 269.358538 163.65422 
L 270.142275 160.429026 
L 270.926011 156.208559 
L 271.709747 150.638504 
L 272.145156 146.984759 
L 272.232238 147.048032 
L 273.190138 147.888309 
L 273.799711 148.686825 
L 274.23512 149.565784 
L 274.583447 150.670829 
L 274.931774 152.525436 
L 275.280101 156.036165 
L 275.541347 161.126481 
L 275.628429 163.708502 
L 275.802592 249.48 
L 298.618026 249.48 
L 298.705108 164.490219 
L 298.79219 164.759653 
L 299.837172 167.574499 
L 300.795072 169.521121 
L 301.66589 170.803858 
L 302.449626 171.579694 
L 303.146281 171.973717 
L 303.755853 172.089333 
L 304.365426 171.986236 
L 304.974999 171.655701 
L 305.584571 171.08434 
L 306.281226 170.111738 
L 306.97788 168.759538 
L 307.761616 166.713694 
L 308.545353 163.999965 
L 309.329089 160.445851 
L 310.112825 155.785779 
L 310.896562 149.590715 
L 311.244889 147.028196 
L 312.202789 147.91753 
L 312.812361 148.783246 
L 313.247771 149.773405 
L 313.596098 151.076278 
L 313.944425 153.388105 
L 314.20567 156.548862 
L 314.466916 162.428815 
L 314.553998 165.501659 
L 314.728161 249.48 
L 337.108186 249.48 
L 337.195268 164.774672 
L 337.28235 165.065999 
L 338.327332 168.120533 
L 339.285232 170.259198 
L 340.15605 171.702963 
L 340.939786 172.618647 
L 341.636441 173.136893 
L 342.333095 173.378908 
L 342.942668 173.36109 
L 343.55224 173.122105 
L 344.161813 172.65088 
L 344.858468 171.806833 
L 345.555122 170.603348 
L 346.338858 168.757889 
L 347.122595 166.293865 
L 347.906331 163.061624 
L 348.690067 158.83337 
L 349.473803 153.247334 
L 350.170458 146.992165 
L 350.25754 147.063073 
L 351.128358 147.916276 
L 351.737931 148.828313 
L 352.17334 149.899392 
L 352.521667 151.357002 
L 352.869994 154.056812 
L 353.13124 157.928969 
L 353.392485 165.54674 
L 353.566649 249.48 
L 375.511265 249.48 
L 375.598346 164.485886 
L 375.685428 164.804193 
L 376.73041 168.152067 
L 377.68831 170.521751 
L 378.559128 172.155098 
L 379.429946 173.32898 
L 380.213682 174.010473 
L 380.910337 174.32351 
L 381.51991 174.370171 
L 382.129482 174.199411 
L 382.739055 173.801835 
L 383.435709 173.051128 
L 384.132364 171.954277 
L 384.9161 170.250711 
L 385.699836 167.961225 
L 386.483573 164.950946 
L 387.267309 161.016012 
L 388.051045 155.836252 
L 388.7477 149.764546 
L 389.008945 147.008756 
L 389.096027 147.03914 
L 389.966845 147.918952 
L 390.576418 148.871082 
L 391.011827 150.015605 
L 391.360154 151.619671 
L 391.6214 153.708695 
L 391.882645 157.430211 
L 392.14389 164.814213 
L 392.318054 249.48 
L 414.088507 249.48 
L 414.175588 164.87625 
L 414.26267 165.204346 
L 415.307652 168.656854 
L 416.265552 171.107474 
L 417.223452 172.951341 
L 418.09427 174.144072 
L 418.878006 174.844109 
L 419.574661 175.175899 
L 420.184233 175.241419 
L 420.793806 175.092462 
L 421.403379 174.72035 
L 422.100033 174.004339 
L 422.796688 172.949725 
L 423.580424 171.305432 
L 424.36416 169.091987 
L 425.147896 166.18129 
L 425.931633 162.380383 
L 426.715369 157.387829 
L 427.412023 151.554755 
L 427.847433 146.985598 
L 427.934514 147.043179 
L 428.805332 147.955624 
L 429.327823 148.783338 
L 429.763232 149.90065 
L 430.11156 151.46307 
L 430.372805 153.501887 
L 430.63405 157.151649 
L 430.895296 164.452462 
L 431.069459 249.48 
L 452.578667 249.48 
L 452.665748 164.635326 
L 452.75283 164.979492 
L 453.797812 168.604715 
L 454.755712 171.188525 
L 455.713612 173.149826 
L 456.58443 174.441025 
L 457.368166 175.22646 
L 458.064821 175.633944 
L 458.674393 175.76715 
L 459.283966 175.688707 
L 459.893539 175.391508 
L 460.590193 174.768866 
L 461.286848 173.819152 
L 461.983502 172.504638 
L 462.767238 170.522513 
L 463.550975 167.900648 
L 464.334711 164.47507 
L 465.118447 159.993604 
L 465.902184 154.04968 
L 466.598838 146.982349 
L 466.773002 147.123792 
L 467.556738 147.977979 
L 468.079229 148.834256 
L 468.514638 150.010633 
L 468.862965 151.691476 
L 469.12421 153.932951 
L 469.385456 158.04361 
L 469.55962 162.927706 
L 469.733783 249.48 
L 491.155908 249.48 
L 491.24299 164.61621 
L 491.330072 164.967312 
L 492.375054 168.666402 
L 493.332954 171.306471 
L 494.290854 173.3171 
L 495.161672 174.649689 
L 495.945408 175.471215 
L 496.642062 175.910948 
L 497.338717 176.079383 
L 497.94829 176.001084 
L 498.557862 175.704997 
L 499.254517 175.085022 
L 499.951171 174.139755 
L 500.647826 172.831877 
L 501.431562 170.860548 
L 502.215298 168.254173 
L 502.999035 164.850678 
L 503.782771 160.401068 
L 504.566507 154.504489 
L 505.350243 147.005966 
L 505.437325 147.084545 
L 506.221062 147.930736 
L 506.743552 148.769931 
L 507.178961 149.91065 
L 507.527289 151.525958 
L 507.788534 153.665606 
L 508.04978 157.565789 
L 508.311025 165.561985 
L 508.485189 249.48 
L 529.820232 249.48 
L 529.907314 164.816965 
L 529.994396 165.16588 
L 531.039377 168.840994 
L 531.997277 171.462337 
L 532.955177 173.45684 
L 533.825995 174.776678 
L 534.609732 175.588067 
L 535.306386 176.01973 
L 536.003041 176.1809 
L 536.612613 176.096857 
L 537.222186 175.795575 
L 537.91884 175.170323 
L 538.615495 174.220506 
L 539.312149 172.908866 
L 540.095886 170.934403 
L 540.879622 168.326373 
L 541.663358 164.923288 
L 542.447095 160.477235 
L 543.230831 154.589456 
L 544.014567 146.998338 
L 544.101649 147.076787 
L 544.885385 147.920358 
L 545.407876 148.754236 
L 545.843285 149.883403 
L 546.191612 151.475898 
L 546.452858 153.577357 
L 546.714103 157.392304 
L 546.975349 165.172115 
L 547.149512 249.48 
L 568.484556 249.48 
L 568.571638 164.749802 
L 568.658719 165.09635 
L 569.703701 168.746288 
L 570.661601 171.348476 
L 571.619501 173.326206 
L 572.490319 174.632028 
L 573.274055 175.431296 
L 573.97071 175.852261 
L 574.667364 176.002548 
L 575.276937 175.90864 
L 575.88651 175.596992 
L 576.583164 174.959037 
L 577.279819 173.995287 
L 578.063555 172.474176 
L 578.847291 170.414954 
L 579.631027 167.703375 
L 580.414764 164.168753 
L 581.1985 159.547831 
L 581.982236 153.414185 
L 582.678891 147.032856 
L 582.765973 147.111599 
L 583.549709 147.961616 
L 584.0722 148.80885 
L 584.507609 149.964998 
L 584.855936 151.604851 
L 585.117181 153.776134 
L 585.378427 157.726571 
L 585.639672 165.797145 
L 585.813836 249.48 
L 607.235961 249.48 
L 607.323043 164.805891 
L 607.410125 165.142617 
L 608.455107 168.687078 
L 609.413006 171.208019 
L 610.370906 173.114196 
L 611.241724 174.360137 
L 612.025461 175.107637 
L 612.722115 175.48292 
L 613.331688 175.588692 
L 613.941261 175.483163 
L 614.550833 175.158912 
L 615.247488 174.504985 
L 615.944142 173.523124 
L 616.727879 171.978329 
L 617.511615 169.89083 
L 618.295351 167.144789 
L 619.079087 163.567143 
L 619.862824 158.890849 
L 620.64656 152.682985 
L 621.256133 147.016111 
L 621.343214 147.092986 
L 622.214033 148.031621 
L 622.736523 148.8999 
L 623.171932 150.098271 
L 623.52026 151.810449 
L 623.781505 154.085232 
L 624.042751 158.229229 
L 624.216914 163.113495 
L 624.391078 249.48 
L 645.987367 249.48 
L 646.074449 164.519877 
L 646.16153 164.8479 
L 647.206512 168.299364 
L 648.164412 170.748697 
L 649.122312 172.591048 
L 649.99313 173.782384 
L 650.776866 174.481375 
L 651.473521 174.812627 
L 652.083093 174.878198 
L 652.692666 174.730024 
L 653.302239 174.359742 
L 653.998893 173.647653 
L 654.695548 172.599765 
L 655.479284 170.968003 
L 656.26302 168.775065 
L 657.046757 165.897397 
L 657.830493 162.149792 
L 658.614229 157.244831 
L 659.310884 151.539994 
L 659.833374 147.033243 
L 660.704193 147.913879 
L 661.313765 148.862748 
L 661.749174 149.997924 
L 662.097502 151.579986 
L 662.358747 153.627583 
L 662.619992 157.247814 
L 662.881238 164.355332 
L 663.055401 249.48 
L 684.912936 249.48 
L 685.000018 164.68082 
L 685.087099 164.986855 
L 686.132081 168.20019 
L 687.089981 170.463329 
L 687.960799 172.010047 
L 688.744535 173.014659 
L 689.528272 173.667426 
L 690.224926 173.957098 
L 690.834499 173.984886 
L 691.444072 173.796733 
L 692.053644 173.383355 
L 692.750299 172.616848 
L 693.446953 171.507219 
L 694.230689 169.794217 
L 695.014426 167.502977 
L 695.798162 164.502976 
L 696.581898 160.5981 
L 697.365635 155.482683 
L 698.062289 149.519955 
L 698.323535 146.979744 
L 698.410616 147.050823 
L 699.281434 147.902886 
L 699.891007 148.807086 
L 700.326416 149.860541 
L 700.674743 151.281726 
L 701.023071 153.885275 
L 701.284316 157.572185 
L 701.545562 164.713043 
L 701.719725 249.48 
L 723.925587 249.48 
L 724.012668 164.780081 
L 724.09975 165.060201 
L 725.144732 167.990712 
L 726.102632 170.029501 
L 726.97345 171.390889 
L 727.757186 172.237453 
L 728.453841 172.697148 
L 729.150495 172.8825 
L 729.760068 172.816094 
L 730.369641 172.529003 
L 730.543804 172.404959 
L 730.543804 172.404959 
" clip-path="url(#pe5ab4c89d0)" style="fill: none; stroke-dasharray: 6,0; stroke-dashoffset: 0; stroke: #ff7f0e; stroke-width: 1.5"/>
   </g>
   <g id="patch_9">
    <path d="M 22 249.48 
L 22 134.857358 
" style="fill: none; stroke: #000000; stroke-linejoin: miter; stroke-linecap: square"/>
   </g>
   <g id="patch_10">
    <path d="M 730.48 249.48 
L 730.48 134.857358 
" style="fill: none; stroke: #000000; stroke-linejoin: miter; stroke-linecap: square"/>
   </g>
   <g id="patch_11">
    <path d="M 22 249.48 
L 730.48 249.48 
" style="fill: none; stroke: #000000; stroke-linejoin: miter; stroke-linecap: square"/>
   </g>
   <g id="patch_12">
    <path d="M 22 134.857358 
L 730.48 134.857358 
" style="fill: none; stroke: #000000; stroke-linejoin: miter; stroke-linecap: square"/>
   </g>
   <g id="matplotlib.axis_3">
    <g id="xtick_6">
     <g id="line2d_49">
      <path d="M 43.944071 249.48 
L 43.944071 134.857358 
" clip-path="url(#pe5ab4c89d0)" style="fill: none; stroke-dasharray: 1,3; stroke-dashoffset: 0; stroke: #000000; stroke-width: 0.5"/>
     </g>
     <g id="line2d_50">
      <g>
       <use xlink:href="#md48ddb5c6e" x="43.944071" y="249.48" style="stroke: #000000; stroke-width: 0.5"/>
      </g>
     </g>
     <g id="line2d_51">
      <g>
       <use xlink:href="#m5985e1bdc2" x="43.944071" y="134.857358" style="stroke: #000000; stroke-width: 0.5"/>
      </g>
     </g>
     <g id="text_12">
      <!-- 600 -->
      <g transform="translate(33.144071 263.31475) scale(0.144 -0.144)">
       <use xlink:href="#STIXGeneral-Regular-36"/>
       <use xlink:href="#STIXGeneral-Regular-30" transform="translate(49.999985 0)"/>
       <use xlink:href="#STIXGeneral-Regular-30" transform="translate(99.999969 0)"/>
      </g>
     </g>
    </g>
    <g id="xtick_7">
     <g id="line2d_52">
      <path d="M 200.687434 249.48 
L 200.687434 134.857358 
" clip-path="url(#pe5ab4c89d0)" style="fill: none; stroke-dasharray: 1,3; stroke-dashoffset: 0; stroke: #000000; stroke-width: 0.5"/>
     </g>
     <g id="line2d_53">
      <g>
       <use xlink:href="#md48ddb5c6e" x="200.687434" y="249.48" style="stroke: #000000; stroke-width: 0.5"/>
      </g>
     </g>
     <g id="line2d_54">
      <g>
       <use xlink:href="#m5985e1bdc2" x="200.687434" y="134.857358" style="stroke: #000000; stroke-width: 0.5"/>
      </g>
     </g>
     <g id="text_13">
      <!-- 650 -->
      <g transform="translate(189.887434 263.31475) scale(0.144 -0.144)">
       <defs>
        <path id="STIXGeneral-Regular-35" d="M 2803 4358 
L 2573 3814 
Q 2534 3731 2400 3731 
L 1158 3731 
L 902 3187 
Q 1606 3053 1920 2896 
Q 2234 2739 2502 2368 
Q 2726 2061 2726 1555 
Q 2726 1094 2576 780 
Q 2426 467 2099 224 
Q 1664 -90 1011 -90 
Q 646 -90 422 19 
Q 198 128 198 307 
Q 198 550 486 550 
Q 717 550 960 352 
Q 1210 147 1414 147 
Q 1747 147 2012 480 
Q 2278 813 2278 1229 
Q 2278 1843 1850 2189 
Q 1293 2637 486 2637 
Q 410 2637 410 2688 
L 416 2720 
L 1114 4237 
L 2438 4237 
Q 2547 4237 2608 4269 
Q 2669 4301 2746 4403 
L 2803 4358 
z
" transform="scale(0.015625)"/>
       </defs>
       <use xlink:href="#STIXGeneral-Regular-36"/>
       <use xlink:href="#STIXGeneral-Regular-35" transform="translate(49.999985 0)"/>
       <use xlink:href="#STIXGeneral-Regular-30" transform="translate(99.999969 0)"/>
      </g>
     </g>
    </g>
    <g id="xtick_8">
     <g id="line2d_55">
      <path d="M 357.430796 249.48 
L 357.430796 134.857358 
" clip-path="url(#pe5ab4c89d0)" style="fill: none; stroke-dasharray: 1,3; stroke-dashoffset: 0; stroke: #000000; stroke-width: 0.5"/>
     </g>
     <g id="line2d_56">
      <g>
       <use xlink:href="#md48ddb5c6e" x="357.430796" y="249.48" style="stroke: #000000; stroke-width: 0.5"/>
      </g>
     </g>
     <g id="line2d_57">
      <g>
       <use xlink:href="#m5985e1bdc2" x="357.430796" y="134.857358" style="stroke: #000000; stroke-width: 0.5"/>
      </g>
     </g>
     <g id="text_14">
      <!-- 700 -->
      <g transform="translate(346.630796 263.31475) scale(0.144 -0.144)">
       <defs>
        <path id="STIXGeneral-Regular-37" d="M 2874 4134 
L 1517 -51 
L 1101 -51 
L 2368 3763 
L 992 3763 
Q 717 3763 582 3667 
Q 448 3571 243 3238 
L 128 3296 
L 512 4237 
L 2874 4237 
L 2874 4134 
z
" transform="scale(0.015625)"/>
       </defs>
       <use xlink:href="#STIXGeneral-Regular-37"/>
       <use xlink:href="#STIXGeneral-Regular-30" transform="translate(49.999985 0)"/>
       <use xlink:href="#STIXGeneral-Regular-30" transform="translate(99.999969 0)"/>
      </g>
     </g>
    </g>
    <g id="xtick_9">
     <g id="line2d_58">
      <path d="M 514.174159 249.48 
L 514.174159 134.857358 
" clip-path="url(#pe5ab4c89d0)" style="fill: none; stroke-dasharray: 1,3; stroke-dashoffset: 0; stroke: #000000; stroke-width: 0.5"/>
     </g>
     <g id="line2d_59">
      <g>
       <use xlink:href="#md48ddb5c6e" x="514.174159" y="249.48" style="stroke: #000000; stroke-width: 0.5"/>
      </g>
     </g>
     <g id="line2d_60">
      <g>
       <use xlink:href="#m5985e1bdc2" x="514.174159" y="134.857358" style="stroke: #000000; stroke-width: 0.5"/>
      </g>
     </g>
     <g id="text_15">
      <!-- 750 -->
      <g transform="translate(503.374159 263.31475) scale(0.144 -0.144)">
       <use xlink:href="#STIXGeneral-Regular-37"/>
       <use xlink:href="#STIXGeneral-Regular-35" transform="translate(49.999985 0)"/>
       <use xlink:href="#STIXGeneral-Regular-30" transform="translate(99.999969 0)"/>
      </g>
     </g>
    </g>
    <g id="xtick_10">
     <g id="line2d_61">
      <path d="M 670.917522 249.48 
L 670.917522 134.857358 
" clip-path="url(#pe5ab4c89d0)" style="fill: none; stroke-dasharray: 1,3; stroke-dashoffset: 0; stroke: #000000; stroke-width: 0.5"/>
     </g>
     <g id="line2d_62">
      <g>
       <use xlink:href="#md48ddb5c6e" x="670.917522" y="249.48" style="stroke: #000000; stroke-width: 0.5"/>
      </g>
     </g>
     <g id="line2d_63">
      <g>
       <use xlink:href="#m5985e1bdc2" x="670.917522" y="134.857358" style="stroke: #000000; stroke-width: 0.5"/>
      </g>
     </g>
     <g id="text_16">
      <!-- 800 -->
      <g transform="translate(660.117522 263.31475) scale(0.144 -0.144)">
       <use xlink:href="#STIXGeneral-Regular-38"/>
       <use xlink:href="#STIXGeneral-Regular-30" transform="translate(49.999985 0)"/>
       <use xlink:href="#STIXGeneral-Regular-30" transform="translate(99.999969 0)"/>
      </g>
     </g>
    </g>
    <g id="text_17">
     <!-- time [hours] -->
     <g transform="translate(336.9125 282.3675) scale(0.16 -0.16)">
      <defs>
       <path id="STIXGeneral-Regular-74" d="M 1702 493 
L 1786 422 
Q 1478 -64 1011 -64 
Q 448 -64 448 749 
L 448 2675 
L 109 2675 
Q 83 2694 83 2720 
Q 83 2771 192 2842 
Q 435 2982 813 3526 
Q 826 3546 874 3606 
Q 922 3667 941 3706 
Q 986 3706 986 3622 
L 986 2880 
L 1632 2880 
L 1632 2675 
L 986 2675 
L 986 845 
Q 986 538 1062 403 
Q 1139 269 1318 269 
Q 1510 269 1702 493 
z
" transform="scale(0.015625)"/>
       <path id="STIXGeneral-Regular-69" d="M 1152 4045 
Q 1152 3904 1056 3811 
Q 960 3718 819 3718 
Q 685 3718 592 3811 
Q 499 3904 499 4045 
Q 499 4179 595 4275 
Q 691 4371 826 4371 
Q 966 4371 1059 4275 
Q 1152 4179 1152 4045 
z
M 1619 0 
L 102 0 
L 102 96 
Q 435 115 521 211 
Q 608 307 608 666 
L 608 2118 
Q 608 2342 563 2432 
Q 518 2522 397 2522 
Q 243 2522 128 2490 
L 128 2592 
L 1120 2944 
L 1146 2918 
L 1146 672 
Q 1146 314 1226 218 
Q 1306 122 1619 96 
L 1619 0 
z
" transform="scale(0.015625)"/>
       <path id="STIXGeneral-Regular-6d" d="M 4960 0 
L 3565 0 
L 3565 96 
Q 3834 122 3907 208 
Q 3981 294 3981 576 
L 3981 1894 
Q 3981 2278 3869 2444 
Q 3757 2611 3488 2611 
Q 3264 2611 3107 2521 
Q 2950 2432 2803 2221 
L 2803 608 
Q 2803 301 2896 201 
Q 2989 102 3264 96 
L 3264 0 
L 1830 0 
L 1830 96 
Q 2112 115 2189 188 
Q 2266 262 2266 550 
L 2266 1901 
Q 2266 2611 1850 2611 
Q 1670 2611 1468 2531 
Q 1267 2451 1171 2336 
Q 1088 2240 1088 2227 
L 1088 448 
Q 1088 243 1177 176 
Q 1267 109 1523 96 
L 1523 0 
L 102 0 
L 102 96 
Q 371 102 460 195 
Q 550 288 550 563 
L 550 2150 
Q 550 2387 499 2480 
Q 448 2573 326 2573 
Q 230 2573 122 2547 
L 122 2656 
Q 557 2778 1011 2944 
L 1062 2925 
L 1062 2451 
L 1075 2451 
Q 1363 2752 1584 2848 
Q 1805 2944 2054 2944 
Q 2560 2944 2733 2406 
Q 3232 2944 3776 2944 
Q 4518 2944 4518 1792 
L 4518 493 
Q 4518 282 4582 202 
Q 4646 122 4794 109 
L 4960 96 
L 4960 0 
z
" transform="scale(0.015625)"/>
       <path id="STIXGeneral-Regular-65" d="M 2611 1050 
L 2714 1005 
Q 2330 -64 1376 -64 
Q 813 -64 486 329 
Q 160 723 160 1389 
Q 160 2074 525 2509 
Q 890 2944 1485 2944 
Q 2061 2944 2374 2502 
Q 2560 2246 2592 1773 
L 621 1773 
Q 646 1370 700 1158 
Q 755 947 915 730 
Q 1184 378 1626 378 
Q 1939 378 2153 531 
Q 2368 685 2611 1050 
z
M 634 1978 
L 1939 1978 
Q 1882 2381 1750 2547 
Q 1619 2714 1312 2714 
Q 1043 2714 864 2525 
Q 685 2336 634 1978 
z
" transform="scale(0.015625)"/>
       <path id="STIXGeneral-Regular-68" d="M 3117 0 
L 1760 0 
L 1760 96 
Q 2042 128 2118 224 
Q 2195 320 2195 653 
L 2195 1920 
Q 2195 2598 1722 2598 
Q 1530 2598 1370 2508 
Q 1210 2419 1005 2195 
L 1005 653 
Q 1005 320 1081 224 
Q 1158 128 1440 96 
L 1440 0 
L 58 0 
L 58 96 
Q 333 134 400 224 
Q 467 314 467 653 
L 467 3667 
Q 467 3872 406 3933 
Q 346 3994 141 3994 
Q 83 3994 64 3987 
L 64 4090 
L 237 4141 
Q 730 4288 973 4371 
L 1005 4352 
L 1005 2406 
Q 1229 2694 1446 2819 
Q 1664 2944 1946 2944 
Q 2733 2944 2733 1926 
L 2733 653 
Q 2733 320 2793 233 
Q 2854 147 3117 96 
L 3117 0 
z
" transform="scale(0.015625)"/>
       <path id="STIXGeneral-Regular-6f" d="M 3008 1478 
Q 3008 806 2608 371 
Q 2208 -64 1568 -64 
Q 979 -64 582 368 
Q 186 800 186 1459 
Q 186 2125 582 2534 
Q 979 2944 1626 2944 
Q 2221 2944 2614 2537 
Q 3008 2131 3008 1478 
z
M 2432 1306 
Q 2432 2035 2112 2445 
Q 1856 2765 1504 2765 
Q 1171 2765 966 2493 
Q 762 2221 762 1747 
Q 762 928 1101 435 
Q 1318 115 1677 115 
Q 2029 115 2230 432 
Q 2432 749 2432 1306 
z
" transform="scale(0.015625)"/>
       <path id="STIXGeneral-Regular-75" d="M 3072 320 
L 3072 230 
Q 2573 96 2195 -58 
L 2163 -38 
L 2163 486 
L 2150 486 
Q 1747 -64 1235 -64 
Q 870 -64 662 160 
Q 454 384 454 755 
L 454 2362 
Q 454 2598 371 2688 
Q 288 2778 58 2790 
L 58 2880 
L 992 2880 
L 992 813 
Q 992 595 1123 451 
Q 1254 307 1446 307 
Q 1760 307 1984 506 
Q 2067 582 2099 649 
Q 2131 717 2131 877 
L 2131 2355 
Q 2131 2605 2041 2678 
Q 1952 2752 1658 2771 
L 1658 2880 
L 2669 2880 
L 2669 685 
Q 2669 461 2742 390 
Q 2816 320 3034 320 
L 3072 320 
z
" transform="scale(0.015625)"/>
       <path id="STIXGeneral-Regular-72" d="M 1024 2931 
L 1024 2342 
Q 1267 2688 1430 2816 
Q 1594 2944 1792 2944 
Q 1958 2944 2051 2854 
Q 2144 2765 2144 2605 
Q 2144 2470 2077 2393 
Q 2010 2317 1894 2317 
Q 1773 2317 1638 2445 
Q 1536 2541 1472 2541 
Q 1338 2541 1181 2355 
Q 1024 2170 1024 2016 
L 1024 576 
Q 1024 301 1133 205 
Q 1242 109 1568 96 
L 1568 0 
L 32 0 
L 32 96 
Q 339 154 412 224 
Q 486 294 486 538 
L 486 2138 
Q 486 2349 438 2435 
Q 390 2522 269 2522 
Q 166 2522 45 2496 
L 45 2598 
Q 448 2726 992 2944 
L 1024 2931 
z
" transform="scale(0.015625)"/>
       <path id="STIXGeneral-Regular-73" d="M 998 1926 
L 1664 1523 
Q 1984 1331 2105 1164 
Q 2227 998 2227 736 
Q 2227 416 1961 176 
Q 1696 -64 1331 -64 
Q 1030 -64 864 -6 
Q 691 51 570 51 
Q 461 51 416 -26 
L 333 -26 
L 333 979 
L 435 979 
Q 538 512 730 294 
Q 922 77 1248 77 
Q 1485 77 1632 211 
Q 1779 346 1779 550 
Q 1779 845 1440 1030 
L 1094 1222 
Q 326 1651 326 2150 
Q 326 2522 566 2730 
Q 806 2938 1210 2938 
Q 1491 2938 1638 2867 
Q 1754 2816 1818 2816 
Q 1862 2816 1920 2880 
L 1990 2880 
L 2022 2010 
L 1926 2010 
Q 1818 2445 1654 2621 
Q 1491 2797 1203 2797 
Q 986 2797 854 2688 
Q 723 2579 723 2362 
Q 723 2253 796 2128 
Q 870 2003 998 1926 
z
" transform="scale(0.015625)"/>
      </defs>
      <use xlink:href="#STIXGeneral-Regular-74"/>
      <use xlink:href="#STIXGeneral-Regular-69" transform="translate(27.799988 0)"/>
      <use xlink:href="#STIXGeneral-Regular-6d" transform="translate(55.599976 0)"/>
      <use xlink:href="#STIXGeneral-Regular-65" transform="translate(133.399963 0)"/>
      <use xlink:href="#STIXGeneral-Regular-20" transform="translate(177.799957 0)"/>
      <use xlink:href="#STIXGeneral-Regular-5b" transform="translate(202.799942 0)"/>
      <use xlink:href="#STIXGeneral-Regular-68" transform="translate(236.09993 0)"/>
      <use xlink:href="#STIXGeneral-Regular-6f" transform="translate(286.099915 0)"/>
      <use xlink:href="#STIXGeneral-Regular-75" transform="translate(336.099899 0)"/>
      <use xlink:href="#STIXGeneral-Regular-72" transform="translate(386.099884 0)"/>
      <use xlink:href="#STIXGeneral-Regular-73" transform="translate(419.399872 0)"/>
      <use xlink:href="#STIXGeneral-Regular-5d" transform="translate(458.299866 0)"/>
     </g>
    </g>
   </g>
   <g id="matplotlib.axis_4">
    <g id="ytick_11">
     <g id="line2d_64">
      <path d="M 22 249.48 
L 730.48 249.48 
" clip-path="url(#pe5ab4c89d0)" style="fill: none; stroke-dasharray: 1,3; stroke-dashoffset: 0; stroke: #000000; stroke-width: 0.5"/>
     </g>
     <g id="line2d_65">
      <g>
       <use xlink:href="#mcbd0fad9dd" x="22" y="249.48" style="stroke: #000000; stroke-width: 0.5"/>
      </g>
     </g>
     <g id="line2d_66">
      <g>
       <use xlink:href="#m852b44a6bc" x="730.48" y="249.48" style="stroke: #000000; stroke-width: 0.5"/>
      </g>
     </g>
     <g id="text_18">
      <!-- 0.0 -->
      <g transform="translate(-0 252.83475) scale(0.144 -0.144)">
       <defs>
        <path id="STIXGeneral-Regular-2e" d="M 1158 275 
Q 1158 134 1052 32 
Q 947 -70 800 -70 
Q 653 -70 550 32 
Q 448 134 448 281 
Q 448 429 553 534 
Q 659 640 806 640 
Q 947 640 1052 531 
Q 1158 422 1158 275 
z
" transform="scale(0.015625)"/>
       </defs>
       <use xlink:href="#STIXGeneral-Regular-30"/>
       <use xlink:href="#STIXGeneral-Regular-2e" transform="translate(49.999985 0)"/>
       <use xlink:href="#STIXGeneral-Regular-30" transform="translate(74.999969 0)"/>
      </g>
     </g>
    </g>
    <g id="ytick_12">
     <g id="line2d_67">
      <path d="M 22 235.15217 
L 730.48 235.15217 
" clip-path="url(#pe5ab4c89d0)" style="fill: none; stroke-dasharray: 1,3; stroke-dashoffset: 0; stroke: #000000; stroke-width: 0.5"/>
     </g>
     <g id="line2d_68">
      <g>
       <use xlink:href="#mcbd0fad9dd" x="22" y="235.15217" style="stroke: #000000; stroke-width: 0.5"/>
      </g>
     </g>
     <g id="line2d_69">
      <g>
       <use xlink:href="#m852b44a6bc" x="730.48" y="235.15217" style="stroke: #000000; stroke-width: 0.5"/>
      </g>
     </g>
     <g id="text_19">
      <!-- 0.2 -->
      <g transform="translate(-0 238.50692) scale(0.144 -0.144)">
       <use xlink:href="#STIXGeneral-Regular-30"/>
       <use xlink:href="#STIXGeneral-Regular-2e" transform="translate(49.999985 0)"/>
       <use xlink:href="#STIXGeneral-Regular-32" transform="translate(74.999969 0)"/>
      </g>
     </g>
    </g>
    <g id="ytick_13">
     <g id="line2d_70">
      <path d="M 22 220.82434 
L 730.48 220.82434 
" clip-path="url(#pe5ab4c89d0)" style="fill: none; stroke-dasharray: 1,3; stroke-dashoffset: 0; stroke: #000000; stroke-width: 0.5"/>
     </g>
     <g id="line2d_71">
      <g>
       <use xlink:href="#mcbd0fad9dd" x="22" y="220.82434" style="stroke: #000000; stroke-width: 0.5"/>
      </g>
     </g>
     <g id="line2d_72">
      <g>
       <use xlink:href="#m852b44a6bc" x="730.48" y="220.82434" style="stroke: #000000; stroke-width: 0.5"/>
      </g>
     </g>
     <g id="text_20">
      <!-- 0.4 -->
      <g transform="translate(-0 224.17909) scale(0.144 -0.144)">
       <use xlink:href="#STIXGeneral-Regular-30"/>
       <use xlink:href="#STIXGeneral-Regular-2e" transform="translate(49.999985 0)"/>
       <use xlink:href="#STIXGeneral-Regular-34" transform="translate(74.999969 0)"/>
      </g>
     </g>
    </g>
    <g id="ytick_14">
     <g id="line2d_73">
      <path d="M 22 206.496509 
L 730.48 206.496509 
" clip-path="url(#pe5ab4c89d0)" style="fill: none; stroke-dasharray: 1,3; stroke-dashoffset: 0; stroke: #000000; stroke-width: 0.5"/>
     </g>
     <g id="line2d_74">
      <g>
       <use xlink:href="#mcbd0fad9dd" x="22" y="206.496509" style="stroke: #000000; stroke-width: 0.5"/>
      </g>
     </g>
     <g id="line2d_75">
      <g>
       <use xlink:href="#m852b44a6bc" x="730.48" y="206.496509" style="stroke: #000000; stroke-width: 0.5"/>
      </g>
     </g>
     <g id="text_21">
      <!-- 0.6 -->
      <g transform="translate(-0 209.851259) scale(0.144 -0.144)">
       <use xlink:href="#STIXGeneral-Regular-30"/>
       <use xlink:href="#STIXGeneral-Regular-2e" transform="translate(49.999985 0)"/>
       <use xlink:href="#STIXGeneral-Regular-36" transform="translate(74.999969 0)"/>
      </g>
     </g>
    </g>
    <g id="ytick_15">
     <g id="line2d_76">
      <path d="M 22 192.168679 
L 730.48 192.168679 
" clip-path="url(#pe5ab4c89d0)" style="fill: none; stroke-dasharray: 1,3; stroke-dashoffset: 0; stroke: #000000; stroke-width: 0.5"/>
     </g>
     <g id="line2d_77">
      <g>
       <use xlink:href="#mcbd0fad9dd" x="22" y="192.168679" style="stroke: #000000; stroke-width: 0.5"/>
      </g>
     </g>
     <g id="line2d_78">
      <g>
       <use xlink:href="#m852b44a6bc" x="730.48" y="192.168679" style="stroke: #000000; stroke-width: 0.5"/>
      </g>
     </g>
     <g id="text_22">
      <!-- 0.8 -->
      <g transform="translate(-0 195.523429) scale(0.144 -0.144)">
       <use xlink:href="#STIXGeneral-Regular-30"/>
       <use xlink:href="#STIXGeneral-Regular-2e" transform="translate(49.999985 0)"/>
       <use xlink:href="#STIXGeneral-Regular-38" transform="translate(74.999969 0)"/>
      </g>
     </g>
    </g>
    <g id="ytick_16">
     <g id="line2d_79">
      <path d="M 22 177.840849 
L 730.48 177.840849 
" clip-path="url(#pe5ab4c89d0)" style="fill: none; stroke-dasharray: 1,3; stroke-dashoffset: 0; stroke: #000000; stroke-width: 0.5"/>
     </g>
     <g id="line2d_80">
      <g>
       <use xlink:href="#mcbd0fad9dd" x="22" y="177.840849" style="stroke: #000000; stroke-width: 0.5"/>
      </g>
     </g>
     <g id="line2d_81">
      <g>
       <use xlink:href="#m852b44a6bc" x="730.48" y="177.840849" style="stroke: #000000; stroke-width: 0.5"/>
      </g>
     </g>
     <g id="text_23">
      <!-- 1.0 -->
      <g transform="translate(-0 181.195599) scale(0.144 -0.144)">
       <use xlink:href="#STIXGeneral-Regular-31"/>
       <use xlink:href="#STIXGeneral-Regular-2e" transform="translate(49.999985 0)"/>
       <use xlink:href="#STIXGeneral-Regular-30" transform="translate(74.999969 0)"/>
      </g>
     </g>
    </g>
    <g id="ytick_17">
     <g id="line2d_82">
      <path d="M 22 163.513019 
L 730.48 163.513019 
" clip-path="url(#pe5ab4c89d0)" style="fill: none; stroke-dasharray: 1,3; stroke-dashoffset: 0; stroke: #000000; stroke-width: 0.5"/>
     </g>
     <g id="line2d_83">
      <g>
       <use xlink:href="#mcbd0fad9dd" x="22" y="163.513019" style="stroke: #000000; stroke-width: 0.5"/>
      </g>
     </g>
     <g id="line2d_84">
      <g>
       <use xlink:href="#m852b44a6bc" x="730.48" y="163.513019" style="stroke: #000000; stroke-width: 0.5"/>
      </g>
     </g>
     <g id="text_24">
      <!-- 1.2 -->
      <g transform="translate(-0 166.867769) scale(0.144 -0.144)">
       <use xlink:href="#STIXGeneral-Regular-31"/>
       <use xlink:href="#STIXGeneral-Regular-2e" transform="translate(49.999985 0)"/>
       <use xlink:href="#STIXGeneral-Regular-32" transform="translate(74.999969 0)"/>
      </g>
     </g>
    </g>
    <g id="ytick_18">
     <g id="line2d_85">
      <path d="M 22 149.185189 
L 730.48 149.185189 
" clip-path="url(#pe5ab4c89d0)" style="fill: none; stroke-dasharray: 1,3; stroke-dashoffset: 0; stroke: #000000; stroke-width: 0.5"/>
     </g>
     <g id="line2d_86">
      <g>
       <use xlink:href="#mcbd0fad9dd" x="22" y="149.185189" style="stroke: #000000; stroke-width: 0.5"/>
      </g>
     </g>
     <g id="line2d_87">
      <g>
       <use xlink:href="#m852b44a6bc" x="730.48" y="149.185189" style="stroke: #000000; stroke-width: 0.5"/>
      </g>
     </g>
     <g id="text_25">
      <!-- 1.4 -->
      <g transform="translate(-0 152.539939) scale(0.144 -0.144)">
       <use xlink:href="#STIXGeneral-Regular-31"/>
       <use xlink:href="#STIXGeneral-Regular-2e" transform="translate(49.999985 0)"/>
       <use xlink:href="#STIXGeneral-Regular-34" transform="translate(74.999969 0)"/>
      </g>
     </g>
    </g>
    <g id="ytick_19">
     <g id="line2d_88">
      <path d="M 22 134.857358 
L 730.48 134.857358 
" clip-path="url(#pe5ab4c89d0)" style="fill: none; stroke-dasharray: 1,3; stroke-dashoffset: 0; stroke: #000000; stroke-width: 0.5"/>
     </g>
     <g id="line2d_89">
      <g>
       <use xlink:href="#mcbd0fad9dd" x="22" y="134.857358" style="stroke: #000000; stroke-width: 0.5"/>
      </g>
     </g>
     <g id="line2d_90">
      <g>
       <use xlink:href="#m852b44a6bc" x="730.48" y="134.857358" style="stroke: #000000; stroke-width: 0.5"/>
      </g>
     </g>
     <g id="text_26">
      <!-- 1.6 -->
      <g transform="translate(-0 138.212108) scale(0.144 -0.144)">
       <use xlink:href="#STIXGeneral-Regular-31"/>
       <use xlink:href="#STIXGeneral-Regular-2e" transform="translate(49.999985 0)"/>
       <use xlink:href="#STIXGeneral-Regular-36" transform="translate(74.999969 0)"/>
      </g>
     </g>
    </g>
   </g>
   <g id="legend_2">
    <g id="patch_13">
     <path d="M 28 243.48 
L 103.84 243.48 
L 103.84 222.875625 
L 28 222.875625 
z
" style="fill: #ffffff; stroke: #000000; stroke-linejoin: miter"/>
    </g>
    <g id="line2d_91">
     <path d="M 36.4 231.875625 
L 53.2 231.875625 
" style="fill: none; stroke-dasharray: 6,0; stroke-dashoffset: 0; stroke: #ff7f0e; stroke-width: 1.5"/>
    </g>
    <g id="text_27">
     <!-- $Q_{11}$ [-] -->
     <g transform="translate(66.4 236.075625) scale(0.12 -0.12)">
      <defs>
       <path id="STIXGeneral-Italic-51" d="M 442 -1082 
L 378 -979 
Q 749 -717 912 -589 
Q 1075 -461 1510 -77 
Q 966 32 675 425 
Q 384 819 384 1440 
Q 384 2035 678 2624 
Q 973 3213 1491 3661 
Q 2202 4262 3034 4262 
Q 3680 4262 4077 3833 
Q 4474 3405 4474 2746 
Q 4474 1997 4019 1277 
Q 3565 557 2835 173 
Q 2400 -64 1786 -102 
L 1440 -467 
L 1600 -467 
Q 1824 -467 2387 -595 
Q 2938 -730 3098 -730 
Q 3443 -730 3673 -624 
Q 3904 -518 4173 -237 
L 4275 -307 
Q 4122 -525 3942 -685 
Q 3411 -1165 2720 -1165 
Q 2298 -1165 1773 -998 
Q 1421 -883 1178 -883 
Q 800 -883 442 -1082 
z
M 3802 3072 
Q 3802 3526 3581 3788 
Q 3360 4051 2976 4051 
Q 2272 4051 1734 3251 
Q 1446 2822 1251 2230 
Q 1056 1638 1056 1171 
Q 1056 691 1273 400 
Q 1491 109 1850 109 
Q 2579 109 3117 902 
Q 3411 1350 3606 1964 
Q 3802 2579 3802 3072 
z
" transform="scale(0.015625)"/>
      </defs>
      <use xlink:href="#STIXGeneral-Italic-51" transform="translate(0 0.40625)"/>
      <use xlink:href="#STIXGeneral-Regular-31" transform="translate(72.199982 -12.821875) scale(0.7)"/>
      <use xlink:href="#STIXGeneral-Regular-31" transform="translate(107.199971 -12.821875) scale(0.7)"/>
      <use xlink:href="#STIXGeneral-Regular-20" transform="translate(146.609335 0.40625)"/>
      <use xlink:href="#STIXGeneral-Regular-5b" transform="translate(171.60932 0.40625)"/>
      <use xlink:href="#STIXGeneral-Regular-2d" transform="translate(204.909308 0.40625)"/>
      <use xlink:href="#STIXGeneral-Regular-5d" transform="translate(238.209296 0.40625)"/>
     </g>
    </g>
   </g>
  </g>
 </g>
 <defs>
  <clipPath id="p8f3c46470e">
   <rect x="22" y="6.48" width="708.48" height="114.622642"/>
  </clipPath>
  <clipPath id="pe5ab4c89d0">
   <rect x="22" y="134.857358" width="708.48" height="114.622642"/>
  </clipPath>
 </defs>
</svg>
