<?xml version="1.0" encoding="utf-8" standalone="no"?>
<!DOCTYPE svg PUBLIC "-//W3C//DTD SVG 1.1//EN"
  "http://www.w3.org/Graphics/SVG/1.1/DTD/svg11.dtd">
<svg xmlns:xlink="http://www.w3.org/1999/xlink" width="729.544pt" height="217.815pt" viewBox="0 0 729.544 217.815" xmlns="http://www.w3.org/2000/svg" version="1.1">
 <metadata>
  <rdf:RDF xmlns:dc="http://purl.org/dc/elements/1.1/" xmlns:cc="http://creativecommons.org/ns#" xmlns:rdf="http://www.w3.org/1999/02/22-rdf-syntax-ns#">
   <cc:Work>
    <dc:type rdf:resource="http://purl.org/dc/dcmitype/StillImage"/>
    <dc:date>2026-03-09T16:56:59.492432</dc:date>
    <dc:format>image/svg+xml</dc:format>
    <dc:creator>
     <cc:Agent>
      <dc:title>Matplotlib v3.10.8, https://matplotlib.org/</dc:title>
     </cc:Agent>
    </dc:creator>
   </cc:Work>
  </rdf:RDF>
 </metadata>
 <defs>
  <style type="text/css">*{stroke-linejoin: round; stroke-linecap: butt}</style>
 </defs>
 <g id="figure_1">
  <g id="patch_1">
   <path d="M 0 217.815 
L 729.544 217.815 
L 729.544 0 
L 0 0 
z
" style="fill: #ffffff"/>
  </g>
  <g id="axes_1">
   <g id="patch_2">
    <path d="M 21.064 181.44 
L 729.544 181.44 
L 729.544 6.48 
L 21.064 6.48 
z
" style="fill: #ffffff"/>
   </g>
   <g id="line2d_1">
    <path d="M 28.009882 167.064977 
L 28.228547 167.133481 
L 28.447212 166.864886 
L 28.720542 166.056788 
L 29.103206 164.054372 
L 29.595201 160.029313 
L 30.196529 153.023435 
L 30.961855 141.157497 
L 31.945846 122.072109 
L 33.749829 81.618572 
L 35.225816 50.628365 
L 36.15514 35.304137 
L 36.8658 26.78257 
L 37.412462 22.419169 
L 37.849791 20.401424 
L 38.177788 19.774785 
L 38.341787 19.749591 
L 38.560451 20.015317 
L 38.833782 20.826802 
L 39.216445 22.846809 
L 39.708441 26.915872 
L 40.309768 34.006259 
L 41.075095 46.023117 
L 42.059086 65.358813 
L 43.863069 106.352961 
L 45.339055 137.760608 
L 46.26838 153.292553 
L 46.97904 161.931105 
L 47.525702 166.35607 
L 47.963031 168.404137 
L 48.291028 169.042217 
L 48.455026 169.069482 
L 48.673691 168.802744 
L 48.947022 167.983984 
L 49.329685 165.942783 
L 49.82168 161.828319 
L 50.423008 154.656696 
L 51.188334 142.500804 
L 52.172325 122.941667 
L 53.976309 81.481073 
L 55.452295 49.726318 
L 56.38162 34.028004 
L 57.09228 25.299804 
L 57.638941 20.830784 
L 58.076271 18.763794 
L 58.404268 18.121153 
L 58.568266 18.094693 
L 58.786931 18.365672 
L 59.060262 19.194753 
L 59.442925 21.259521 
L 59.93492 25.419147 
L 60.536248 32.666704 
L 61.301574 44.947226 
L 62.285565 64.700028 
L 64.089548 106.549376 
L 65.565535 138.580403 
L 66.494859 154.404606 
L 67.205519 163.196357 
L 67.752181 167.693172 
L 68.18951 169.768842 
L 68.517507 170.410107 
L 68.681506 170.43338 
L 68.90017 170.155606 
L 69.173501 169.314031 
L 69.556164 167.224581 
L 70.04816 163.021681 
L 70.649488 155.705505 
L 71.414814 143.317205 
L 72.398805 123.403253 
L 74.257454 79.96154 
L 75.73344 47.956386 
L 76.662765 32.308328 
L 77.373425 23.724348 
L 77.920087 19.423152 
L 78.357416 17.521969 
L 78.630747 17.048097 
L 78.794745 17.029879 
L 79.01341 17.316302 
L 79.286741 18.171654 
L 79.669404 20.285628 
L 80.161399 24.528261 
L 80.762727 31.903762 
L 81.528053 44.380634 
L 82.512044 64.420673 
L 84.370694 108.093168 
L 85.84668 140.230906 
L 86.776005 155.925754 
L 87.486665 164.524072 
L 88.033327 168.823661 
L 88.470656 170.715979 
L 88.743987 171.181077 
L 88.907985 171.192897 
L 89.12665 170.896685 
L 89.399981 170.027182 
L 89.782644 167.890122 
L 90.274639 163.612931 
L 90.875967 156.189334 
L 91.641293 143.645341 
L 92.625284 123.516612 
L 94.483934 79.701336 
L 95.95992 47.500265 
L 96.889245 31.794418 
L 97.599905 23.202625 
L 98.146566 18.916085 
L 98.583896 17.038633 
L 98.857226 16.584576 
L 99.021225 16.579955 
L 99.239889 16.886371 
L 99.51322 17.769487 
L 99.895883 19.926919 
L 100.387879 24.23188 
L 100.989207 31.690478 
L 101.754533 44.278023 
L 102.738524 64.455941 
L 104.651839 109.614758 
L 106.07316 140.521073 
L 107.002484 156.204059 
L 107.713144 164.770374 
L 108.259806 169.03408 
L 108.697135 170.89207 
L 108.970466 171.333719 
L 109.134465 171.330884 
L 109.353129 171.01458 
L 109.62646 170.1193 
L 110.009123 167.945472 
L 110.501119 163.621098 
L 111.102446 156.142384 
L 111.867773 143.536825 
L 112.851763 123.351081 
L 114.765079 78.231404 
L 116.186399 47.39357 
L 117.115724 31.765154 
L 117.826384 23.241239 
L 118.373046 19.008433 
L 118.810375 17.173066 
L 119.083706 16.74428 
L 119.247704 16.754281 
L 119.466369 17.079429 
L 119.7397 17.984521 
L 120.122363 20.169531 
L 120.614358 24.503441 
L 121.215686 31.985691 
L 121.981012 44.581915 
L 122.965003 64.732529 
L 124.932985 110.998627 
L 126.299639 140.427927 
L 127.228964 155.972414 
L 127.939624 164.439145 
L 128.486285 168.634754 
L 128.923615 170.445791 
L 129.196945 170.862171 
L 129.360944 170.845838 
L 129.579609 170.513611 
L 129.852939 169.601947 
L 130.235602 167.412172 
L 130.727598 163.080058 
L 131.328926 155.612441 
L 132.094252 143.054533 
L 133.078243 122.983327 
L 135.100891 75.683317 
L 136.467545 46.67296 
L 137.342203 32.267911 
L 138.052863 23.870922 
L 138.599525 19.717001 
L 139.036854 17.93054 
L 139.310185 17.525204 
L 139.474184 17.546493 
L 139.692848 17.883327 
L 139.966179 18.79746 
L 140.348842 20.984423 
L 140.840838 25.302033 
L 141.442165 32.735381 
L 142.207492 45.224547 
L 143.246149 66.375116 
L 147.182112 151.169642 
L 147.947438 161.293035 
L 148.548766 166.602494 
L 148.986096 168.880443 
L 149.314092 169.683182 
L 149.532757 169.781927 
L 149.696756 169.626431 
L 149.970086 168.931524 
L 150.298083 167.38589 
L 150.735413 164.14599 
L 151.282074 158.291025 
L 151.992734 147.955195 
L 152.867393 131.722596 
L 154.179381 102.666542 
L 156.47536 51.586533 
L 157.404684 35.672825 
L 158.115344 26.720767 
L 158.716672 21.690599 
L 159.154001 19.607926 
L 159.481998 18.944658 
L 159.700663 18.934696 
L 159.919328 19.270594 
L 160.192658 20.174058 
L 160.575322 22.328309 
L 161.067317 26.573714 
L 161.668645 33.87442 
L 162.433971 46.130068 
L 163.472628 66.868744 
L 167.353925 149.061239 
L 168.119252 159.21106 
L 168.720579 164.62232 
L 169.212575 167.2232 
L 169.540572 168.009689 
L 169.759237 168.107577 
L 169.923235 167.956725 
L 170.196566 167.279661 
L 170.524563 165.772066 
L 170.961892 162.610703 
L 171.508554 156.897008 
L 172.219214 146.810847 
L 173.093872 130.972185 
L 174.40586 102.626219 
L 176.701839 52.799698 
L 177.631164 37.270645 
L 178.341824 28.527827 
L 178.943151 23.60682 
L 179.380481 21.561199 
L 179.708478 20.901454 
L 179.927142 20.882136 
L 180.145807 21.199293 
L 180.419138 22.066185 
L 180.801801 24.145021 
L 181.293796 28.253228 
L 181.895124 35.328647 
L 182.66045 47.216971 
L 183.699107 67.34708 
L 187.635071 148.049705 
L 188.400397 157.707598 
L 189.001725 162.790834 
L 189.439054 164.988309 
L 189.767051 165.778959 
L 189.985716 165.892958 
L 190.149714 165.761184 
L 190.423045 165.129154 
L 190.751042 163.697138 
L 191.188371 160.672011 
L 191.735033 155.182398 
L 192.445693 145.467385 
L 193.320352 130.185034 
L 194.63234 102.793367 
L 196.928318 54.53875 
L 197.857643 39.451809 
L 198.622969 30.395428 
L 199.224297 25.777726 
L 199.661626 23.904278 
L 199.989623 23.344345 
L 200.153622 23.338313 
L 200.372286 23.614299 
L 200.645617 24.413319 
L 201.02828 26.367259 
L 201.520276 30.266054 
L 202.121604 37.017223 
L 202.88693 48.4007 
L 203.870921 66.627148 
L 205.838902 108.511429 
L 207.205556 135.202391 
L 208.134881 149.350448 
L 208.845541 157.10479 
L 209.392203 160.993433 
L 209.829532 162.71976 
L 210.102863 163.157689 
L 210.321528 163.150333 
L 210.540192 162.825285 
L 210.813523 161.975091 
L 211.196186 159.969156 
L 211.688182 156.038322 
L 212.289509 149.302203 
L 213.054836 138.023134 
L 214.093493 118.978385 
L 217.97479 43.723857 
L 218.740116 34.435054 
L 219.341444 29.473788 
L 219.83344 27.077855 
L 220.161437 26.342721 
L 220.380101 26.240511 
L 220.598766 26.448987 
L 220.872097 27.144404 
L 221.25476 28.918683 
L 221.746755 32.530734 
L 222.348083 38.855178 
L 223.113409 49.596343 
L 224.0974 66.888918 
L 225.901383 103.537112 
L 227.37737 131.624993 
L 228.306694 145.558761 
L 229.017355 153.361283 
L 229.618682 157.718817 
L 230.056012 159.502568 
L 230.384009 160.051919 
L 230.602673 160.039527 
L 230.821338 159.724493 
L 231.094669 158.907952 
L 231.477332 156.988208 
L 231.969327 153.233433 
L 232.570655 146.806578 
L 233.335981 136.05431 
L 234.374638 117.910988 
L 238.255936 46.247212 
L 239.021262 37.387486 
L 239.62259 32.644416 
L 240.114585 30.34221 
L 240.442582 29.62559 
L 240.661247 29.515947 
L 240.879911 29.701159 
L 241.153242 30.345361 
L 241.535905 32.007238 
L 242.027901 35.407323 
L 242.629228 41.376454 
L 243.394555 51.531284 
L 244.378546 67.901141 
L 246.182529 102.649698 
L 247.713181 130.219664 
L 248.642506 143.292246 
L 249.353166 150.564438 
L 249.899828 154.30317 
L 250.337157 156.05276 
L 250.665154 156.62001 
L 250.883819 156.640268 
L 251.102483 156.374322 
L 251.375814 155.641944 
L 251.758477 153.881519 
L 252.250473 150.39936 
L 252.8518 144.400417 
L 253.617127 134.320491 
L 254.655784 117.252026 
L 258.591747 48.64417 
L 259.357074 40.339704 
L 259.958401 35.912401 
L 260.450397 33.780249 
L 260.778394 33.130381 
L 260.997058 33.044017 
L 261.215723 33.23537 
L 261.489054 33.863086 
L 261.871717 35.457018 
L 262.363712 38.694371 
L 262.96504 44.354988 
L 263.730366 53.959966 
L 264.714357 69.41431 
L 266.518341 102.165967 
L 268.048993 128.127978 
L 268.978318 140.438373 
L 269.688978 147.291197 
L 270.290306 151.084444 
L 270.727635 152.609092 
L 271.055632 153.051578 
L 271.274297 153.010367 
L 271.492961 152.700674 
L 271.820958 151.736956 
L 272.258287 149.539052 
L 272.804949 145.387908 
L 273.460943 138.515725 
L 274.280935 127.453565 
L 275.428925 108.675428 
L 278.435564 57.969275 
L 279.310222 47.346667 
L 280.020882 41.205727 
L 280.567544 38.202298 
L 280.950207 37.041276 
L 281.223538 36.696958 
L 281.442202 36.714144 
L 281.660867 36.991044 
L 281.988864 37.889476 
L 282.371527 39.657012 
L 282.863523 43.025409 
L 283.519517 49.297344 
L 284.339509 59.614781 
L 285.432832 76.535607 
L 288.822134 131.305584 
L 289.642126 140.4119 
L 290.29812 145.568114 
L 290.844782 148.255053 
L 291.227445 149.221497 
L 291.500776 149.442211 
L 291.719441 149.336052 
L 291.992771 148.851331 
L 292.320768 147.759197 
L 292.758098 145.458164 
L 293.304759 141.2895 
L 294.015419 133.92053 
L 294.890078 122.335819 
L 296.202066 101.565546 
L 298.552711 64.06529 
L 299.536702 52.058674 
L 300.247362 45.746537 
L 300.848689 42.206453 
L 301.286019 40.742128 
L 301.614016 40.275457 
L 301.83268 40.267571 
L 302.051345 40.502054 
L 302.379342 41.304828 
L 302.762005 42.913531 
L 303.254 46.006808 
L 303.855328 51.248648 
L 304.620654 59.960925 
L 305.659312 74.59339 
L 309.540609 132.234391 
L 310.305935 139.413289 
L 310.907263 143.295208 
L 311.399258 145.219254 
L 311.781922 145.906957 
L 312.000586 145.978165 
L 312.219251 145.815138 
L 312.492582 145.283698 
L 312.875245 143.936609 
L 313.36724 141.202656 
L 313.968568 136.423424 
L 314.733894 128.312633 
L 315.717885 115.252767 
L 317.467202 88.357501 
L 319.052521 65.386149 
L 319.981846 54.804653 
L 320.747172 48.471135 
L 321.3485 45.248393 
L 321.785829 43.943213 
L 322.113826 43.554317 
L 322.33249 43.578065 
L 322.551155 43.827876 
L 322.879152 44.623046 
L 323.316481 46.452697 
L 323.863143 49.924109 
L 324.519137 55.688125 
L 325.339129 64.990296 
L 326.487119 80.830276 
L 329.60309 125.277532 
L 330.477748 134.153512 
L 331.188408 139.250018 
L 331.73507 141.714899 
L 332.117733 142.64559 
L 332.391064 142.901429 
L 332.609729 142.859519 
L 332.883059 142.499681 
L 333.211056 141.621317 
L 333.648386 139.709422 
L 334.195047 136.182755 
L 334.851041 130.422967 
L 335.7257 120.552389 
L 336.928355 104.144162 
L 339.71633 65.271029 
L 340.645654 55.721838 
L 341.356314 50.483303 
L 341.902976 47.845782 
L 342.340305 46.662438 
L 342.668302 46.329253 
L 342.886967 46.372925 
L 343.160298 46.725852 
L 343.488295 47.582739 
L 343.925624 49.444254 
L 344.472285 52.874884 
L 345.128279 58.475685 
L 346.002938 68.073354 
L 347.205594 84.032859 
L 349.993568 121.898061 
L 350.922892 131.225501 
L 351.633553 136.356161 
L 352.180214 138.95055 
L 352.617543 140.125034 
L 352.94554 140.466496 
L 353.164205 140.435344 
L 353.437536 140.10577 
L 353.765533 139.287867 
L 354.202862 137.495991 
L 354.749524 134.178395 
L 355.405518 128.745955 
L 356.280176 119.414456 
L 357.482832 103.859913 
L 360.325472 66.182098 
L 361.254797 57.147878 
L 361.965457 52.208114 
L 362.512118 49.735019 
L 362.949448 48.639382 
L 363.277445 48.345709 
L 363.496109 48.403128 
L 363.76944 48.759121 
L 364.097437 49.599218 
L 364.534766 51.40451 
L 365.081428 54.713242 
L 365.792088 60.611636 
L 366.666747 69.953788 
L 367.924068 86.108823 
L 370.548044 120.383733 
L 371.477369 129.512874 
L 372.188029 134.602251 
L 372.789357 137.428268 
L 373.226686 138.571765 
L 373.554683 138.910794 
L 373.773348 138.887778 
L 374.046678 138.579117 
L 374.374675 137.801587 
L 374.812005 136.088159 
L 375.358666 132.904861 
L 376.01466 127.679281 
L 376.889319 118.682196 
L 378.091974 103.644287 
L 380.989281 66.42642 
L 381.918605 57.725648 
L 382.629266 52.993586 
L 383.175927 50.647045 
L 383.613256 49.630182 
L 383.886587 49.392584 
L 384.105252 49.424508 
L 384.378583 49.741599 
L 384.70658 50.525351 
L 385.143909 52.240695 
L 385.69057 55.41677 
L 386.346564 60.621047 
L 387.221223 69.572131 
L 388.423879 84.524633 
L 391.321185 121.520985 
L 392.25051 130.166322 
L 392.96117 134.864138 
L 393.507831 137.189182 
L 393.945161 138.191726 
L 394.218492 138.42158 
L 394.437156 138.384085 
L 394.710487 138.060751 
L 395.038484 137.270475 
L 395.475813 135.547854 
L 396.022475 132.364515 
L 396.678469 127.153373 
L 397.553127 118.194625 
L 398.755783 103.231308 
L 401.653089 66.204153 
L 402.582414 57.554278 
L 403.293074 52.85844 
L 403.839736 50.539333 
L 404.277065 49.54485 
L 404.550396 49.321687 
L 404.769061 49.365509 
L 405.042391 49.698016 
L 405.370388 50.501217 
L 405.807718 52.244413 
L 406.354379 55.458906 
L 407.010373 60.715228 
L 407.885032 69.746181 
L 409.087687 84.825169 
L 411.984994 122.121946 
L 412.914318 130.823029 
L 413.624979 135.537106 
L 414.17164 137.855878 
L 414.608969 138.840396 
L 414.8823 139.0528 
L 415.100965 138.997828 
L 415.374296 138.648195 
L 415.702293 137.819786 
L 416.139622 136.035222 
L 416.686283 132.757081 
L 417.342277 127.408412 
L 418.216936 118.232021 
L 419.419592 102.927443 
L 422.262232 65.739222 
L 423.191557 56.800326 
L 423.902217 51.917336 
L 424.448878 49.483207 
L 424.886208 48.418608 
L 425.214205 48.149489 
L 425.432869 48.224372 
L 425.7062 48.603878 
L 426.034197 49.47529 
L 426.471526 51.328866 
L 427.018188 54.710715 
L 427.728848 60.729062 
L 428.603506 70.261125 
L 429.860828 86.765717 
L 432.484804 121.872868 
L 433.414129 131.22582 
L 434.124789 136.422481 
L 434.67145 139.084538 
L 435.10878 140.317744 
L 435.436777 140.703049 
L 435.655441 140.699987 
L 435.928772 140.403271 
L 436.256769 139.620099 
L 436.694098 137.863686 
L 437.24076 134.567628 
L 437.896754 129.119229 
L 438.716746 120.334802 
L 439.864736 105.350615 
L 443.035373 62.382787 
L 443.910031 54.007726 
L 444.566025 49.54221 
L 445.112687 47.165436 
L 445.49535 46.271701 
L 445.768681 46.031262 
L 445.987346 46.07962 
L 446.260676 46.441026 
L 446.588673 47.313157 
L 447.026003 49.206096 
L 447.572664 52.698395 
L 448.228658 58.412827 
L 449.103317 68.238388 
L 450.305972 84.655224 
L 453.148613 124.578727 
L 454.077937 134.146666 
L 454.788597 139.345481 
L 455.335259 141.910052 
L 455.772588 143.003776 
L 456.045919 143.243137 
L 456.264584 143.186372 
L 456.537915 142.805033 
L 456.865911 141.895279 
L 457.303241 139.929438 
L 457.849902 136.311179 
L 458.505896 130.399106 
L 459.380555 120.244652 
L 460.58321 103.296463 
L 463.425851 62.179192 
L 464.355175 52.368718 
L 465.065836 47.063815 
L 465.612497 44.46946 
L 465.99516 43.47181 
L 466.268491 43.182794 
L 466.487156 43.208061 
L 466.70582 43.461605 
L 467.033817 44.267878 
L 467.471147 46.125695 
L 468.017808 49.659829 
L 468.673802 55.548646 
L 469.493795 65.094438 
L 470.641784 81.445331 
L 473.867087 129.170272 
L 474.741746 138.172701 
L 475.39774 142.900286 
L 475.944401 145.346531 
L 476.327065 146.205808 
L 476.600395 146.379561 
L 476.81906 146.252802 
L 477.092391 145.762523 
L 477.475054 144.462399 
L 477.967049 141.764446 
L 478.568377 136.98126 
L 479.279037 129.429395 
L 480.208362 117.020389 
L 481.684348 93.770749 
L 483.65233 63.325851 
L 484.636321 51.483256 
L 485.346981 45.239351 
L 485.948309 41.738054 
L 486.385638 40.298564 
L 486.713635 39.852162 
L 486.9323 39.859797 
L 487.150964 40.112161 
L 487.478961 40.947563 
L 487.861624 42.605564 
L 488.35362 45.78455 
L 488.954948 51.17247 
L 489.720274 60.146599 
L 490.758931 75.278445 
L 494.749561 136.758011 
L 495.514887 143.949381 
L 496.116215 147.697419 
L 496.553544 149.281805 
L 496.881541 149.81583 
L 497.100206 149.856048 
L 497.31887 149.642817 
L 497.592201 149.020885 
L 497.974864 147.494136 
L 498.46686 144.437026 
L 499.068187 139.122934 
L 499.833514 130.120318 
L 500.817505 115.61602 
L 502.566822 85.672382 
L 504.15214 60.058545 
L 505.081465 48.300585 
L 505.792125 41.738759 
L 506.393453 38.107568 
L 506.830782 36.657338 
L 507.158779 36.249612 
L 507.377444 36.305145 
L 507.596108 36.622875 
L 507.924105 37.588421 
L 508.361435 39.77356 
L 508.908096 43.892789 
L 509.56409 50.718508 
L 510.384083 61.73637 
L 511.532072 80.527471 
L 514.648043 133.317337 
L 515.522702 143.761273 
L 516.178696 149.291534 
L 516.725357 152.194572 
L 517.10802 153.250297 
L 517.381351 153.500086 
L 517.600016 153.395067 
L 517.873347 152.882904 
L 518.201344 151.713917 
L 518.638673 149.233378 
L 519.185334 144.713914 
L 519.895995 136.680562 
L 520.770653 123.97682 
L 522.027975 102.046178 
L 524.542618 57.53626 
L 525.471943 45.107283 
L 526.182603 38.217832 
L 526.729265 34.709733 
L 527.166594 33.107406 
L 527.494591 32.630771 
L 527.713255 32.662305 
L 527.93192 32.973721 
L 528.259917 33.96297 
L 528.64258 35.897374 
L 529.134576 39.578619 
L 529.79057 46.439142 
L 530.610562 57.753371 
L 531.703885 76.382287 
L 535.147853 137.924494 
L 535.967846 147.845411 
L 536.62384 153.353088 
L 537.115835 155.905296 
L 537.498498 156.906625 
L 537.771829 157.084057 
L 537.990494 156.901437 
L 538.263824 156.268235 
L 538.646488 154.6336 
L 539.138483 151.282771 
L 539.739811 145.383672 
L 540.505137 135.31103 
L 541.489128 118.995595 
L 543.183779 86.244104 
L 544.823764 56.155651 
L 545.753088 42.820363 
L 546.463749 35.371725 
L 547.065076 31.244391 
L 547.502406 29.591086 
L 547.775736 29.153141 
L 547.994401 29.136175 
L 548.213066 29.416111 
L 548.486396 30.181994 
L 548.86906 32.0212 
L 549.361055 35.662866 
L 549.962383 41.950292 
L 550.727709 52.548326 
L 551.7117 69.543872 
L 553.570349 106.596921 
L 555.046336 133.933067 
L 555.97566 147.325818 
L 556.686321 154.687859 
L 557.232982 158.385948 
L 557.670311 160.027127 
L 557.943642 160.440687 
L 558.162307 160.428984 
L 558.380972 160.112392 
L 558.654302 159.289743 
L 559.036965 157.351453 
L 559.528961 153.551061 
L 560.130289 147.027288 
L 560.895615 136.074426 
L 561.879606 118.566259 
L 563.792921 79.423104 
L 565.214242 52.615224 
L 566.143566 39.000177 
L 566.854226 31.562072 
L 567.400888 27.863832 
L 567.838217 26.25914 
L 568.111548 25.884581 
L 568.275547 25.893998 
L 568.494211 26.180034 
L 568.767542 26.975445 
L 569.150205 28.896303 
L 569.642201 32.709874 
L 570.243528 39.303175 
L 571.008855 50.424726 
L 571.992845 68.264772 
L 573.851495 107.149639 
L 575.327481 135.811 
L 576.256806 149.834778 
L 576.967466 157.530947 
L 577.514128 161.386733 
L 577.951457 163.088485 
L 578.224788 163.509781 
L 578.443452 163.487563 
L 578.662117 163.1457 
L 578.935448 162.270955 
L 579.318111 160.222329 
L 579.810106 156.218761 
L 580.411434 149.360484 
L 581.17676 137.86443 
L 582.215417 118.407795 
L 586.151381 40.205645 
L 586.916707 30.838452 
L 587.518035 25.926685 
L 587.955364 23.824721 
L 588.283361 23.091087 
L 588.502026 23.008772 
L 588.720691 23.252857 
L 588.994021 24.01552 
L 589.376685 25.927499 
L 589.86868 29.792672 
L 590.470008 36.542587 
L 591.235334 48.001789 
L 592.219325 66.46977 
L 593.968642 104.510682 
L 595.499294 135.86628 
L 596.428619 150.825055 
L 597.139279 159.175325 
L 597.685941 163.476428 
L 598.12327 165.488927 
L 598.451267 166.137553 
L 598.669932 166.155181 
L 598.888596 165.840372 
L 599.161927 164.981347 
L 599.54459 162.920969 
L 600.036586 158.84521 
L 600.637914 151.814894 
L 601.40324 139.977828 
L 602.387231 121.023638 
L 604.300546 78.606319 
L 605.721867 49.555387 
L 606.651191 34.806863 
L 607.361851 26.752644 
L 607.908513 22.749332 
L 608.345842 21.012534 
L 608.619173 20.606973 
L 608.783171 20.616892 
L 609.001836 20.925806 
L 609.275167 21.785201 
L 609.65783 23.860421 
L 610.149826 27.979229 
L 610.751153 35.096856 
L 611.51648 47.094561 
L 612.50047 66.320779 
L 614.413786 109.375555 
L 615.835106 138.878846 
L 616.764431 153.864689 
L 617.475091 162.054431 
L 618.021753 166.130481 
L 618.459082 167.90435 
L 618.732413 168.323284 
L 618.896411 168.317741 
L 619.115076 168.010405 
L 619.388407 167.146178 
L 619.77107 165.051668 
L 620.263065 160.887268 
L 620.864393 153.684154 
L 621.629719 141.535854 
L 622.61371 122.062281 
L 624.527026 78.446349 
L 625.948346 48.557832 
L 626.877671 33.376155 
L 627.588331 25.07862 
L 628.134992 20.947803 
L 628.572322 19.148719 
L 628.845652 18.722572 
L 629.009651 18.726946 
L 629.228316 19.036393 
L 629.501646 19.909096 
L 629.884309 22.026142 
L 630.376305 26.237057 
L 630.977633 33.521803 
L 631.742959 45.80809 
L 632.72695 65.501328 
L 634.640265 109.598109 
L 636.061586 139.804032 
L 636.99091 155.140774 
L 637.70157 163.519508 
L 638.248232 167.688303 
L 638.685561 169.501854 
L 638.958892 169.929816 
L 639.122891 169.92388 
L 639.341555 169.609289 
L 639.614886 168.725318 
L 639.997549 166.583731 
L 640.489545 162.327017 
L 641.090872 154.966524 
L 641.856199 142.557357 
L 642.840189 122.675015 
L 644.753505 78.181203 
L 646.174825 47.725943 
L 647.10415 32.27391 
L 647.81481 23.839252 
L 648.361472 19.647964 
L 648.798801 17.829498 
L 649.072132 17.404319 
L 649.23613 17.41405 
L 649.454795 17.736133 
L 649.728126 18.633285 
L 650.110789 20.800159 
L 650.602784 25.100301 
L 651.204112 32.528652 
L 651.969438 45.043164 
L 652.953429 65.081359 
L 654.866745 109.885392 
L 656.288065 140.522114 
L 657.21739 156.050925 
L 657.92805 164.517731 
L 658.474711 168.717439 
L 658.912041 170.532529 
L 659.185371 170.951167 
L 659.34937 170.935926 
L 659.568035 170.604705 
L 659.841365 169.693356 
L 660.224029 167.501727 
L 660.716024 163.162175 
L 661.317352 155.675827 
L 662.082678 143.075834 
L 663.066669 122.917531 
L 665.034651 76.612122 
L 666.401305 47.141591 
L 667.330629 31.573001 
L 668.041289 23.096165 
L 668.587951 18.900594 
L 669.02528 17.095845 
L 669.298611 16.686641 
L 669.46261 16.708575 
L 669.681274 17.049861 
L 669.954605 17.975515 
L 670.337268 20.190086 
L 670.829264 24.563399 
L 671.430591 32.095967 
L 672.195918 44.759364 
L 673.179909 64.999751 
L 675.14789 111.437697 
L 676.514544 140.953556 
L 677.443869 156.52669 
L 678.154529 164.993248 
L 678.701191 169.173721 
L 679.13852 170.962539 
L 679.411851 171.360307 
L 679.575849 171.331037 
L 679.794514 170.979485 
L 680.067845 170.040332 
L 680.450508 167.805905 
L 680.942503 163.406082 
L 681.543831 155.840922 
L 682.309157 143.138278 
L 683.347814 121.631557 
L 687.229112 36.288599 
L 687.994438 25.754475 
L 688.595766 20.150691 
L 689.087761 17.47221 
L 689.415758 16.676158 
L 689.634423 16.591098 
L 689.798421 16.761748 
L 690.071752 17.491257 
L 690.399749 19.093787 
L 690.837078 22.43526 
L 691.38374 28.456971 
L 692.0944 39.070287 
L 692.969059 55.72327 
L 694.281047 85.513867 
L 696.577025 137.844886 
L 697.50635 154.123102 
L 698.21701 163.26015 
L 698.818338 168.372464 
L 699.255667 170.468636 
L 699.583664 171.115565 
L 699.747663 171.138716 
L 699.966327 170.857869 
L 700.239658 170.00803 
L 700.622321 167.899447 
L 701.114317 163.660669 
L 701.715644 156.286984 
L 702.480971 143.811235 
L 703.464961 123.776661 
L 705.323611 80.142085 
L 706.799597 48.055527 
L 707.728922 32.390647 
L 708.439582 23.806981 
L 708.986244 19.510528 
L 709.423573 17.614077 
L 709.696904 17.142915 
L 709.860902 17.126059 
L 710.079567 17.413836 
L 710.352898 18.2699 
L 710.735561 20.382463 
L 711.227556 24.617945 
L 711.828884 31.974463 
L 712.59421 44.407694 
L 713.578201 64.35622 
L 715.491517 109.035384 
L 716.912837 139.639268 
L 717.842162 155.188551 
L 718.552822 163.699913 
L 719.099483 167.953473 
L 719.536813 169.824891 
L 719.810143 170.284956 
L 719.974142 170.296911 
L 720.192807 170.0047 
L 720.466137 169.146545 
L 720.848801 167.037615 
L 721.340796 162.818181 
L 721.942124 155.498505 
L 722.598118 145.090599 
L 722.598118 145.090599 
" clip-path="url(#pac40732b86)" style="fill: none; stroke-dasharray: 6,0; stroke-dashoffset: 0; stroke: #1f77b4; stroke-width: 1.5"/>
   </g>
   <g id="line2d_2">
    <path d="M 28.009882 20.787576 
L 41.129761 19.468774 
L 53.866976 18.410337 
L 66.330861 17.59671 
L 78.576081 17.018836 
L 90.711968 16.667855 
L 102.79319 16.540751 
L 114.874411 16.636536 
L 126.955633 16.954389 
L 139.146187 17.49742 
L 151.500739 18.270649 
L 164.073956 19.280545 
L 176.97517 20.540205 
L 190.368379 22.072922 
L 204.417582 23.907055 
L 219.450776 26.097535 
L 236.069289 28.748513 
L 256.13177 32.184658 
L 314.952559 42.414002 
L 328.837764 44.503422 
L 340.864319 46.093223 
L 351.797551 47.317383 
L 361.965457 48.235131 
L 371.641367 48.887869 
L 381.043947 49.299788 
L 390.227862 49.480374 
L 399.357111 49.438206 
L 408.541026 49.173825 
L 417.943605 48.679319 
L 427.674182 47.942235 
L 437.896754 46.941464 
L 448.829986 45.643836 
L 460.801875 43.995152 
L 474.523081 41.874495 
L 491.469591 39.019044 
L 521.590645 33.669138 
L 547.393073 29.189161 
L 565.214242 26.318995 
L 580.794097 24.031463 
L 595.171298 22.14285 
L 608.783171 20.577445 
L 621.848384 19.297154 
L 634.530933 18.276156 
L 646.940152 17.498615 
L 659.185371 16.953243 
L 671.321259 16.63505 
L 683.402481 16.54087 
L 695.483702 16.669577 
L 707.61959 17.022155 
L 719.86481 17.60161 
L 722.598118 17.761145 
L 722.598118 17.761145 
" clip-path="url(#pac40732b86)" style="fill: none; stroke: #ff0000; stroke-width: 2; stroke-linecap: square"/>
   </g>
   <g id="patch_3">
    <path d="M 21.064 181.44 
L 21.064 6.48 
" style="fill: none; stroke: #000000; stroke-linejoin: miter; stroke-linecap: square"/>
   </g>
   <g id="patch_4">
    <path d="M 729.544 181.44 
L 729.544 6.48 
" style="fill: none; stroke: #000000; stroke-linejoin: miter; stroke-linecap: square"/>
   </g>
   <g id="patch_5">
    <path d="M 21.064 181.44 
L 729.544 181.44 
" style="fill: none; stroke: #000000; stroke-linejoin: miter; stroke-linecap: square"/>
   </g>
   <g id="patch_6">
    <path d="M 21.064 6.48 
L 729.544 6.48 
" style="fill: none; stroke: #000000; stroke-linejoin: miter; stroke-linecap: square"/>
   </g>
   <g id="matplotlib.axis_1">
    <g id="xtick_1">
     <g id="line2d_3">
      <defs>
       <path id="m62bb6566a3" d="M 0 0 
L 0 -4 
" style="stroke: #000000; stroke-width: 0.5"/>
      </defs>
      <g>
       <use xlink:href="#m62bb6566a3" x="28.009882" y="181.44" style="stroke: #000000; stroke-width: 0.5"/>
      </g>
     </g>
     <g id="line2d_4">
      <defs>
       <path id="mc6615ef489" d="M 0 0 
L 0 4 
" style="stroke: #000000; stroke-width: 0.5"/>
      </defs>
      <g>
       <use xlink:href="#mc6615ef489" x="28.009882" y="6.48" style="stroke: #000000; stroke-width: 0.5"/>
      </g>
     </g>
     <g id="text_1">
      <!-- 0 -->
      <g transform="translate(24.409882 195.27475) scale(0.144 -0.144)">
       <defs>
        <path id="STIXGeneral-Regular-30" d="M 3046 2112 
Q 3046 1683 2963 1302 
Q 2880 922 2717 602 
Q 2554 282 2266 96 
Q 1978 -90 1600 -90 
Q 1210 -90 915 108 
Q 621 307 461 640 
Q 301 973 227 1350 
Q 154 1728 154 2150 
Q 154 2746 301 3222 
Q 448 3699 790 4012 
Q 1133 4326 1626 4326 
Q 2253 4326 2649 3712 
Q 3046 3098 3046 2112 
z
M 2432 2080 
Q 2432 3091 2217 3625 
Q 2003 4160 1587 4160 
Q 1190 4160 979 3622 
Q 768 3085 768 2106 
Q 768 1120 979 598 
Q 1190 77 1600 77 
Q 2003 77 2217 598 
Q 2432 1120 2432 2080 
z
" transform="scale(0.015625)"/>
       </defs>
       <use xlink:href="#STIXGeneral-Regular-30"/>
      </g>
     </g>
    </g>
    <g id="xtick_2">
     <g id="line2d_5">
      <g>
       <use xlink:href="#m62bb6566a3" x="224.783811" y="181.44" style="stroke: #000000; stroke-width: 0.5"/>
      </g>
     </g>
     <g id="line2d_6">
      <g>
       <use xlink:href="#mc6615ef489" x="224.783811" y="6.48" style="stroke: #000000; stroke-width: 0.5"/>
      </g>
     </g>
     <g id="text_2">
      <!-- 5 -->
      <g transform="translate(221.183811 195.27475) scale(0.144 -0.144)">
       <defs>
        <path id="STIXGeneral-Regular-35" d="M 2803 4358 
L 2573 3814 
Q 2534 3731 2400 3731 
L 1158 3731 
L 902 3187 
Q 1606 3053 1920 2896 
Q 2234 2739 2502 2368 
Q 2726 2061 2726 1555 
Q 2726 1094 2576 780 
Q 2426 467 2099 224 
Q 1664 -90 1011 -90 
Q 646 -90 422 19 
Q 198 128 198 307 
Q 198 550 486 550 
Q 717 550 960 352 
Q 1210 147 1414 147 
Q 1747 147 2012 480 
Q 2278 813 2278 1229 
Q 2278 1843 1850 2189 
Q 1293 2637 486 2637 
Q 410 2637 410 2688 
L 416 2720 
L 1114 4237 
L 2438 4237 
Q 2547 4237 2608 4269 
Q 2669 4301 2746 4403 
L 2803 4358 
z
" transform="scale(0.015625)"/>
       </defs>
       <use xlink:href="#STIXGeneral-Regular-35"/>
      </g>
     </g>
    </g>
    <g id="xtick_3">
     <g id="line2d_7">
      <g>
       <use xlink:href="#m62bb6566a3" x="421.55774" y="181.44" style="stroke: #000000; stroke-width: 0.5"/>
      </g>
     </g>
     <g id="line2d_8">
      <g>
       <use xlink:href="#mc6615ef489" x="421.55774" y="6.48" style="stroke: #000000; stroke-width: 0.5"/>
      </g>
     </g>
     <g id="text_3">
      <!-- 10 -->
      <g transform="translate(414.35774 195.27475) scale(0.144 -0.144)">
       <defs>
        <path id="STIXGeneral-Regular-31" d="M 2522 0 
L 755 0 
L 755 96 
Q 1107 115 1235 227 
Q 1363 339 1363 608 
L 1363 3482 
Q 1363 3795 1171 3795 
Q 1082 3795 883 3718 
L 710 3654 
L 710 3744 
L 1856 4326 
L 1914 4307 
L 1914 486 
Q 1914 275 2042 185 
Q 2170 96 2522 96 
L 2522 0 
z
" transform="scale(0.015625)"/>
       </defs>
       <use xlink:href="#STIXGeneral-Regular-31"/>
       <use xlink:href="#STIXGeneral-Regular-30" transform="translate(49.999985 0)"/>
      </g>
     </g>
    </g>
    <g id="xtick_4">
     <g id="line2d_9">
      <g>
       <use xlink:href="#m62bb6566a3" x="618.331669" y="181.44" style="stroke: #000000; stroke-width: 0.5"/>
      </g>
     </g>
     <g id="line2d_10">
      <g>
       <use xlink:href="#mc6615ef489" x="618.331669" y="6.48" style="stroke: #000000; stroke-width: 0.5"/>
      </g>
     </g>
     <g id="text_4">
      <!-- 15 -->
      <g transform="translate(611.131669 195.27475) scale(0.144 -0.144)">
       <use xlink:href="#STIXGeneral-Regular-31"/>
       <use xlink:href="#STIXGeneral-Regular-35" transform="translate(49.999985 0)"/>
      </g>
     </g>
    </g>
    <g id="text_5">
     <!-- time [day] -->
     <g transform="translate(342.20025 214.3275) scale(0.16 -0.16)">
      <defs>
       <path id="STIXGeneral-Regular-74" d="M 1702 493 
L 1786 422 
Q 1478 -64 1011 -64 
Q 448 -64 448 749 
L 448 2675 
L 109 2675 
Q 83 2694 83 2720 
Q 83 2771 192 2842 
Q 435 2982 813 3526 
Q 826 3546 874 3606 
Q 922 3667 941 3706 
Q 986 3706 986 3622 
L 986 2880 
L 1632 2880 
L 1632 2675 
L 986 2675 
L 986 845 
Q 986 538 1062 403 
Q 1139 269 1318 269 
Q 1510 269 1702 493 
z
" transform="scale(0.015625)"/>
       <path id="STIXGeneral-Regular-69" d="M 1152 4045 
Q 1152 3904 1056 3811 
Q 960 3718 819 3718 
Q 685 3718 592 3811 
Q 499 3904 499 4045 
Q 499 4179 595 4275 
Q 691 4371 826 4371 
Q 966 4371 1059 4275 
Q 1152 4179 1152 4045 
z
M 1619 0 
L 102 0 
L 102 96 
Q 435 115 521 211 
Q 608 307 608 666 
L 608 2118 
Q 608 2342 563 2432 
Q 518 2522 397 2522 
Q 243 2522 128 2490 
L 128 2592 
L 1120 2944 
L 1146 2918 
L 1146 672 
Q 1146 314 1226 218 
Q 1306 122 1619 96 
L 1619 0 
z
" transform="scale(0.015625)"/>
       <path id="STIXGeneral-Regular-6d" d="M 4960 0 
L 3565 0 
L 3565 96 
Q 3834 122 3907 208 
Q 3981 294 3981 576 
L 3981 1894 
Q 3981 2278 3869 2444 
Q 3757 2611 3488 2611 
Q 3264 2611 3107 2521 
Q 2950 2432 2803 2221 
L 2803 608 
Q 2803 301 2896 201 
Q 2989 102 3264 96 
L 3264 0 
L 1830 0 
L 1830 96 
Q 2112 115 2189 188 
Q 2266 262 2266 550 
L 2266 1901 
Q 2266 2611 1850 2611 
Q 1670 2611 1468 2531 
Q 1267 2451 1171 2336 
Q 1088 2240 1088 2227 
L 1088 448 
Q 1088 243 1177 176 
Q 1267 109 1523 96 
L 1523 0 
L 102 0 
L 102 96 
Q 371 102 460 195 
Q 550 288 550 563 
L 550 2150 
Q 550 2387 499 2480 
Q 448 2573 326 2573 
Q 230 2573 122 2547 
L 122 2656 
Q 557 2778 1011 2944 
L 1062 2925 
L 1062 2451 
L 1075 2451 
Q 1363 2752 1584 2848 
Q 1805 2944 2054 2944 
Q 2560 2944 2733 2406 
Q 3232 2944 3776 2944 
Q 4518 2944 4518 1792 
L 4518 493 
Q 4518 282 4582 202 
Q 4646 122 4794 109 
L 4960 96 
L 4960 0 
z
" transform="scale(0.015625)"/>
       <path id="STIXGeneral-Regular-65" d="M 2611 1050 
L 2714 1005 
Q 2330 -64 1376 -64 
Q 813 -64 486 329 
Q 160 723 160 1389 
Q 160 2074 525 2509 
Q 890 2944 1485 2944 
Q 2061 2944 2374 2502 
Q 2560 2246 2592 1773 
L 621 1773 
Q 646 1370 700 1158 
Q 755 947 915 730 
Q 1184 378 1626 378 
Q 1939 378 2153 531 
Q 2368 685 2611 1050 
z
M 634 1978 
L 1939 1978 
Q 1882 2381 1750 2547 
Q 1619 2714 1312 2714 
Q 1043 2714 864 2525 
Q 685 2336 634 1978 
z
" transform="scale(0.015625)"/>
       <path id="STIXGeneral-Regular-20" transform="scale(0.015625)"/>
       <path id="STIXGeneral-Regular-5b" d="M 1914 -998 
L 563 -998 
L 563 4237 
L 1914 4237 
L 1914 4077 
L 1382 4077 
Q 1216 4077 1133 4006 
Q 1050 3936 1050 3770 
L 1050 -493 
Q 1050 -838 1382 -838 
L 1914 -838 
L 1914 -998 
z
" transform="scale(0.015625)"/>
       <path id="STIXGeneral-Regular-64" d="M 3142 269 
L 2202 -64 
L 2176 -45 
L 2176 365 
Q 1869 -64 1357 -64 
Q 826 -64 499 317 
Q 173 698 173 1312 
Q 173 1990 563 2467 
Q 954 2944 1504 2944 
Q 1850 2944 2176 2669 
L 2176 3667 
Q 2176 3866 2118 3930 
Q 2061 3994 1882 3994 
Q 1792 3994 1741 3987 
L 1741 4090 
Q 2323 4243 2682 4371 
L 2714 4358 
L 2714 730 
Q 2714 506 2768 435 
Q 2822 365 2995 365 
Q 3034 365 3142 371 
L 3142 269 
z
M 2176 653 
L 2176 2125 
Q 2176 2381 1981 2573 
Q 1786 2765 1523 2765 
Q 1158 2765 940 2438 
Q 723 2112 723 1568 
Q 723 979 963 624 
Q 1203 269 1606 269 
Q 1907 269 2080 474 
Q 2176 582 2176 653 
z
" transform="scale(0.015625)"/>
       <path id="STIXGeneral-Regular-61" d="M 2829 422 
L 2829 243 
Q 2586 -64 2253 -64 
Q 1888 -64 1843 403 
L 1837 403 
Q 1427 -64 909 -64 
Q 608 -64 422 112 
Q 237 288 237 602 
Q 237 1050 685 1350 
Q 992 1555 1837 1869 
L 1837 2214 
Q 1837 2502 1699 2646 
Q 1562 2790 1338 2790 
Q 1146 2790 1018 2697 
Q 890 2605 890 2477 
Q 890 2419 909 2348 
Q 928 2278 928 2208 
Q 928 2112 841 2029 
Q 755 1946 634 1946 
Q 525 1946 441 2029 
Q 358 2112 358 2240 
Q 358 2547 685 2752 
Q 986 2944 1421 2944 
Q 1939 2944 2176 2656 
Q 2291 2522 2323 2384 
Q 2355 2246 2355 1946 
L 2355 723 
Q 2355 301 2554 301 
Q 2682 301 2829 422 
z
M 1837 813 
L 1837 1715 
Q 1248 1510 1018 1293 
Q 800 1094 800 800 
Q 800 557 921 432 
Q 1043 307 1242 307 
Q 1453 307 1613 410 
Q 1747 506 1792 589 
Q 1837 672 1837 813 
z
" transform="scale(0.015625)"/>
       <path id="STIXGeneral-Regular-79" d="M 3040 2880 
L 3040 2784 
Q 2925 2771 2854 2700 
Q 2784 2630 2720 2458 
L 1760 -160 
Q 1510 -838 1257 -1116 
Q 1005 -1395 640 -1395 
Q 435 -1395 313 -1289 
Q 192 -1184 192 -1024 
Q 192 -902 272 -816 
Q 352 -730 467 -730 
Q 653 -730 800 -813 
Q 883 -858 966 -858 
Q 1101 -858 1286 -576 
Q 1376 -448 1459 -211 
Q 1542 26 1542 115 
Q 1542 198 1274 762 
L 429 2566 
Q 346 2752 90 2790 
L 90 2880 
L 1402 2880 
L 1402 2784 
Q 1197 2778 1117 2739 
Q 1037 2701 1037 2611 
Q 1037 2541 1120 2349 
L 1837 749 
L 2458 2515 
Q 2483 2573 2483 2630 
Q 2483 2784 2189 2784 
L 2189 2880 
L 3040 2880 
z
" transform="scale(0.015625)"/>
       <path id="STIXGeneral-Regular-5d" d="M 1568 -998 
L 218 -998 
L 218 -838 
L 781 -838 
Q 947 -838 1014 -768 
Q 1082 -698 1082 -544 
L 1082 3731 
Q 1082 4077 755 4077 
L 218 4077 
L 218 4237 
L 1568 4237 
L 1568 -998 
z
" transform="scale(0.015625)"/>
      </defs>
      <use xlink:href="#STIXGeneral-Regular-74"/>
      <use xlink:href="#STIXGeneral-Regular-69" transform="translate(27.799988 0)"/>
      <use xlink:href="#STIXGeneral-Regular-6d" transform="translate(55.599976 0)"/>
      <use xlink:href="#STIXGeneral-Regular-65" transform="translate(133.399963 0)"/>
      <use xlink:href="#STIXGeneral-Regular-20" transform="translate(177.799957 0)"/>
      <use xlink:href="#STIXGeneral-Regular-5b" transform="translate(202.799942 0)"/>
      <use xlink:href="#STIXGeneral-Regular-64" transform="translate(236.09993 0)"/>
      <use xlink:href="#STIXGeneral-Regular-61" transform="translate(286.099915 0)"/>
      <use xlink:href="#STIXGeneral-Regular-79" transform="translate(330.499908 0)"/>
      <use xlink:href="#STIXGeneral-Regular-5d" transform="translate(380.499893 0)"/>
     </g>
    </g>
   </g>
   <g id="matplotlib.axis_2">
    <g id="ytick_1">
     <g id="line2d_11">
      <defs>
       <path id="m99f22aab66" d="M 0 0 
L 4 0 
" style="stroke: #000000; stroke-width: 0.5"/>
      </defs>
      <g>
       <use xlink:href="#m99f22aab66" x="21.064" y="181.44" style="stroke: #000000; stroke-width: 0.5"/>
      </g>
     </g>
     <g id="line2d_12">
      <defs>
       <path id="m1f83c5245a" d="M 0 0 
L -4 0 
" style="stroke: #000000; stroke-width: 0.5"/>
      </defs>
      <g>
       <use xlink:href="#m1f83c5245a" x="729.544" y="181.44" style="stroke: #000000; stroke-width: 0.5"/>
      </g>
     </g>
     <g id="text_6">
      <!-- −6 -->
      <g transform="translate(0 184.79475) scale(0.144 -0.144)">
       <defs>
        <path id="STIXGeneral-Regular-2212" d="M 3974 1408 
L 410 1408 
L 410 1830 
L 3974 1830 
L 3974 1408 
z
" transform="scale(0.015625)"/>
        <path id="STIXGeneral-Regular-36" d="M 2854 4378 
L 2867 4275 
Q 2112 4154 1606 3664 
Q 1101 3174 973 2451 
Q 1344 2739 1786 2739 
Q 2349 2739 2672 2380 
Q 2995 2022 2995 1402 
Q 2995 774 2669 378 
Q 2291 -90 1651 -90 
Q 870 -90 518 557 
Q 218 1107 218 1786 
Q 218 2835 915 3552 
Q 1312 3962 1731 4131 
Q 2150 4301 2854 4378 
z
M 2419 1203 
Q 2419 2445 1555 2445 
Q 1235 2445 1024 2275 
Q 813 2106 813 1702 
Q 813 954 1046 522 
Q 1280 90 1722 90 
Q 2061 90 2240 394 
Q 2419 698 2419 1203 
z
" transform="scale(0.015625)"/>
       </defs>
       <use xlink:href="#STIXGeneral-Regular-2212"/>
       <use xlink:href="#STIXGeneral-Regular-36" transform="translate(68.499985 0)"/>
      </g>
     </g>
    </g>
    <g id="ytick_2">
     <g id="line2d_13">
      <g>
       <use xlink:href="#m99f22aab66" x="21.064" y="152.28" style="stroke: #000000; stroke-width: 0.5"/>
      </g>
     </g>
     <g id="line2d_14">
      <g>
       <use xlink:href="#m1f83c5245a" x="729.544" y="152.28" style="stroke: #000000; stroke-width: 0.5"/>
      </g>
     </g>
     <g id="text_7">
      <!-- −4 -->
      <g transform="translate(0 155.63475) scale(0.144 -0.144)">
       <defs>
        <path id="STIXGeneral-Regular-34" d="M 3027 1069 
L 2368 1069 
L 2368 0 
L 1869 0 
L 1869 1069 
L 77 1069 
L 77 1478 
L 2086 4326 
L 2368 4326 
L 2368 1478 
L 3027 1478 
L 3027 1069 
z
M 1869 1478 
L 1869 3674 
L 333 1478 
L 1869 1478 
z
" transform="scale(0.015625)"/>
       </defs>
       <use xlink:href="#STIXGeneral-Regular-2212"/>
       <use xlink:href="#STIXGeneral-Regular-34" transform="translate(68.499985 0)"/>
      </g>
     </g>
    </g>
    <g id="ytick_3">
     <g id="line2d_15">
      <g>
       <use xlink:href="#m99f22aab66" x="21.064" y="123.12" style="stroke: #000000; stroke-width: 0.5"/>
      </g>
     </g>
     <g id="line2d_16">
      <g>
       <use xlink:href="#m1f83c5245a" x="729.544" y="123.12" style="stroke: #000000; stroke-width: 0.5"/>
      </g>
     </g>
     <g id="text_8">
      <!-- −2 -->
      <g transform="translate(0 126.47475) scale(0.144 -0.144)">
       <defs>
        <path id="STIXGeneral-Regular-32" d="M 3034 877 
L 2688 0 
L 186 0 
L 186 77 
L 1325 1286 
Q 1773 1754 1965 2144 
Q 2157 2534 2157 2950 
Q 2157 3379 1920 3616 
Q 1683 3853 1267 3853 
Q 922 3853 720 3673 
Q 518 3494 326 3021 
L 192 3053 
Q 301 3648 630 3987 
Q 960 4326 1523 4326 
Q 2054 4326 2380 4006 
Q 2707 3686 2707 3200 
Q 2707 2477 1888 1613 
L 832 486 
L 2330 486 
Q 2541 486 2665 569 
Q 2790 653 2944 915 
L 3034 877 
z
" transform="scale(0.015625)"/>
       </defs>
       <use xlink:href="#STIXGeneral-Regular-2212"/>
       <use xlink:href="#STIXGeneral-Regular-32" transform="translate(68.499985 0)"/>
      </g>
     </g>
    </g>
    <g id="ytick_4">
     <g id="line2d_17">
      <g>
       <use xlink:href="#m99f22aab66" x="21.064" y="93.96" style="stroke: #000000; stroke-width: 0.5"/>
      </g>
     </g>
     <g id="line2d_18">
      <g>
       <use xlink:href="#m1f83c5245a" x="729.544" y="93.96" style="stroke: #000000; stroke-width: 0.5"/>
      </g>
     </g>
     <g id="text_9">
      <!-- 0 -->
      <g transform="translate(9.864 97.31475) scale(0.144 -0.144)">
       <use xlink:href="#STIXGeneral-Regular-30"/>
      </g>
     </g>
    </g>
    <g id="ytick_5">
     <g id="line2d_19">
      <g>
       <use xlink:href="#m99f22aab66" x="21.064" y="64.8" style="stroke: #000000; stroke-width: 0.5"/>
      </g>
     </g>
     <g id="line2d_20">
      <g>
       <use xlink:href="#m1f83c5245a" x="729.544" y="64.8" style="stroke: #000000; stroke-width: 0.5"/>
      </g>
     </g>
     <g id="text_10">
      <!-- 2 -->
      <g transform="translate(9.864 68.15475) scale(0.144 -0.144)">
       <use xlink:href="#STIXGeneral-Regular-32"/>
      </g>
     </g>
    </g>
    <g id="ytick_6">
     <g id="line2d_21">
      <g>
       <use xlink:href="#m99f22aab66" x="21.064" y="35.64" style="stroke: #000000; stroke-width: 0.5"/>
      </g>
     </g>
     <g id="line2d_22">
      <g>
       <use xlink:href="#m1f83c5245a" x="729.544" y="35.64" style="stroke: #000000; stroke-width: 0.5"/>
      </g>
     </g>
     <g id="text_11">
      <!-- 4 -->
      <g transform="translate(9.864 38.99475) scale(0.144 -0.144)">
       <use xlink:href="#STIXGeneral-Regular-34"/>
      </g>
     </g>
    </g>
    <g id="ytick_7">
     <g id="line2d_23">
      <g>
       <use xlink:href="#m99f22aab66" x="21.064" y="6.48" style="stroke: #000000; stroke-width: 0.5"/>
      </g>
     </g>
     <g id="line2d_24">
      <g>
       <use xlink:href="#m1f83c5245a" x="729.544" y="6.48" style="stroke: #000000; stroke-width: 0.5"/>
      </g>
     </g>
     <g id="text_12">
      <!-- 6 -->
      <g transform="translate(9.864 9.83475) scale(0.144 -0.144)">
       <use xlink:href="#STIXGeneral-Regular-36"/>
      </g>
     </g>
    </g>
   </g>
   <g id="legend_1">
    <g id="patch_7">
     <path d="M 28.264 174.24 
L 133.2985 174.24 
L 133.2985 129.1095 
L 28.264 129.1095 
z
" style="fill: #ffffff; stroke: #000000; stroke-linejoin: miter"/>
    </g>
    <g id="line2d_25">
     <path d="M 38.344 139.9095 
L 58.504 139.9095 
" style="fill: none; stroke-dasharray: 6,0; stroke-dashoffset: 0; stroke: #1f77b4; stroke-width: 1.5"/>
    </g>
    <g id="text_13">
     <!-- tide level -->
     <g transform="translate(74.344 144.9495) scale(0.144 -0.144)">
      <defs>
       <path id="STIXGeneral-Regular-6c" d="M 1645 0 
L 134 0 
L 134 96 
Q 435 122 531 221 
Q 627 320 627 589 
L 627 3590 
Q 627 3821 569 3910 
Q 512 4000 358 4000 
Q 224 4000 122 3987 
L 122 4090 
Q 730 4237 1133 4371 
L 1165 4346 
L 1165 557 
Q 1165 288 1254 201 
Q 1344 115 1645 96 
L 1645 0 
z
" transform="scale(0.015625)"/>
       <path id="STIXGeneral-Regular-76" d="M 3053 2880 
L 3053 2784 
Q 2906 2771 2835 2688 
Q 2765 2605 2637 2285 
L 1818 230 
Q 1690 -90 1638 -90 
Q 1587 -90 1523 77 
Q 1510 96 1497 141 
Q 1485 186 1472 211 
L 704 2048 
Q 499 2534 403 2652 
Q 307 2771 122 2784 
L 122 2880 
L 1376 2880 
L 1376 2784 
Q 1210 2771 1146 2732 
Q 1082 2694 1082 2611 
Q 1082 2509 1139 2368 
L 1792 730 
L 2426 2387 
Q 2464 2483 2464 2579 
Q 2464 2758 2163 2784 
L 2163 2880 
L 3053 2880 
z
" transform="scale(0.015625)"/>
      </defs>
      <use xlink:href="#STIXGeneral-Regular-74"/>
      <use xlink:href="#STIXGeneral-Regular-69" transform="translate(27.799988 0)"/>
      <use xlink:href="#STIXGeneral-Regular-64" transform="translate(55.599976 0)"/>
      <use xlink:href="#STIXGeneral-Regular-65" transform="translate(105.59996 0)"/>
      <use xlink:href="#STIXGeneral-Regular-20" transform="translate(149.999954 0)"/>
      <use xlink:href="#STIXGeneral-Regular-6c" transform="translate(174.999939 0)"/>
      <use xlink:href="#STIXGeneral-Regular-65" transform="translate(202.799927 0)"/>
      <use xlink:href="#STIXGeneral-Regular-76" transform="translate(247.199921 0)"/>
      <use xlink:href="#STIXGeneral-Regular-65" transform="translate(297.199905 0)"/>
      <use xlink:href="#STIXGeneral-Regular-6c" transform="translate(341.599899 0)"/>
     </g>
    </g>
    <g id="line2d_26">
     <path d="M 38.344 160.31475 
L 58.504 160.31475 
" style="fill: none; stroke: #ff0000; stroke-width: 2; stroke-linecap: square"/>
    </g>
    <g id="text_14">
     <!-- envelop -->
     <g transform="translate(74.344 165.35475) scale(0.144 -0.144)">
      <defs>
       <path id="STIXGeneral-Regular-6e" d="M 3104 0 
L 1773 0 
L 1779 96 
Q 2016 115 2096 233 
Q 2176 352 2176 672 
L 2176 1946 
Q 2176 2592 1709 2592 
Q 1549 2592 1408 2515 
Q 1267 2438 1050 2227 
L 1050 461 
Q 1050 269 1136 192 
Q 1222 115 1466 96 
L 1466 0 
L 115 0 
L 115 96 
Q 358 115 435 214 
Q 512 314 512 602 
L 512 2157 
Q 512 2394 467 2483 
Q 422 2573 288 2573 
Q 160 2573 102 2547 
L 102 2656 
Q 550 2784 979 2944 
L 1030 2925 
L 1030 2426 
L 1037 2426 
Q 1491 2944 1958 2944 
Q 2323 2944 2518 2688 
Q 2714 2432 2714 1958 
L 2714 544 
Q 2714 288 2790 205 
Q 2867 122 3104 96 
L 3104 0 
z
" transform="scale(0.015625)"/>
       <path id="STIXGeneral-Regular-6f" d="M 3008 1478 
Q 3008 806 2608 371 
Q 2208 -64 1568 -64 
Q 979 -64 582 368 
Q 186 800 186 1459 
Q 186 2125 582 2534 
Q 979 2944 1626 2944 
Q 2221 2944 2614 2537 
Q 3008 2131 3008 1478 
z
M 2432 1306 
Q 2432 2035 2112 2445 
Q 1856 2765 1504 2765 
Q 1171 2765 966 2493 
Q 762 2221 762 1747 
Q 762 928 1101 435 
Q 1318 115 1677 115 
Q 2029 115 2230 432 
Q 2432 749 2432 1306 
z
" transform="scale(0.015625)"/>
       <path id="STIXGeneral-Regular-70" d="M 1018 2931 
L 1018 2438 
Q 1421 2944 1939 2944 
Q 2406 2944 2707 2560 
Q 3008 2176 3008 1581 
Q 3008 883 2621 409 
Q 2234 -64 1664 -64 
Q 1466 -64 1328 -6 
Q 1190 51 1018 211 
L 1018 -794 
Q 1018 -1094 1120 -1180 
Q 1222 -1267 1581 -1274 
L 1581 -1389 
L 32 -1389 
L 32 -1280 
Q 314 -1254 397 -1171 
Q 480 -1088 480 -838 
L 480 2157 
Q 480 2381 429 2451 
Q 378 2522 218 2522 
Q 115 2522 58 2515 
L 58 2618 
Q 506 2752 979 2944 
L 1018 2931 
z
M 1018 2138 
L 1018 563 
Q 1018 422 1238 281 
Q 1459 141 1683 141 
Q 2029 141 2243 467 
Q 2458 794 2458 1325 
Q 2458 1888 2243 2224 
Q 2029 2560 1670 2560 
Q 1446 2560 1232 2419 
Q 1018 2278 1018 2138 
z
" transform="scale(0.015625)"/>
      </defs>
      <use xlink:href="#STIXGeneral-Regular-65"/>
      <use xlink:href="#STIXGeneral-Regular-6e" transform="translate(44.399994 0)"/>
      <use xlink:href="#STIXGeneral-Regular-76" transform="translate(94.399979 0)"/>
      <use xlink:href="#STIXGeneral-Regular-65" transform="translate(144.399963 0)"/>
      <use xlink:href="#STIXGeneral-Regular-6c" transform="translate(188.799957 0)"/>
      <use xlink:href="#STIXGeneral-Regular-6f" transform="translate(216.599945 0)"/>
      <use xlink:href="#STIXGeneral-Regular-70" transform="translate(266.59993 0)"/>
     </g>
    </g>
   </g>
  </g>
 </g>
 <defs>
  <clipPath id="pac40732b86">
   <rect x="21.064" y="6.48" width="708.48" height="174.96"/>
  </clipPath>
 </defs>
</svg>
